<?xml version="1.0" encoding="utf-8"?>
<!-- Generator: Adobe Illustrator 23.0.2, SVG Export Plug-In . SVG Version: 6.00 Build 0)  -->
<svg version="1.1" id="Layer_1" xmlns="http://www.w3.org/2000/svg" xmlns:xlink="http://www.w3.org/1999/xlink" x="0px" y="0px"
	 viewBox="0 0 2200 2000" style="enable-background:new 0 0 2200 2000;" xml:space="preserve">
<style type="text/css">
	.st0{fill:#479F99;}
	.st1{fill:#FFFFFF;}
</style>
<g id="bg">
</g>
<g id="Calendar">
	<g>
		<path class="st0" d="M1914.6,1950.5H275.3c-42.6,0-77.3-34.5-77.3-77.3V312c0-42.6,34.5-77.3,77.3-77.3h1639.3
			c42.6,0,77.3,34.5,77.3,77.3v1561.3C1991.8,1915.8,1957.1,1950.5,1914.6,1950.5z"/>
		<path class="st1" d="M1741.1,1849.4H478.8c-95.8,0-173.5-77.7-173.5-173.5V746h1579.4v959.7
			C1884.5,1785.1,1820.4,1849.4,1741.1,1849.4z"/>
	</g>
	<g>
		<g>
			<path class="st0" d="M713.6,1019H542.5c-11.9,0-21.6-9.7-21.6-21.6V826.3c0-11.9,9.7-21.6,21.6-21.6h171.1
				c11.9,0,21.6,9.7,21.6,21.6v171.1C735.2,1009.3,725.5,1019,713.6,1019z"/>
			<path class="st0" d="M1034.7,1019h-171c-11.9,0-21.6-9.7-21.6-21.6V826.3c0-11.9,9.7-21.6,21.6-21.6h171.1
				c11.9,0,21.6,9.7,21.6,21.6v171.1C1056.3,1009.3,1046.6,1019,1034.7,1019z"/>
			<path class="st0" d="M1355.8,1019h-171.1c-11.9,0-21.6-9.7-21.6-21.6V826.3c0-11.9,9.7-21.6,21.6-21.6h171.1
				c11.9,0,21.6,9.7,21.6,21.6v171.1C1377.4,1009.3,1367.7,1019,1355.8,1019z"/>
			<path class="st0" d="M1677,1019h-171.1c-11.9,0-21.6-9.7-21.6-21.6V826.3c0-11.9,9.7-21.6,21.6-21.6H1677
				c11.9,0,21.6,9.7,21.6,21.6v171.1C1698.6,1009.3,1688.9,1019,1677,1019z"/>
		</g>
		<g>
			<path class="st0" d="M713.6,1340.1H542.5c-11.9,0-21.6-9.7-21.6-21.6v-171.1c0-11.9,9.7-21.6,21.6-21.6h171.1
				c11.9,0,21.6,9.7,21.6,21.6v171.1C735.2,1330.4,725.5,1340.1,713.6,1340.1z"/>
			<path class="st0" d="M1355.8,1340.1h-171.1c-11.9,0-21.6-9.7-21.6-21.6v-171.1c0-11.9,9.7-21.6,21.6-21.6h171.1
				c11.9,0,21.6,9.7,21.6,21.6v171.1C1377.4,1330.4,1367.7,1340.1,1355.8,1340.1z"/>
			<path class="st0" d="M1677,1340.1h-171.1c-11.9,0-21.6-9.7-21.6-21.6v-171.1c0-11.9,9.7-21.6,21.6-21.6H1677
				c11.9,0,21.6,9.7,21.6,21.6v171.1C1698.6,1330.4,1688.9,1340.1,1677,1340.1z"/>
		</g>
		<g>
			<path class="st0" d="M713.6,1671.9H542.5c-11.9,0-21.6-9.7-21.6-21.6v-171.1c0-11.9,9.7-21.6,21.6-21.6h171.1
				c11.9,0,21.6,9.7,21.6,21.6v171.1C735.2,1662.2,725.5,1671.9,713.6,1671.9z"/>
			<path class="st0" d="M1034.7,1671.9h-171c-11.9,0-21.6-9.7-21.6-21.6v-171.1c0-11.9,9.7-21.6,21.6-21.6h171.1
				c11.9,0,21.6,9.7,21.6,21.6v171.1C1056.3,1662.2,1046.6,1671.9,1034.7,1671.9z"/>
			<path class="st0" d="M1355.8,1671.9h-171.1c-11.9,0-21.6-9.7-21.6-21.6v-171.1c0-11.9,9.7-21.6,21.6-21.6h171.1
				c11.9,0,21.6,9.7,21.6,21.6v171.1C1377.4,1662.2,1367.7,1671.9,1355.8,1671.9z"/>
		</g>
		<path class="st0" d="M1034.7,1338.7h-171c-11.9,0-21.6-9.7-21.6-21.6V1146c0-11.9,9.7-21.6,21.6-21.6h171.1
			c11.9,0,21.6,9.7,21.6,21.6v171.1C1056.3,1329.2,1046.6,1338.7,1034.7,1338.7z"/>
	</g>
	<g>
		<circle class="st1" cx="628.7" cy="410.4" r="108.7"/>
		<path class="st0" d="M684.7,481.4H572.4c-7.9,0-14.1-6.3-14.1-14.1V36.4c0-7.9,6.3-14.1,14.1-14.1h112.4c7.9,0,14.1,6.3,14.1,14.1
			v430.9C698.9,475.1,692.6,481.4,684.7,481.4z"/>
	</g>
	<g>
		<circle class="st1" cx="1528.5" cy="410.4" r="108.7"/>
		<path class="st0" d="M1584.8,481.4h-112.4c-7.9,0-14.1-6.3-14.1-14.1V36.4c0-7.9,6.3-14.1,14.1-14.1h112.4
			c7.9,0,14.1,6.3,14.1,14.1v430.9C1598.9,475.1,1592.5,481.4,1584.8,481.4z"/>
	</g>
</g>
</svg>
