<?xml version="1.0" encoding="utf-8"?>
<!-- Generator: Adobe Illustrator 23.0.2, SVG Export Plug-In . SVG Version: 6.00 Build 0)  -->
<svg version="1.1" id="Layer_1" xmlns="http://www.w3.org/2000/svg" xmlns:xlink="http://www.w3.org/1999/xlink" x="0px" y="0px"
	 viewBox="0 0 913.4 920.8" style="enable-background:new 0 0 913.4 920.8;" xml:space="preserve">
<title>plus</title>
<path d="M511.8,390.6c1.6,0.3,3.1,0.5,4.7,0.7c3.7,0.2,7.3,0.6,10.9,1.2c3.4,0.5,7.2,0.4,10.7,1.5c3.4,0.9,7,0.8,10.3-0.4
	c3.3-1.1,6.9-1,10.2,0.2c6.1,2.4,13,2.1,19.4,2.5c7.2,0.4,14.7-0.6,22-0.6c6.5-0.1,13.2-0.2,18.9,2.5c2.5,1.2,5.8,1.8,9.7,2.9
	l-6.6,1c7.2,1.7,8.7,1.6,13-0.7c0.7-0.3,1.5-0.5,2.3-0.6c1.9-0.1,3.8-0.1,5.8,0c6.2,0.6,12.3,1.3,18.4,1.9c-0.1,0.3-0.1,0.6-0.2,0.9
	l-20.6-1c1.1,1.1,1.5,2.1,2.4,2.3c2,0.4,4.2,0.4,6.3,0.6c7.3,0.8,14.7,1.5,21.8,2.6c4,0.6,7.5,2.2,11.5,3.2c2.1,0.5,4.7,0.4,6.9,0.7
	c3.9,0.5,7.8,1.1,11.5,1.9c0.9,0.2,1.8,1.4,1.5,2s-1.8,1.2-2.9,1.3c-1.9,0.2-3.8,0.2-5.7,0.1c-7.2-0.4-14.5-1.2-21.3,1.3
	c0-0.1-0.1,0,0,0.1c0.3,0.2,0.7,0.3,1.1,0.5c-2.3,2.2-5.4,3-10.2,2.6c-6.9-0.6-13.9-1-20.8-1c-9.3,0-18.6,0.6-28,1.3
	c7.3,0.4,14.5,0.8,21.8,1.3c3.4,0.2,6.9-0.2,9.9,1.7c1.1,0.7,5,0.3,7.4-0.1c7.8-1.3,15.1-1.1,22,1.5c3.6,1.4,8.5,0.3,11.3,1.5
	c3.4,1.5,6.4,2.7,10.7,2.5c0.5,0,1-0.1,1.8-0.1l1.6-2.3l6.2,0.4l-0.2-0.1c-0.5,2.1,2,2.5,4.7,2.9c5.3,0.7,10.5,1.6,15.9,2.7
	c-3.3,0.3-3.1,3.6-7.7,2.5c-0.8-0.1-1.7-0.3-2.5-0.5c0-2.6-3.7-2.2-6.2-2.4c-8.5-0.6-17.2-0.9-25.7-1.5c-7.3-0.6-14.5-1.5-21.8-2.2
	c-1.7-0.2-3.5-0.7-4.9-0.4c-6,1.2-11.8,0.5-17.7,0.1c-1.8-0.1-3.6,0.3-5.3,1c6.2,0.3,12.3,0.6,18.5,1c11.5,0.8,23.1,1.6,34.7,2.2
	c2.6,0,5.2-0.1,7.8-0.4c2.8-0.3,4,0.4,4.4,2.4l-20.8-1c1.7,2.8,5.3,2.6,9,2.6c4.7-0.1,9.5-0.5,13.7,1.4c-6.7,1.2-13.7-0.9-20.3,0.8
	c10,0.4,19.5,2.5,29.7,2.3c-4.6,1.5-15.6,1.5-29.6,0.3c-1.5,1.1-1.1,2.1,1.3,2.5c1.8,0.3,3.9,0.1,5.7,0.4c1.3,0.2,2.4,0.9,4.7,1.8
	l-11.2,1.8c4,0.5,9.2,0.8,14.2,1.7c7.3,1.3,12.4-1.2,18.7-2.9l5.2,6.3l8.8,0.9c-1.5-1.1-1.5-1.1-6.2-2.1c4.9-1.6,9.5,0,14.3-0.8
	c0.1,1.2,0.2,2.1,0.3,3.1c3.3-0.5,7.3,1,9.6-1.8c5.1,3.6,12.4,2.4,18.8,3.4c-1.3,0.2-2.7,0.4-4,0.4c-13.7,0-27.4-0.3-41,0.1
	c-17.9,0.5-35.8,1.5-53.7,2.3c-6.2,0.3-12.4,0.6-18.6,0.9c-1.6,0.1-3,0.6-4.6,0.7c-1.8,0.2-3.5,0.2-5.3,0c-2.3-0.4-4.5-1.1-5,1.1
	c-0.7,0.4-1.5,0.6-2.3,0.6c-4.1-2-8.2-0.2-12.2,0c-18.4,0.6-36.9,0.6-55.3,0.2c-9.8-0.3-19.7,0.1-29.5,0.1
	c-4.5-0.2-9.1-0.4-13.6-0.5v1l13.8-0.5c0.9,0.5,1.8,0.8,2.8,1c15.6,0.2,31,2.2,46.7,1c3.7-0.3,7.4,0,11,0.7
	c-1.9,0.3-3.8,0.6-5.7,0.7c-10.3,0-20.6-0.2-30.8-0.2c-13.9,0-27.9,0.5-41.8,0c-6.7-0.2-12.9,1.2-21,1.1l5.1-1
	c-2.7-1.7-5.9-0.6-8.6-0.8s-5.5-0.2-8.3-0.2c-0.9-0.2-1.9-0.2-2.8,0c-4.4,2.2-9.6,1.4-14.4,1.2c-24.4-1-48.8-2.3-73.3-3.4
	c-14.4-0.6-28.8-0.7-43.1-1.3c-13.9-0.5-27.9-0.8-41.6-2.1c-17.4-1.7-34.9-2-52.4-2.6c-5.7-0.2-11.4-0.7-17.2-1
	c-3.8-0.2-7.6-0.3-11.4-0.2c-4.3,0.1-8.5-1-12.2-3.1c-3.9-2-3.6-3.5,0.1-5.9c1.7-1,3.3-2.1,5.6-3.6l-3.6-2.7c1.5-2.3,3.2-4.5,5-6.7
	c1.9-2,4-3.8,6.2-5.5c3.7-3.1,7.5-6.2,12.1-10l8.6,0.3v-2.8c10.6-1.9,21.3-3.9,31.9-5.9c4.5-0.9,9-2,13.5-2.9
	c8.4-1.7,16.8-3.3,25.1-5c6.4-1.3,13.6-1.9,18-5.7c6,2.6,11.3,2.1,17.2,0.5c4.8-1.3,9.6-3.3,15.9-1.7c1.7,0.4,4.8-0.6,7.1-1.3
	s4.4-1.7,6.8-2.3c1.3-0.3,4-0.1,4.4,0.4c1.2,1.4,2.8,1.9,5.1,1.6c3.9-0.5,8.4,0.5,11.6-1.4c3.8-2.3,7.8-2.3,12.4-0.8
	c3.3,1.2,6.9,1.3,10.3,0.1c3.4-1.4,6.8-0.9,10.3-0.7c2.3,0.1,4.6,0,6.9-0.1c1.9,0,4-0.5,5.6-0.1c2.5,0.6,4.3,0.7,6.5-0.5
	c2.8-1.5,5.2-0.1,7.5,0.9c4.3-2.3,8.4-3.3,13.2-0.5c1.4,0.8,4.6,0.6,7.7,0.9l-2.2,1.3c1.8,0.1,3.7,0.3,5.5,0.7
	c5.6,1.6,10.6,0.5,15.6-1c1.8-0.4,3.5-0.8,5.3-1L511.8,390.6z M483,461.5l23.6,1l0.1-1C498.8,461.1,490.9,461.1,483,461.5z
	 M703.5,451.3c-0.1,0.3-0.2,0.6-0.2,0.8c8.3,2.4,8.3,2.4,12.1-0.3L703.5,451.3z M684.5,451.5c2.2,2,4.5,1.8,7.7,1.2
	C690,450.9,687.7,451.3,684.5,451.5L684.5,451.5z M646.3,415.4c5.2,1.4,5.2,1.4,8.8-0.3L646.3,415.4z M637.9,409.1l0.7-0.9l-8.2-0.3
	l-0.1,0.4L637.9,409.1z M689.8,414.4c0-0.1,0-0.2,0-0.3l-4.6-0.9l-0.4,0.9L689.8,414.4z M611.2,419.9l-0.3,0.1
	c0.2,0.1,0.4,0.1,0.6,0.1h3.9v-0.3L611.2,419.9z M618.9,459.9c0.1,0.3,0.3,0.5,0.4,0.8l3.1-0.7l-0.2-0.4L618.9,459.9z"/>
<path d="M724,423.7c5.3-0.2,10.7-1,14.8,1.7L724,423.7z"/>
<path d="M665.6,402.9l10.5,1C671,404.9,671,404.9,665.6,402.9z"/>
<path d="M688.7,423.3l-4.7-0.8c0.5-0.6,0.6-0.9,0.8-1c0.9-0.2,1.8-0.2,2.6-0.1c0.7,0.2,1.3,0.5,1.9,0.9L688.7,423.3z"/>
<path d="M491.4,389.3l4.3-0.2C493.4,390.5,493.4,390.5,491.4,389.3z"/>
<path d="M512,390.8c0.6-2.2,0.6-2.2,6-0.4l-6.2,0.3L512,390.8z"/>
<path d="M711.6,423.1l-3.9-1.1l0.7-0.8l3.9,1L711.6,423.1z"/>
<path d="M707.3,414.7l4,1l-0.3,0.5l-4.2-0.8L707.3,414.7z"/>
<path d="M707.4,428.2c-0.1-0.1-0.2-0.3-0.2-0.4c-0.1-0.7-0.1-1.4-0.2-2.1l1.3,0.1c-0.4,0.8-0.7,1.5-1.1,2.3L707.4,428.2z"/>
<path d="M568.5,394l5.3,0.2c0,0.1,0,0.3,0,0.5h-5.4L568.5,394z"/>
<path d="M622,390.6c1.6,0.3,3.2,0.5,4.8,0.7c3.7,0.2,7.4,0.6,11.1,1.2c3.5,0.5,7.4,0.4,10.9,1.5c3.5,0.9,7.1,0.8,10.5-0.4
	c3.4-1.1,7-1,10.4,0.2c6.2,2.4,13.2,2.1,19.8,2.5c7.4,0.4,15-0.6,22.5-0.6c6.7-0.1,13.5-0.2,19.3,2.5c2.6,1.2,5.9,1.8,9.8,2.9
	l-6.7,1c7.4,1.7,8.9,1.6,13.3-0.7c0.7-0.4,1.5-0.5,2.4-0.6c2-0.1,3.9-0.1,5.9,0c6.3,0.6,12.6,1.3,18.8,1.9c-0.1,0.3-0.1,0.6-0.2,0.9
	l-21-1c1.1,1.1,1.5,2.1,2.5,2.3c2,0.4,4.3,0.4,6.5,0.6c7.4,0.8,15,1.5,22.3,2.6c4.1,0.6,7.7,2.2,11.7,3.2c2.2,0.5,4.8,0.4,7.1,0.7
	c3.9,0.5,7.9,1.1,11.7,1.9c0.9,0.2,1.8,1.4,1.6,2s-1.8,1.2-3,1.3c-1.9,0.2-3.9,0.2-5.9,0.1c-7.4-0.4-14.8-1.2-21.8,1.3
	c0-0.1-0.1,0,0,0.1c0.3,0.2,0.8,0.3,1.1,0.5c-2.4,2.2-5.5,3-10.4,2.6c-7-0.6-14.2-1-21.2-1c-9.5,0-19,0.6-28.6,1.3
	c7.4,0.4,14.8,0.8,22.2,1.3c3.5,0.2,7.1-0.2,10.1,1.7c1.1,0.7,5.2,0.3,7.6-0.1c7.9-1.3,15.4-1.1,22.4,1.5c3.7,1.4,8.7,0.3,11.6,1.5
	c3.5,1.5,6.5,2.7,10.9,2.5l1.8-0.1l1.7-2.3l6.3,0.4l-0.2-0.1c-0.5,2.1,2,2.5,4.8,2.9c5.4,0.7,10.8,1.6,16.3,2.7
	c-3.3,0.3-3.2,3.6-7.8,2.5c-0.9-0.1-1.7-0.3-2.5-0.5c0-2.6-3.8-2.2-6.3-2.4c-8.7-0.6-17.5-0.9-26.3-1.5c-7.5-0.6-14.8-1.5-22.2-2.2
	c-1.7-0.2-3.6-0.7-5-0.4c-6.1,1.2-12.1,0.5-18.1,0.1c-1.9-0.1-3.7,0.3-5.4,1c6.3,0.3,12.6,0.6,18.8,1c11.8,0.8,23.6,1.6,35.4,2.2
	c2.7,0,5.3-0.1,7.9-0.4c2.8-0.3,4.1,0.4,4.5,2.4l-21.3-1c1.7,2.8,5.4,2.6,9.2,2.6c4.8-0.1,9.7-0.5,14,1.4c-6.9,1.2-14-0.9-20.7,0.8
	c10.2,0.4,19.9,2.5,30.3,2.3c-4.7,1.5-15.9,1.5-30.2,0.3c-1.5,1.1-1.2,2.1,1.3,2.5c1.9,0.3,4,0.1,5.8,0.4c1.3,0.2,2.5,0.9,4.8,1.8
	l-11.4,1.8c4.1,0.5,9.4,0.8,14.5,1.7c7.4,1.3,12.7-1.2,19.1-2.9l5.3,6.3l9,0.9c-1.5-1.1-1.5-1.1-6.3-2.1c5-1.6,9.7,0,14.6-0.8
	c0.1,1.2,0.2,2.1,0.3,3.1c3.4-0.5,7.5,1,9.8-1.8c5.2,3.6,12.6,2.4,19.2,3.4c-1.3,0.2-2.7,0.4-4.1,0.4c-14,0-28-0.3-41.9,0.1
	c-18.3,0.5-36.6,1.5-54.9,2.3c-6.3,0.3-12.7,0.6-19,0.9c-1.6,0.1-3.1,0.6-4.7,0.7c-1.8,0.2-3.6,0.2-5.4,0c-2.4-0.4-4.6-1.1-5.1,1.1
	c-0.7,0.4-1.5,0.6-2.4,0.6c-4.2-2-8.4-0.2-12.5,0c-18.8,0.6-37.7,0.6-56.5,0.2c-10-0.3-20.1,0.1-30.2,0.1c-4.7-0.2-9.3-0.4-13.9-0.5
	v1l14.1-0.5c0.9,0.5,1.9,0.8,2.9,1c15.9,0.2,31.7,2.2,47.7,1c3.7-0.3,7.5,0,11.2,0.7c-1.9,0.3-3.9,0.6-5.8,0.7
	c-10.5,0-21-0.2-31.5-0.2c-14.2,0-28.5,0.5-42.6,0c-6.9-0.2-13.1,1.2-21.4,1.1l5.2-1c-2.7-1.7-6-0.6-8.8-0.8s-5.6-0.2-8.5-0.2
	c-0.9-0.2-1.9-0.2-2.8,0c-4.5,2.2-9.8,1.4-14.7,1.2c-25-1-49.9-2.3-74.8-3.4c-14.7-0.6-29.4-0.7-44.1-1.3
	c-14.2-0.5-28.5-0.8-42.5-2.1c-17.8-1.7-35.6-2-53.5-2.6c-5.9-0.2-11.7-0.7-17.5-1c-3.9-0.2-7.8-0.3-11.6-0.2
	c-4.4,0.1-8.6-1-12.5-3.1c-3.9-2-3.7-3.5,0.1-5.9c1.7-1,3.3-2.1,5.8-3.6l-3.6-2.7c1.6-2.3,3.3-4.5,5.1-6.7c2-2,4.1-3.8,6.3-5.5
	c3.8-3.1,7.7-6.2,12.4-10l8.8,0.3v-2.8c10.8-1.9,21.7-3.9,32.6-5.9c4.6-0.9,9.1-2,13.8-2.9c8.5-1.7,17.1-3.3,25.6-5
	c6.6-1.3,13.9-1.9,18.3-5.7c6.1,2.6,11.5,2.1,17.5,0.5c4.9-1.3,9.9-3.3,16.3-1.7c1.8,0.4,4.9-0.6,7.2-1.3s4.5-1.7,7-2.3
	c1.3-0.3,4.1-0.1,4.5,0.4c1.2,1.4,2.8,1.9,5.2,1.6c4-0.5,8.6,0.5,11.8-1.4c3.9-2.3,8-2.3,12.6-0.8c3.4,1.2,7.1,1.3,10.5,0.1
	c3.5-1.4,6.9-0.9,10.5-0.7c2.3,0.1,4.7,0,7-0.1c1.9,0,4.1-0.5,5.7-0.1c2.6,0.6,4.4,0.7,6.6-0.5c2.9-1.5,5.3-0.1,7.7,0.9
	c4.4-2.3,8.5-3.3,13.5-0.5c1.4,0.8,4.7,0.6,7.9,0.9l-2.3,1.3c1.9,0.1,3.7,0.3,5.6,0.7c5.8,1.6,10.8,0.5,15.9-1
	c1.8-0.4,3.6-0.8,5.4-1L622,390.6z M592.7,461.5l24.1,1l0.1-1C608.8,461.1,600.7,461.1,592.7,461.5z M817.8,451.3
	c-0.1,0.3-0.2,0.6-0.2,0.8c8.5,2.4,8.5,2.4,12.3-0.3L817.8,451.3z M798.4,451.5c2.3,2,4.6,1.8,7.9,1.2
	C804.1,450.9,801.7,451.3,798.4,451.5L798.4,451.5z M759.4,415.4c5.3,1.4,5.3,1.4,9-0.3L759.4,415.4z M750.8,409.1l0.7-0.9l-8.3-0.3
	l-0.1,0.4L750.8,409.1z M803.8,414.4c0-0.1,0-0.2,0-0.3l-4.7-0.9c-0.1,0.3-0.3,0.6-0.4,0.9L803.8,414.4z M723.6,419.9l-0.3,0.1
	c0.2,0.1,0.4,0.1,0.7,0.1h3.9c0-0.1,0-0.2,0-0.3L723.6,419.9z M731.4,459.9l0.4,0.8l3.2-0.7l-0.2-0.4L731.4,459.9z"/>
<path d="M838.8,423.7c5.5-0.2,10.9-1,15.1,1.7L838.8,423.7z"/>
<path d="M779.1,402.9l10.7,1C784.7,404.9,784.7,404.9,779.1,402.9z"/>
<path d="M802.8,423.3l-4.8-0.8c0.5-0.6,0.6-0.9,0.8-1c0.9-0.2,1.8-0.2,2.7-0.1c0.7,0.2,1.3,0.5,1.9,0.9L802.8,423.3z"/>
<path d="M601.3,389.3l4.4-0.2C603.2,390.5,603.2,390.5,601.3,389.3z"/>
<path d="M622.2,390.8c0.7-2.2,0.7-2.2,6.1-0.4l-6.3,0.3L622.2,390.8z"/>
<path d="M826.1,423.1l-4-1.1l0.7-0.8l4,1C826.6,422.5,826.3,422.8,826.1,423.1z"/>
<path d="M821.7,414.7l4.1,1l-0.3,0.5l-4.3-0.8L821.7,414.7z"/>
<path d="M821.8,428.2c-0.1-0.1-0.2-0.3-0.2-0.4c-0.1-0.7-0.1-1.4-0.2-2.1l1.3,0.1c-0.4,0.8-0.7,1.5-1.1,2.3L821.8,428.2z"/>
<path d="M679.9,394l5.5,0.2c0,0.1,0,0.3,0,0.5h-5.5L679.9,394z"/>
<path d="M368.8,390.6c1.6,0.3,3.1,0.5,4.7,0.7c3.7,0.2,7.3,0.6,10.9,1.2c3.4,0.5,7.2,0.4,10.7,1.5c3.4,0.9,7,0.8,10.3-0.4
	c3.3-1.1,6.9-1,10.2,0.2c6.1,2.4,13,2.1,19.4,2.5c7.2,0.4,14.7-0.6,22-0.6c6.6-0.1,13.2-0.2,18.9,2.5c2.5,1.2,5.8,1.8,9.7,2.9
	l-6.6,1c7.2,1.7,8.7,1.6,13-0.7c0.7-0.4,1.5-0.5,2.3-0.6c1.9-0.1,3.8-0.1,5.8,0c6.2,0.6,12.3,1.3,18.4,1.9c-0.1,0.3-0.1,0.6-0.2,0.9
	l-20.6-1c1.1,1.1,1.5,2.1,2.4,2.3c2,0.4,4.2,0.4,6.3,0.6c7.3,0.8,14.7,1.5,21.8,2.6c4,0.6,7.5,2.2,11.5,3.2c2.1,0.5,4.7,0.4,6.9,0.7
	c3.9,0.5,7.7,1.1,11.5,1.9c0.9,0.2,1.7,1.4,1.5,2s-1.8,1.2-2.9,1.3c-1.9,0.2-3.8,0.2-5.7,0.1c-7.2-0.4-14.5-1.2-21.3,1.3
	c0-0.1-0.1,0,0,0.1c0.3,0.2,0.7,0.3,1.1,0.5c-2.3,2.2-5.4,3-10.2,2.6c-6.9-0.6-13.9-1-20.8-1c-9.3,0-18.6,0.6-28,1.3
	c7.3,0.4,14.5,0.8,21.8,1.3c3.4,0.2,6.9-0.2,9.9,1.7c1.1,0.7,5,0.3,7.4-0.1c7.8-1.3,15.1-1.1,22,1.5c3.6,1.4,8.5,0.3,11.3,1.5
	c3.4,1.5,6.4,2.7,10.7,2.5l1.8-0.1l1.6-2.3l6.2,0.4l-0.2-0.1c-0.5,2.1,2,2.5,4.8,2.9c5.3,0.7,10.5,1.6,15.9,2.7
	c-3.3,0.3-3.1,3.6-7.7,2.5c-0.8-0.1-1.7-0.3-2.5-0.5c0-2.6-3.7-2.2-6.2-2.4c-8.5-0.6-17.2-0.9-25.7-1.5c-7.3-0.6-14.5-1.5-21.8-2.2
	c-1.7-0.2-3.5-0.7-4.9-0.4c-6,1.2-11.8,0.5-17.7,0.1c-1.8-0.1-3.6,0.3-5.3,1c6.2,0.3,12.3,0.6,18.5,1c11.6,0.8,23.1,1.6,34.7,2.2
	c2.6,0,5.2-0.1,7.8-0.4c2.8-0.3,4,0.4,4.4,2.4l-20.8-1c1.7,2.8,5.3,2.6,9,2.6c4.7-0.1,9.5-0.5,13.7,1.4c-6.7,1.2-13.7-0.9-20.3,0.8
	c10,0.4,19.5,2.5,29.6,2.3c-4.6,1.5-15.6,1.5-29.6,0.3c-1.5,1.1-1.1,2.1,1.3,2.5c1.8,0.3,3.9,0.1,5.7,0.4c1.3,0.2,2.4,0.9,4.7,1.8
	l-11.2,1.8c4,0.5,9.2,0.8,14.2,1.7c7.3,1.3,12.4-1.2,18.7-2.9l5.2,6.3l8.8,0.9c-1.5-1.1-1.5-1.1-6.2-2.1c4.9-1.6,9.5,0,14.3-0.8
	c0.1,1.2,0.2,2.1,0.3,3.1c3.3-0.5,7.3,1,9.6-1.8c5.1,3.6,12.4,2.4,18.8,3.4c-1.3,0.2-2.7,0.4-4,0.4c-13.7,0-27.4-0.3-41,0.1
	c-17.9,0.5-35.8,1.5-53.7,2.3c-6.2,0.3-12.4,0.6-18.6,0.9c-1.6,0.1-3,0.6-4.6,0.7c-1.8,0.2-3.5,0.2-5.3,0c-2.3-0.4-4.5-1.1-5,1.1
	c-0.7,0.4-1.5,0.6-2.3,0.6c-4.1-2-8.2-0.2-12.2,0c-18.4,0.6-36.9,0.6-55.3,0.2c-9.8-0.3-19.7,0.1-29.5,0.1
	c-4.5-0.2-9.1-0.4-13.6-0.5v1l13.8-0.5c0.9,0.5,1.8,0.8,2.8,1c15.6,0.2,31,2.2,46.7,1c3.7-0.3,7.4,0,11,0.7
	c-1.9,0.3-3.8,0.6-5.7,0.7c-10.3,0-20.6-0.2-30.8-0.2c-13.9,0-27.9,0.5-41.8,0c-6.7-0.2-12.9,1.2-21,1.1l5.1-1
	c-2.7-1.7-5.9-0.6-8.6-0.8s-5.5-0.2-8.3-0.2c-0.9-0.2-1.9-0.2-2.8,0c-4.4,2.2-9.6,1.4-14.4,1.2c-24.4-1-48.8-2.3-73.3-3.4
	c-14.4-0.6-28.8-0.7-43.1-1.3c-13.9-0.5-27.9-0.8-41.6-2.1c-17.4-1.7-34.9-2-52.4-2.6c-5.7-0.2-11.4-0.7-17.2-1
	c-3.8-0.2-7.6-0.3-11.4-0.2c-4.3,0.1-8.5-1-12.2-3.1c-3.8-2-3.6-3.5,0.1-5.9c1.7-1,3.3-2.1,5.6-3.6l-3.6-2.7c1.5-2.3,3.2-4.5,5-6.7
	c1.9-2,4-3.8,6.2-5.5c3.7-3.1,7.6-6.2,12.1-10l8.6,0.3v-2.8c10.6-1.9,21.3-3.9,31.9-5.9c4.6-0.9,9-2,13.5-2.9
	c8.4-1.7,16.8-3.3,25.1-5c6.4-1.3,13.6-1.9,18-5.7c6,2.6,11.3,2.1,17.2,0.5c4.8-1.3,9.7-3.3,15.9-1.7c1.7,0.4,4.8-0.6,7.1-1.3
	s4.4-1.7,6.8-2.3c1.3-0.3,4-0.1,4.4,0.4c1.2,1.4,2.8,1.9,5.1,1.6c3.9-0.5,8.4,0.5,11.6-1.4c3.8-2.3,7.8-2.3,12.4-0.8
	c3.3,1.2,6.9,1.3,10.3,0.1c3.4-1.4,6.8-0.9,10.3-0.7c2.3,0.1,4.6,0,6.9-0.1c1.9,0,4-0.5,5.6-0.1c2.5,0.6,4.3,0.7,6.5-0.5
	c2.8-1.5,5.2-0.1,7.5,0.9c4.3-2.3,8.4-3.3,13.2-0.5c1.4,0.8,4.5,0.6,7.7,0.9l-2.3,1.3c1.8,0.1,3.7,0.3,5.5,0.7
	c5.6,1.6,10.6,0.5,15.6-1c1.8-0.4,3.5-0.8,5.3-1L368.8,390.6z M340.1,461.5l23.7,1l0.1-1C356,461.1,348,461.1,340.1,461.5z
	 M560.6,451.3c-0.1,0.3-0.2,0.6-0.2,0.8c8.3,2.4,8.3,2.4,12.1-0.3L560.6,451.3z M541.6,451.5c2.2,2,4.5,1.8,7.7,1.2
	C547.1,450.9,544.8,451.3,541.6,451.5L541.6,451.5z M503.4,415.4c5.2,1.4,5.2,1.4,8.8-0.3L503.4,415.4z M495,409.1l0.7-0.9l-8.2-0.3
	l-0.1,0.4L495,409.1z M546.9,414.4c0-0.1,0-0.2,0-0.3l-4.6-0.9l-0.4,0.9L546.9,414.4z M468.3,419.9l-0.3,0.1
	c0.2,0.1,0.4,0.1,0.6,0.1h3.9v-0.3L468.3,419.9z M475.9,459.9c0.1,0.3,0.3,0.5,0.4,0.8l3.1-0.7l-0.2-0.4L475.9,459.9z"/>
<path d="M581.1,423.7c5.3-0.2,10.7-1,14.8,1.7L581.1,423.7z"/>
<path d="M522.8,402.9l10.5,1C528.1,404.9,528.1,404.9,522.8,402.9z"/>
<path d="M545.8,423.3l-4.7-0.8c0.4-0.6,0.6-0.9,0.8-1c0.9-0.2,1.8-0.2,2.6-0.1c0.7,0.2,1.3,0.5,1.9,0.9L545.8,423.3z"/>
<path d="M348.5,389.3l4.3-0.2C350.5,390.5,350.5,390.5,348.5,389.3z"/>
<path d="M369.1,390.8c0.6-2.2,0.6-2.2,6-0.4l-6.2,0.3L369.1,390.8z"/>
<path d="M568.7,423.1l-3.9-1.1l0.7-0.8l3.9,1L568.7,423.1z"/>
<path d="M564.4,414.7l4,1l-0.3,0.5l-4.2-0.8L564.4,414.7z"/>
<path d="M564.5,428.2c-0.1-0.1-0.2-0.3-0.2-0.4c-0.1-0.7-0.1-1.4-0.2-2.1l1.3,0.1c-0.4,0.8-0.7,1.5-1.1,2.3L564.5,428.2z"/>
<path d="M425.6,394l5.3,0.2c0,0.1,0,0.3,0,0.5h-5.4L425.6,394z"/>
<path d="M517.3,376c1.6,0.3,3.1,0.5,4.7,0.7c3.7,0.2,7.3,0.6,10.9,1.2c3.4,0.5,7.2,0.4,10.7,1.5c3.4,0.9,7,0.8,10.3-0.4
	c3.3-1.1,6.9-1,10.2,0.2c6.1,2.4,13,2.1,19.4,2.5c7.2,0.4,14.7-0.6,22-0.6c6.6-0.1,13.2-0.2,18.9,2.5c2.5,1.2,5.8,1.8,9.7,2.9
	l-6.6,1c7.2,1.7,8.7,1.6,13-0.7c0.7-0.3,1.5-0.5,2.3-0.6c1.9-0.1,3.8-0.1,5.8,0c6.2,0.6,12.3,1.3,18.4,1.9c-0.1,0.3-0.1,0.6-0.2,0.9
	l-20.6-1c1.1,1.1,1.5,2.1,2.4,2.3c2,0.4,4.2,0.4,6.3,0.6c7.3,0.8,14.7,1.5,21.8,2.6c4,0.6,7.5,2.2,11.5,3.2c2.1,0.5,4.7,0.4,6.9,0.7
	c3.9,0.5,7.7,1.1,11.5,1.9c0.9,0.2,1.7,1.4,1.5,2s-1.8,1.2-2.9,1.3c-1.9,0.2-3.8,0.3-5.7,0.1c-7.2-0.4-14.5-1.2-21.3,1.3
	c0-0.1-0.1,0,0,0.1c0.3,0.2,0.7,0.3,1.1,0.5c-2.3,2.2-5.4,3-10.2,2.6c-6.8-0.6-13.9-1-20.8-1c-9.3,0-18.6,0.6-28,1.3
	c7.3,0.4,14.5,0.8,21.8,1.3c3.4,0.2,6.9-0.2,9.9,1.7c1.1,0.7,5,0.3,7.4-0.1c7.8-1.3,15.1-1.1,22,1.5c3.6,1.4,8.5,0.3,11.3,1.5
	c3.4,1.5,6.4,2.7,10.7,2.5c0.5,0,0.9,0,1.8-0.1l1.6-2.3l6.2,0.4l-0.2-0.1c-0.5,2.1,2,2.5,4.7,2.9c5.3,0.7,10.5,1.6,15.9,2.7
	c-3.3,0.3-3.1,3.6-7.7,2.5c-0.8-0.1-1.7-0.3-2.5-0.5c0-2.6-3.7-2.2-6.2-2.4c-8.6-0.6-17.2-0.9-25.7-1.5c-7.3-0.6-14.5-1.5-21.8-2.2
	c-1.7-0.2-3.5-0.7-4.9-0.4c-6,1.2-11.8,0.5-17.7,0.1c-1.8-0.1-3.6,0.3-5.3,1c6.2,0.3,12.3,0.6,18.5,1c11.5,0.7,23.1,1.6,34.7,2.2
	c2.6,0,5.2-0.1,7.8-0.4c2.8-0.3,4,0.4,4.4,2.4l-20.8-1c1.7,2.8,5.3,2.6,9,2.6c4.7-0.1,9.5-0.5,13.7,1.4c-6.7,1.2-13.7-0.9-20.3,0.8
	c10,0.4,19.5,2.5,29.6,2.3c-4.6,1.5-15.6,1.5-29.6,0.3c-1.5,1.1-1.1,2.1,1.3,2.5c1.8,0.3,3.9,0.1,5.7,0.4c1.3,0.2,2.4,0.9,4.7,1.8
	l-11.2,1.8c4,0.5,9.2,0.8,14.2,1.7c7.3,1.3,12.4-1.2,18.7-2.9l5.2,6.3l8.8,0.9c-1.5-1.1-1.5-1.1-6.2-2.1c4.9-1.6,9.5,0,14.3-0.8
	c0.1,1.2,0.2,2.1,0.3,3.1c3.3-0.5,7.3,1,9.6-1.8c5.1,3.6,12.4,2.4,18.8,3.4c-1.3,0.1-2.7,0.4-4,0.4c-13.7,0-27.4-0.3-41,0.1
	c-17.9,0.5-35.8,1.5-53.7,2.3c-6.2,0.3-12.4,0.6-18.6,0.9c-1.6,0.1-3,0.6-4.6,0.7c-1.8,0.2-3.5,0.2-5.3-0.1c-2.3-0.4-4.5-1.1-5,1.1
	c-0.7,0.4-1.5,0.6-2.3,0.6c-4.1-2-8.2-0.2-12.2,0c-18.4,0.6-36.9,0.6-55.3,0.2c-9.8-0.3-19.7,0.1-29.5,0.1
	c-4.5-0.2-9.1-0.4-13.6-0.5v1l13.8-0.5c0.9,0.5,1.8,0.9,2.8,1c15.6,0.2,31,2.2,46.7,1c3.7-0.3,7.4,0,11,0.7
	c-1.9,0.3-3.8,0.6-5.7,0.7c-10.3,0-20.6-0.2-30.8-0.2c-13.9,0-27.9,0.5-41.8,0c-6.7-0.2-12.9,1.2-21,1.1l5.1-1
	c-2.7-1.8-5.9-0.6-8.6-0.8s-5.5-0.2-8.3-0.3c-0.9-0.1-1.9-0.1-2.8,0c-4.4,2.2-9.6,1.4-14.4,1.2c-24.4-1-48.8-2.3-73.3-3.4
	c-14.4-0.6-28.8-0.7-43.1-1.3c-13.9-0.5-27.9-0.8-41.6-2.1c-17.4-1.7-34.9-2-52.4-2.6c-5.7-0.2-11.4-0.7-17.2-1
	c-3.8-0.2-7.6-0.3-11.4-0.2c-4.3,0.1-8.5-1-12.2-3.1c-3.9-2-3.6-3.5,0.1-5.9c1.7-1,3.3-2.1,5.6-3.6l-3.6-2.7c1.5-2.3,3.2-4.5,5-6.7
	c1.9-2,4-3.8,6.2-5.5c3.7-3.1,7.5-6.2,12.1-10l8.6,0.3v-2.9c10.5-1.9,21.3-3.9,31.9-5.9c4.5-0.9,9-2,13.5-2.9
	c8.4-1.7,16.8-3.3,25.1-5c6.4-1.3,13.6-1.9,18-5.7c6,2.6,11.3,2.1,17.2,0.5c4.8-1.4,9.7-3.4,15.9-1.7c1.7,0.4,4.8-0.6,7.1-1.3
	s4.4-1.7,6.8-2.3c1.3-0.3,4-0.1,4.4,0.4c1.2,1.4,2.8,1.9,5.1,1.6c3.9-0.5,8.4,0.5,11.6-1.4c3.8-2.3,7.8-2.3,12.4-0.8
	c3.4,1.1,7.1,1.4,10.3,0.1c3.4-1.4,6.8-0.9,10.3-0.7c2.3,0.1,4.6,0,6.9-0.1c1.9,0,4-0.4,5.6-0.1c2.5,0.6,4.3,0.7,6.5-0.5
	c2.8-1.5,5.2-0.1,7.5,0.9c4.3-2.4,8.4-3.3,13.2-0.5c1.4,0.8,4.5,0.6,7.7,0.9l-2.2,1.4c1.8,0.1,3.7,0.3,5.5,0.7
	c5.6,1.6,10.6,0.5,15.6-1c1.7-0.4,3.5-0.8,5.3-1L517.3,376z M488.6,446.9l23.6,1l0.1-1C504.4,446.5,496.5,446.5,488.6,446.9z
	 M709.1,436.7c-0.1,0.3-0.1,0.6-0.2,0.8c8.3,2.4,8.3,2.4,12.1-0.3L709.1,436.7z M690.1,436.9c2.2,2,4.5,1.8,7.7,1.2
	C695.6,436.3,693.3,436.7,690.1,436.9L690.1,436.9z M651.9,400.8c5.2,1.4,5.2,1.4,8.8-0.3L651.9,400.8z M643.5,394.5l0.7-0.9
	l-8.2-0.3c0,0.1-0.1,0.3-0.1,0.4L643.5,394.5z M695.4,399.8c0-0.1,0-0.2,0-0.3l-4.6-1c-0.1,0.3-0.3,0.6-0.4,0.9L695.4,399.8z
	 M616.8,405.3l-0.3,0.1c0.2,0.1,0.4,0.1,0.6,0.1h3.9v-0.3L616.8,405.3z M624.5,445.3l0.4,0.8l3.1-0.7l-0.2-0.4L624.5,445.3z"/>
<path d="M729.6,409.1c5.3-0.2,10.7-1,14.8,1.7L729.6,409.1z"/>
<path d="M671.2,388.3l10.5,1C676.6,390.3,676.6,390.3,671.2,388.3z"/>
<path d="M694.3,408.7l-4.7-0.8c0.4-0.6,0.6-0.9,0.8-1c0.9-0.2,1.8-0.2,2.6-0.1c0.7,0.2,1.3,0.5,1.9,1L694.3,408.7z"/>
<path d="M497,374.7l4.3-0.2C499,375.9,499,375.9,497,374.7z"/>
<path d="M517.6,376.2c0.7-2.2,0.7-2.2,6-0.4l-6.2,0.3L517.6,376.2z"/>
<path d="M717.2,408.5l-3.9-1.1l0.7-0.8l3.9,1L717.2,408.5z"/>
<path d="M712.9,400.1l4,1l-0.3,0.5l-4.2-0.8C712.6,400.6,712.8,400.4,712.9,400.1z"/>
<path d="M713,413.6c-0.1-0.1-0.2-0.3-0.2-0.4c-0.1-0.7-0.1-1.4-0.2-2.1l1.3,0.1c-0.4,0.8-0.7,1.5-1.1,2.3L713,413.6z"/>
<path d="M574.1,379.4l5.3,0.2c0,0.1,0,0.3,0,0.5H574L574.1,379.4z"/>
<path d="M390.5,376c1.6,0.3,3.1,0.5,4.7,0.7c3.7,0.2,7.3,0.6,10.9,1.2c3.4,0.5,7.2,0.4,10.7,1.5c3.4,0.9,7,0.8,10.3-0.4
	c3.3-1.1,6.9-1,10.2,0.2c6.1,2.4,13,2.1,19.4,2.5c7.2,0.4,14.7-0.6,22-0.6c6.6-0.1,13.2-0.2,18.9,2.5c2.5,1.2,5.8,1.8,9.7,2.9
	l-6.6,1c7.2,1.7,8.7,1.6,13-0.7c0.7-0.3,1.5-0.5,2.3-0.6c1.9-0.1,3.8-0.1,5.8,0c6.2,0.6,12.3,1.3,18.4,1.9c-0.1,0.3-0.1,0.6-0.2,0.9
	l-20.6-1c1.1,1.1,1.5,2.1,2.4,2.3c2,0.4,4.2,0.4,6.3,0.6c7.3,0.8,14.7,1.5,21.8,2.6c4,0.6,7.5,2.2,11.5,3.2c2.1,0.5,4.7,0.4,6.9,0.7
	c3.9,0.5,7.7,1.1,11.5,1.9c0.9,0.2,1.7,1.4,1.5,2s-1.8,1.2-2.9,1.3c-1.9,0.2-3.8,0.3-5.7,0.1c-7.2-0.4-14.5-1.2-21.3,1.3
	c0-0.1-0.1,0,0,0.1c0.3,0.2,0.7,0.3,1.1,0.5c-2.3,2.2-5.4,3-10.2,2.6c-6.9-0.6-13.9-1-20.8-1c-9.3,0-18.6,0.6-28,1.3
	c7.3,0.4,14.5,0.8,21.8,1.3c3.4,0.2,6.9-0.2,9.9,1.7c1.1,0.7,5,0.3,7.4-0.1c7.8-1.3,15.1-1.1,22,1.5c3.6,1.4,8.5,0.3,11.3,1.5
	c3.4,1.5,6.4,2.7,10.7,2.5c0.5,0,0.9,0,1.8-0.1l1.6-2.3l6.2,0.4l-0.2-0.1c-0.5,2.1,2,2.5,4.8,2.9c5.3,0.7,10.5,1.6,15.9,2.7
	c-3.3,0.3-3.1,3.6-7.7,2.5c-0.8-0.1-1.7-0.3-2.5-0.5c0-2.6-3.7-2.2-6.2-2.4c-8.5-0.6-17.2-0.9-25.7-1.5c-7.3-0.6-14.5-1.5-21.8-2.2
	c-1.7-0.2-3.5-0.7-4.9-0.4c-6,1.2-11.8,0.5-17.7,0.1c-1.8-0.1-3.6,0.3-5.3,1c6.2,0.3,12.3,0.6,18.5,1c11.5,0.7,23.1,1.6,34.7,2.2
	c2.6,0,5.2-0.1,7.8-0.4c2.8-0.3,4,0.4,4.4,2.4l-20.8-1c1.7,2.8,5.3,2.6,9,2.6c4.7-0.1,9.5-0.5,13.7,1.4c-6.7,1.2-13.7-0.9-20.3,0.8
	c10,0.4,19.5,2.5,29.6,2.3c-4.6,1.5-15.6,1.5-29.6,0.3c-1.5,1.1-1.1,2.1,1.3,2.5c1.8,0.3,3.9,0.1,5.7,0.4c1.3,0.2,2.4,0.9,4.7,1.8
	l-11.2,1.8c4,0.5,9.2,0.8,14.2,1.7c7.3,1.3,12.4-1.2,18.7-2.9l5.2,6.3l8.8,0.9c-1.5-1.1-1.5-1.1-6.2-2.1c4.9-1.6,9.5,0,14.3-0.8
	c0.1,1.2,0.2,2.1,0.3,3.1c3.3-0.5,7.3,1,9.6-1.8c5.1,3.6,12.4,2.4,18.8,3.4c-1.3,0.1-2.7,0.4-4,0.4c-13.7,0-27.4-0.3-41,0.1
	c-17.9,0.5-35.8,1.5-53.7,2.3c-6.2,0.3-12.4,0.6-18.6,0.9c-1.6,0.1-3,0.6-4.6,0.7c-1.8,0.2-3.5,0.2-5.3-0.1c-2.3-0.4-4.5-1.1-5,1.1
	c-0.7,0.4-1.5,0.6-2.3,0.6c-4.1-2-8.2-0.2-12.2,0c-18.4,0.6-36.9,0.6-55.3,0.2c-9.8-0.3-19.7,0.1-29.5,0.1
	c-4.5-0.2-9.1-0.4-13.6-0.5v1l13.8-0.5c0.9,0.5,1.8,0.9,2.8,1c15.6,0.2,31,2.2,46.7,1c3.7-0.3,7.4,0,11,0.7
	c-1.9,0.3-3.8,0.6-5.7,0.7c-10.3,0-20.6-0.2-30.8-0.2c-13.9,0-27.9,0.5-41.8,0c-6.7-0.2-12.9,1.2-21,1.1l5.1-1
	c-2.7-1.8-5.9-0.6-8.6-0.8s-5.5-0.2-8.3-0.3c-0.9-0.1-1.9-0.1-2.8,0c-4.4,2.2-9.6,1.4-14.4,1.2c-24.4-1-48.8-2.3-73.3-3.4
	c-14.4-0.6-28.8-0.7-43.1-1.3c-13.9-0.5-27.9-0.8-41.6-2.1c-17.4-1.7-34.9-2-52.4-2.6c-5.7-0.2-11.4-0.7-17.2-1
	c-3.8-0.2-7.6-0.3-11.4-0.2c-4.3,0.1-8.5-1-12.3-3.1c-3.9-2-3.6-3.5,0.1-5.9c1.7-1,3.3-2.1,5.6-3.6l-3.6-2.7
	c1.5-2.3,3.2-4.5,4.9-6.7c1.9-2,4-3.8,6.2-5.5c3.7-3.1,7.6-6.2,12.1-10l8.6,0.3v-2.9c10.6-1.9,21.3-3.9,31.9-5.9
	c4.6-0.9,9-2,13.5-2.9c8.4-1.7,16.8-3.3,25.1-5c6.4-1.3,13.6-1.9,18-5.7c6,2.6,11.3,2.1,17.2,0.5c4.8-1.4,9.7-3.4,15.9-1.7
	c1.7,0.4,4.8-0.6,7.1-1.3s4.4-1.7,6.8-2.3c1.3-0.3,4-0.1,4.4,0.4c1.2,1.4,2.8,1.9,5.1,1.6c3.9-0.5,8.4,0.5,11.6-1.4
	c3.8-2.3,7.8-2.3,12.4-0.8c3.4,1.1,7.1,1.4,10.3,0.1c3.4-1.4,6.8-0.9,10.3-0.7c2.3,0.1,4.6,0,6.9-0.1c1.9,0,4-0.4,5.6-0.1
	c2.5,0.6,4.3,0.7,6.5-0.5c2.8-1.5,5.2-0.1,7.5,0.9c4.3-2.4,8.4-3.3,13.2-0.5c1.4,0.8,4.5,0.6,7.7,0.9l-2.2,1.4
	c1.8,0.1,3.7,0.3,5.5,0.7c5.6,1.6,10.6,0.5,15.6-1c1.8-0.4,3.5-0.8,5.3-1L390.5,376z M361.8,446.9l23.6,1l0.1-1
	C377.6,446.5,369.7,446.5,361.8,446.9z M582.2,436.7c-0.1,0.3-0.2,0.6-0.2,0.8c8.3,2.4,8.3,2.4,12.1-0.3L582.2,436.7z M563.2,436.9
	c2.2,2,4.5,1.8,7.7,1.2C568.8,436.3,566.4,436.7,563.2,436.9L563.2,436.9z M525,400.8c5.2,1.4,5.2,1.4,8.8-0.3L525,400.8z
	 M516.7,394.5l0.7-0.9l-8.2-0.3c0,0.1-0.1,0.3-0.1,0.4L516.7,394.5z M568.5,399.8c0-0.1,0-0.2,0-0.3l-4.6-0.9l-0.4,0.9L568.5,399.8z
	 M490,405.3l-0.3,0.1c0.2,0.1,0.4,0.1,0.6,0.1h3.9v-0.3L490,405.3z M497.6,445.3l0.4,0.8l3.1-0.7l-0.2-0.4L497.6,445.3z"/>
<path d="M602.8,409.1c5.3-0.2,10.7-1,14.8,1.7L602.8,409.1z"/>
<path d="M544.4,388.3l10.5,1C549.8,390.3,549.8,390.3,544.4,388.3z"/>
<path d="M567.5,408.7l-4.7-0.8c0.5-0.6,0.6-0.9,0.8-1c0.9-0.2,1.8-0.2,2.6-0.1c0.7,0.2,1.3,0.5,1.9,1L567.5,408.7z"/>
<path d="M370.2,374.7l4.3-0.2C372.1,375.9,372.1,375.9,370.2,374.7z"/>
<path d="M390.8,376.2c0.6-2.2,0.6-2.2,6-0.4l-6.2,0.3L390.8,376.2z"/>
<path d="M590.4,408.5l-3.9-1.1l0.7-0.8l3.9,1L590.4,408.5z"/>
<path d="M586,400.1l4,1l-0.3,0.5l-4.2-0.8L586,400.1z"/>
<path d="M586.2,413.6c-0.1-0.1-0.2-0.3-0.2-0.4c-0.1-0.7-0.1-1.4-0.2-2.1l1.3,0.1c-0.4,0.8-0.7,1.5-1.1,2.3L586.2,413.6z"/>
<path d="M447.2,379.4l5.3,0.2c0,0.1,0,0.3,0,0.5h-5.4L447.2,379.4z"/>
<path d="M652.5,376c1.6,0.3,3.2,0.5,4.8,0.7c3.7,0.2,7.4,0.6,11.1,1.2c3.5,0.5,7.4,0.4,10.9,1.5c3.5,0.9,7.1,0.8,10.5-0.4
	c3.4-1.1,7-1,10.4,0.2c6.2,2.4,13.2,2.1,19.8,2.5c7.4,0.4,15-0.6,22.5-0.6c6.7-0.1,13.5-0.2,19.3,2.5c2.6,1.2,5.9,1.8,9.9,2.9
	l-6.7,1c7.4,1.7,8.9,1.6,13.3-0.7c0.7-0.3,1.5-0.5,2.3-0.6c2-0.1,3.9-0.1,5.9,0c6.3,0.6,12.6,1.3,18.8,1.9c-0.1,0.3-0.1,0.6-0.2,0.9
	l-21-1c1.1,1.1,1.5,2.1,2.5,2.3c2,0.4,4.3,0.4,6.5,0.6c7.4,0.8,15,1.5,22.3,2.6c4.1,0.6,7.7,2.2,11.7,3.2c2.2,0.5,4.8,0.4,7.1,0.7
	c3.9,0.5,7.9,1.1,11.7,1.9c0.9,0.2,1.8,1.4,1.6,2s-1.8,1.2-3,1.3c-1.9,0.2-3.9,0.3-5.9,0.1c-7.4-0.4-14.8-1.2-21.8,1.3
	c0-0.1-0.1,0,0,0.1c0.3,0.2,0.8,0.3,1.1,0.5c-2.4,2.2-5.5,3-10.4,2.6c-7-0.6-14.2-1-21.2-1c-9.5,0-19,0.6-28.6,1.3
	c7.4,0.4,14.8,0.8,22.2,1.3c3.5,0.2,7.1-0.2,10.1,1.7c1.1,0.7,5.2,0.3,7.6-0.1c7.9-1.3,15.4-1.1,22.4,1.5c3.7,1.4,8.7,0.3,11.6,1.5
	c3.5,1.5,6.5,2.7,10.9,2.5c0.5,0,1,0,1.8-0.1l1.7-2.3l6.3,0.4l-0.2-0.1c-0.5,2.1,2,2.5,4.8,2.9c5.4,0.7,10.8,1.6,16.3,2.7
	c-3.3,0.3-3.2,3.6-7.8,2.5c-0.9-0.1-1.7-0.3-2.5-0.5c0-2.6-3.8-2.2-6.3-2.4c-8.7-0.6-17.5-0.9-26.3-1.5c-7.5-0.6-14.8-1.5-22.2-2.2
	c-1.7-0.2-3.6-0.7-5-0.4c-6.1,1.2-12.1,0.5-18.1,0.1c-1.9-0.1-3.7,0.3-5.4,1c6.3,0.3,12.6,0.6,18.8,1c11.8,0.7,23.6,1.6,35.4,2.2
	c2.6,0,5.3-0.1,7.9-0.4c2.8-0.3,4.1,0.4,4.5,2.4l-21.3-1c1.7,2.8,5.4,2.6,9.2,2.6c4.8-0.1,9.7-0.5,14,1.4c-6.9,1.2-14-0.9-20.7,0.8
	c10.2,0.4,19.9,2.5,30.3,2.3c-4.7,1.5-15.9,1.5-30.2,0.3c-1.5,1.1-1.2,2.1,1.3,2.5c1.9,0.3,4,0.1,5.8,0.4c1.3,0.2,2.5,0.9,4.8,1.8
	l-11.4,1.8c4.1,0.5,9.4,0.8,14.5,1.7c7.4,1.3,12.7-1.2,19.1-2.9l5.3,6.3l9,0.9c-1.5-1.1-1.5-1.1-6.3-2.1c5-1.6,9.7,0,14.6-0.8
	c0.1,1.2,0.2,2.1,0.3,3.1c3.4-0.5,7.5,1,9.8-1.8c5.2,3.6,12.6,2.4,19.2,3.4c-1.4,0.1-2.7,0.4-4.1,0.4c-14,0-28-0.3-41.9,0.1
	c-18.3,0.5-36.6,1.5-54.9,2.3c-6.3,0.3-12.7,0.6-19,0.9c-1.6,0.1-3.1,0.6-4.7,0.7c-1.8,0.2-3.6,0.2-5.4-0.1
	c-2.4-0.4-4.6-1.1-5.1,1.1c-0.7,0.4-1.5,0.6-2.4,0.6c-4.2-2-8.4-0.2-12.5,0c-18.8,0.6-37.7,0.6-56.5,0.2c-10-0.3-20.1,0.1-30.2,0.1
	c-4.7-0.2-9.3-0.4-13.9-0.5v1l14.1-0.5c0.9,0.5,1.9,0.9,2.9,1c15.9,0.2,31.7,2.2,47.7,1c3.7-0.3,7.5,0,11.2,0.7
	c-1.9,0.3-3.9,0.6-5.8,0.7c-10.5,0-21-0.2-31.5-0.2c-14.2,0-28.5,0.5-42.6,0c-6.9-0.2-13.1,1.2-21.4,1.1l5.2-1
	c-2.7-1.8-6-0.6-8.8-0.8s-5.7-0.2-8.5-0.3c-0.9-0.1-1.9-0.1-2.8,0c-4.5,2.2-9.8,1.4-14.7,1.2c-25-1-49.9-2.3-74.8-3.4
	c-14.7-0.6-29.4-0.7-44.1-1.3c-14.2-0.5-28.5-0.8-42.5-2.1c-17.8-1.7-35.6-2-53.5-2.6c-5.9-0.2-11.7-0.7-17.5-1
	c-3.9-0.2-7.8-0.3-11.6-0.2c-4.4,0.1-8.7-1-12.5-3.1c-3.9-2-3.7-3.5,0.1-5.9c1.7-1,3.3-2.1,5.8-3.6l-3.6-2.7
	c1.6-2.3,3.3-4.5,5.1-6.7c2-2,4.1-3.8,6.3-5.5c3.8-3.1,7.7-6.2,12.4-10l8.8,0.3v-2.9c10.8-1.9,21.7-3.9,32.6-5.9
	c4.7-0.9,9.1-2,13.8-2.9c8.5-1.7,17.1-3.3,25.6-5c6.6-1.3,13.9-1.9,18.3-5.7c6.1,2.6,11.5,2.1,17.5,0.5c4.9-1.4,9.9-3.4,16.3-1.7
	c1.8,0.4,4.9-0.6,7.2-1.3s4.5-1.7,7-2.3c1.3-0.3,4.1-0.1,4.5,0.4c1.2,1.4,2.8,1.9,5.2,1.6c4-0.5,8.6,0.5,11.8-1.4
	c3.9-2.3,8-2.3,12.6-0.8c3.4,1.1,7.3,1.4,10.5,0.1c3.5-1.4,6.9-0.9,10.5-0.7c2.3,0.1,4.7,0,7-0.1c1.9,0,4.1-0.4,5.7-0.1
	c2.6,0.6,4.4,0.7,6.6-0.5c2.9-1.5,5.3-0.1,7.7,0.9c4.4-2.4,8.5-3.3,13.5-0.5c1.4,0.8,4.7,0.6,7.9,0.9l-2.3,1.4
	c1.9,0.1,3.7,0.3,5.6,0.7c5.8,1.6,10.8,0.5,15.9-1c1.8-0.4,3.6-0.8,5.4-1L652.5,376z M623.2,446.9l24.1,1l0.1-1
	C639.3,446.5,631.2,446.5,623.2,446.9z M848.3,436.7c-0.1,0.3-0.2,0.6-0.2,0.8c8.5,2.4,8.5,2.4,12.3-0.3L848.3,436.7z M828.9,436.9
	c2.3,2,4.6,1.8,7.9,1.2C834.6,436.3,832.2,436.7,828.9,436.9L828.9,436.9z M789.9,400.8c5.3,1.4,5.3,1.4,9-0.3L789.9,400.8z
	 M781.4,394.5l0.7-0.9l-8.3-0.3l-0.1,0.4L781.4,394.5z M834.4,399.8c0-0.1,0-0.2,0-0.3l-4.7-0.9l-0.4,0.9L834.4,399.8z M754.2,405.3
	l-0.3,0.1c0.2,0.1,0.4,0.1,0.7,0.1h3.9v-0.3L754.2,405.3z M762,445.3l0.4,0.8l3.2-0.7c-0.1-0.1-0.1-0.3-0.2-0.4L762,445.3z"/>
<path d="M869.3,409.1c5.5-0.2,10.9-1,15.1,1.7L869.3,409.1z"/>
<path d="M809.7,388.3l10.7,1C815.2,390.3,815.2,390.3,809.7,388.3z"/>
<path d="M833.3,408.7l-4.8-0.8c0.5-0.6,0.6-0.9,0.8-1c0.9-0.2,1.8-0.2,2.7-0.1c0.7,0.2,1.3,0.5,1.9,1
	C833.7,408.1,833.5,408.4,833.3,408.7z"/>
<path d="M631.8,374.7l4.4-0.2C633.8,375.9,633.8,375.9,631.8,374.7z"/>
<path d="M652.8,376.2c0.7-2.2,0.7-2.2,6.1-0.4l-6.3,0.3L652.8,376.2z"/>
<path d="M856.6,408.5l-4-1.1c0.2-0.3,0.5-0.5,0.7-0.8l4,1L856.6,408.5z"/>
<path d="M852.2,400.1l4.1,1l-0.3,0.5l-4.3-0.8L852.2,400.1z"/>
<path d="M852.4,413.6c-0.1-0.1-0.2-0.3-0.2-0.4c-0.1-0.7-0.1-1.4-0.2-2.1l1.3,0.1c-0.4,0.8-0.7,1.5-1.1,2.3L852.4,413.6z"/>
<path d="M710.5,379.4l5.5,0.2c0,0.1,0,0.3,0,0.5h-5.5L710.5,379.4z"/>
<path d="M447.8,376c1.6,0.3,3.1,0.5,4.7,0.7c3.7,0.2,7.3,0.6,10.9,1.2c3.4,0.5,7.2,0.4,10.7,1.5c3.4,0.9,7,0.8,10.3-0.4
	c3.3-1.1,6.9-1,10.2,0.2c6.1,2.4,13,2.1,19.4,2.5c7.2,0.4,14.7-0.6,22-0.6c6.5-0.1,13.2-0.2,18.9,2.5c2.5,1.2,5.8,1.8,9.7,2.9
	l-6.6,1c7.2,1.7,8.7,1.6,13-0.7c0.7-0.3,1.5-0.5,2.3-0.6c1.9-0.1,3.8-0.1,5.8,0c6.2,0.6,12.3,1.3,18.4,1.9c-0.1,0.3-0.1,0.6-0.2,0.9
	l-20.6-1c1.1,1.1,1.5,2.1,2.4,2.3c2,0.4,4.2,0.4,6.4,0.6c7.3,0.8,14.7,1.5,21.8,2.6c4,0.6,7.5,2.2,11.5,3.2c2.1,0.5,4.7,0.4,6.9,0.7
	c3.9,0.5,7.7,1.1,11.5,1.9c0.9,0.2,1.7,1.4,1.5,2s-1.8,1.2-2.9,1.3c-1.9,0.2-3.8,0.3-5.7,0.1c-7.2-0.4-14.5-1.2-21.3,1.3
	c0-0.1-0.1,0,0,0.1c0.3,0.2,0.7,0.3,1.1,0.5c-2.3,2.2-5.4,3-10.2,2.6c-6.8-0.6-13.8-1-20.8-1c-9.3,0-18.6,0.6-28,1.3
	c7.3,0.4,14.5,0.8,21.8,1.3c3.4,0.2,7-0.2,9.9,1.7c1.1,0.7,5,0.3,7.4-0.1c7.8-1.3,15.1-1.1,22,1.5c3.6,1.4,8.5,0.3,11.3,1.5
	c3.4,1.5,6.4,2.7,10.7,2.5c0.5,0,0.9,0,1.8-0.1l1.6-2.3l6.2,0.4l-0.2-0.1c-0.5,2.1,2,2.5,4.7,2.9c5.3,0.7,10.5,1.6,15.9,2.7
	c-3.3,0.3-3.1,3.6-7.7,2.5c-0.8-0.1-1.7-0.3-2.5-0.5c0-2.6-3.7-2.2-6.2-2.4c-8.6-0.6-17.2-0.9-25.7-1.5c-7.3-0.6-14.5-1.5-21.8-2.2
	c-1.7-0.2-3.5-0.7-4.9-0.4c-6,1.2-11.8,0.5-17.7,0.1c-1.8-0.1-3.6,0.3-5.3,1c6.2,0.3,12.3,0.6,18.5,1c11.5,0.7,23.1,1.6,34.7,2.2
	c2.6,0,5.2-0.1,7.8-0.4c2.8-0.3,4,0.4,4.4,2.4l-20.8-1c1.7,2.8,5.3,2.6,9,2.6c4.7-0.1,9.5-0.5,13.8,1.4c-6.7,1.2-13.7-0.9-20.3,0.8
	c10,0.4,19.5,2.5,29.7,2.3c-4.7,1.5-15.6,1.5-29.6,0.3c-1.5,1.1-1.1,2.1,1.3,2.5c1.8,0.3,3.9,0.1,5.7,0.4c1.3,0.2,2.4,0.9,4.7,1.8
	l-11.2,1.8c4.1,0.5,9.2,0.8,14.2,1.7c7.3,1.3,12.4-1.2,18.7-2.9c1.7,2,3.4,4.2,5.1,6.3l8.8,0.9c-1.5-1.1-1.5-1.1-6.2-2.1
	c4.9-1.6,9.5,0,14.3-0.8c0.1,1.2,0.2,2.1,0.3,3.1c3.3-0.5,7.3,1,9.6-1.8c5.1,3.6,12.4,2.4,18.8,3.4c-1.3,0.1-2.7,0.4-4,0.4
	c-13.7,0-27.4-0.3-41,0.1c-17.9,0.5-35.8,1.5-53.7,2.3c-6.2,0.3-12.4,0.6-18.6,0.9c-1.6,0.1-3,0.6-4.6,0.7c-1.8,0.2-3.5,0.2-5.3-0.1
	c-2.3-0.4-4.5-1.1-5,1.1c-0.7,0.4-1.5,0.6-2.3,0.6c-4.1-2-8.2-0.2-12.2,0c-18.4,0.6-36.9,0.6-55.3,0.2c-9.8-0.3-19.7,0.1-29.6,0.1
	c-4.5-0.2-9.1-0.3-13.6-0.5v1l13.8-0.5c0.9,0.5,1.8,0.9,2.8,1c15.6,0.2,31,2.2,46.7,1c3.7-0.3,7.4,0,11,0.7
	c-1.9,0.3-3.8,0.6-5.7,0.7c-10.3,0-20.6-0.2-30.8-0.2c-13.9,0-27.9,0.5-41.7,0c-6.7-0.2-12.9,1.2-21,1.1l5.1-1
	c-2.7-1.8-5.9-0.6-8.6-0.8s-5.5-0.2-8.3-0.3c-0.9-0.1-1.9-0.1-2.8,0c-4.4,2.2-9.6,1.4-14.4,1.2c-24.4-1-48.8-2.3-73.3-3.4
	c-14.4-0.6-28.8-0.7-43.2-1.3c-13.9-0.5-27.9-0.8-41.6-2.1c-17.4-1.7-34.9-2-52.4-2.6c-5.7-0.2-11.4-0.7-17.2-1
	c-3.8-0.2-7.6-0.3-11.4-0.2c-4.3,0.1-8.5-1-12.2-3.1c-3.9-2-3.6-3.5,0.1-5.9c1.7-1,3.3-2.1,5.6-3.6l-3.6-2.7
	c1.5-2.3,3.2-4.5,4.9-6.7c1.9-2,4-3.8,6.2-5.5c3.7-3.1,7.6-6.2,12.1-10l8.6,0.3v-2.9c10.6-1.9,21.3-3.9,31.9-5.9
	c4.5-0.9,9-2,13.5-2.9c8.4-1.7,16.8-3.3,25.1-5c6.4-1.3,13.6-1.9,18-5.7c6,2.6,11.3,2.1,17.2,0.5c4.8-1.4,9.6-3.4,15.9-1.7
	c1.7,0.4,4.8-0.6,7.1-1.3s4.4-1.7,6.8-2.3c1.3-0.3,4-0.1,4.4,0.4c1.2,1.4,2.7,1.9,5.1,1.6c3.9-0.5,8.4,0.5,11.6-1.4
	c3.8-2.3,7.8-2.3,12.4-0.8c3.3,1.1,7.1,1.4,10.2,0.1c3.4-1.4,6.8-0.9,10.3-0.7c2.3,0.1,4.6,0,6.9-0.1c1.9,0,4-0.4,5.6-0.1
	c2.5,0.6,4.3,0.7,6.5-0.5c2.8-1.5,5.2-0.1,7.5,0.9c4.3-2.4,8.4-3.3,13.2-0.5c1.4,0.8,4.6,0.6,7.7,0.9l-2.2,1.4
	c1.8,0.1,3.7,0.3,5.5,0.7c5.6,1.6,10.6,0.5,15.6-1c1.8-0.4,3.5-0.8,5.3-1L447.8,376z M419,446.9l23.6,1l0.1-1
	C434.8,446.5,426.9,446.5,419,446.9z M639.5,436.7c-0.1,0.3-0.2,0.6-0.2,0.8c8.3,2.4,8.3,2.4,12-0.3L639.5,436.7z M620.5,436.9
	c2.2,2,4.5,1.8,7.7,1.2C626,436.3,623.7,436.7,620.5,436.9L620.5,436.9z M582.3,400.8c5.2,1.4,5.2,1.4,8.8-0.3L582.3,400.8z
	 M573.9,394.5l0.7-0.9l-8.2-0.3l-0.1,0.4L573.9,394.5z M625.8,399.8c0-0.1,0-0.2,0-0.3l-4.6-0.9l-0.4,0.9L625.8,399.8z M547.2,405.3
	l-0.3,0.1c0.2,0.1,0.4,0.1,0.6,0.1h3.9v-0.3L547.2,405.3z M554.8,445.3l0.4,0.8l3.1-0.7l-0.2-0.4L554.8,445.3z"/>
<path d="M660,409.1c5.3-0.2,10.7-1,14.8,1.7L660,409.1z"/>
<path d="M601.6,388.3l10.5,1C607,390.3,607,390.3,601.6,388.3z"/>
<path d="M624.8,408.7l-4.7-0.8c0.5-0.6,0.6-0.9,0.8-1c0.9-0.2,1.8-0.2,2.6-0.1c0.7,0.2,1.3,0.5,1.9,1L624.8,408.7z"/>
<path d="M427.4,374.7l4.3-0.1C429.4,375.9,429.4,375.9,427.4,374.7z"/>
<path d="M448,376.2c0.6-2.2,0.6-2.2,6-0.4l-6.2,0.3L448,376.2z"/>
<path d="M647.6,408.5l-3.9-1.1l0.7-0.8l3.9,1L647.6,408.5z"/>
<path d="M643.3,400.1l4,1l-0.3,0.5l-4.2-0.8L643.3,400.1z"/>
<path d="M643.4,413.6c-0.1-0.1-0.2-0.3-0.2-0.4c-0.1-0.7-0.1-1.4-0.2-2.1l1.3,0.1c-0.4,0.8-0.7,1.5-1.1,2.3L643.4,413.6z"/>
<path d="M504.5,379.4l5.3,0.2c0,0.1,0,0.3,0,0.5h-5.4L504.5,379.4z"/>
<path d="M389.9,361.8c1.6,0.3,3.1,0.5,4.7,0.7c3.7,0.2,7.3,0.6,10.9,1.2c3.4,0.5,7.2,0.4,10.7,1.5c3.4,0.9,7,0.8,10.3-0.4
	c3.3-1.1,6.9-1,10.2,0.2c6.1,2.4,13,2.1,19.4,2.5c7.2,0.4,14.7-0.6,22-0.6c6.5-0.1,13.2-0.2,18.9,2.5c2.5,1.2,5.8,1.8,9.7,2.9
	l-6.6,1c7.2,1.7,8.7,1.6,13-0.7c0.7-0.3,1.5-0.5,2.3-0.6c1.9-0.1,3.8-0.1,5.8,0c6.2,0.6,12.3,1.3,18.4,1.9c-0.1,0.3-0.1,0.6-0.2,0.9
	l-20.6-1c1.1,1.1,1.5,2.1,2.4,2.3c2,0.4,4.2,0.4,6.3,0.6c7.3,0.8,14.7,1.5,21.8,2.6c4,0.6,7.5,2.2,11.5,3.2c2.1,0.5,4.7,0.4,6.9,0.7
	c3.9,0.5,7.7,1.1,11.5,1.9c0.9,0.2,1.7,1.4,1.5,2s-1.8,1.2-2.9,1.3c-1.9,0.2-3.8,0.2-5.7,0.1c-7.2-0.3-14.5-1.2-21.3,1.3
	c0-0.1-0.1,0,0,0.1c0.4,0.2,0.7,0.4,1.1,0.5c-2.3,2.2-5.4,3-10.2,2.6c-6.8-0.6-13.9-1-20.8-1c-9.3,0-18.6,0.6-28,1.3
	c7.3,0.4,14.5,0.8,21.8,1.3c3.4,0.2,6.9-0.2,9.9,1.7c1.1,0.7,5,0.3,7.4-0.1c7.8-1.3,15.1-1.1,22,1.5c3.6,1.4,8.5,0.3,11.3,1.5
	c3.4,1.5,6.4,2.7,10.7,2.5l1.8-0.1c0.4-0.6,0.9-1.4,1.6-2.3l6.2,0.4l-0.2-0.1c-0.5,2.1,2,2.5,4.7,2.9c5.3,0.7,10.5,1.6,15.9,2.7
	c-3.3,0.3-3.1,3.6-7.7,2.5c-0.8-0.1-1.7-0.3-2.5-0.5c0-2.6-3.7-2.2-6.2-2.4c-8.6-0.6-17.2-0.9-25.7-1.5c-7.3-0.5-14.5-1.5-21.8-2.2
	c-1.6-0.2-3.5-0.7-4.9-0.4c-6,1.2-11.8,0.5-17.7,0.1c-1.8-0.1-3.6,0.3-5.3,1c6.2,0.3,12.3,0.6,18.5,1c11.5,0.8,23.1,1.6,34.7,2.2
	c2.6,0,5.2-0.1,7.8-0.4c2.8-0.3,4,0.4,4.4,2.4l-20.9-1.1c1.7,2.8,5.3,2.6,9,2.6c4.7-0.1,9.5-0.5,13.7,1.4
	c-6.7,1.2-13.7-0.9-20.3,0.8c10,0.4,19.5,2.5,29.6,2.2c-4.6,1.5-15.6,1.5-29.6,0.3c-1.5,1.1-1.1,2.1,1.3,2.5
	c1.8,0.3,3.9,0.1,5.7,0.4c1.3,0.2,2.4,0.9,4.7,1.8l-11.2,1.8c4,0.5,9.2,0.8,14.2,1.7c7.3,1.3,12.4-1.2,18.7-2.9l5.2,6.3l8.8,0.9
	c-1.5-1.1-1.5-1.1-6.2-2.1c4.9-1.6,9.5,0.1,14.3-0.8c0.1,1.2,0.2,2.1,0.3,3.1c3.3-0.5,7.3,1,9.6-1.8c5.1,3.6,12.4,2.4,18.8,3.4
	c-1.3,0.2-2.7,0.4-4,0.4c-13.7,0-27.4-0.3-41,0.1c-17.9,0.5-35.8,1.5-53.7,2.3c-6.2,0.3-12.4,0.6-18.6,0.9c-1.6,0.1-3,0.6-4.6,0.7
	c-1.8,0.2-3.5,0.2-5.3,0c-2.3-0.4-4.5-1.1-5,1.1c-0.7,0.4-1.5,0.6-2.3,0.6c-4.1-2-8.2-0.2-12.2,0c-18.5,0.6-36.9,0.6-55.3,0.2
	c-9.8-0.3-19.7,0.1-29.5,0.1c-4.5-0.2-9.1-0.4-13.6-0.5v1l13.8-0.5c0.9,0.5,1.8,0.9,2.8,1c15.6,0.2,31,2.2,46.7,1
	c3.7-0.3,7.4,0,11,0.7c-1.9,0.3-3.8,0.6-5.7,0.7c-10.3,0-20.6-0.2-30.8-0.2c-13.9,0-27.9,0.5-41.8,0c-6.7-0.2-12.9,1.2-20.9,1.1
	l5.1-1c-2.7-1.8-5.9-0.7-8.6-0.9s-5.5-0.2-8.3-0.2c-0.9-0.1-1.9-0.1-2.8,0c-4.4,2.2-9.6,1.4-14.4,1.2c-24.4-1-48.8-2.3-73.3-3.4
	c-14.4-0.6-28.8-0.7-43.1-1.3c-13.9-0.5-27.9-0.8-41.6-2.1c-17.4-1.7-34.9-2-52.4-2.6c-5.7-0.2-11.4-0.7-17.1-1
	c-3.8-0.2-7.6-0.3-11.4-0.2c-4.3,0.1-8.5-1-12.2-3.1c-3.9-2-3.6-3.5,0.1-5.9c1.7-1,3.3-2.1,5.6-3.6l-3.6-2.7c1.5-2.3,3.2-4.5,5-6.7
	c1.9-2,4-3.8,6.2-5.5c3.7-3.1,7.6-6.2,12.1-10l8.6,0.3v-2.9c10.6-1.9,21.3-3.9,31.9-5.9c4.6-0.9,9-2,13.5-2.9
	c8.4-1.7,16.8-3.3,25.1-5c6.4-1.3,13.6-1.9,17.9-5.7c6,2.6,11.3,2.1,17.2,0.5c4.8-1.3,9.7-3.3,15.9-1.7c1.7,0.4,4.8-0.6,7.1-1.3
	c2.3-0.6,4.4-1.7,6.8-2.3c1.3-0.3,4-0.1,4.4,0.4c1.2,1.4,2.8,1.9,5.1,1.6c3.9-0.4,8.4,0.5,11.6-1.4c3.8-2.3,7.8-2.3,12.4-0.8
	c3.3,1.2,6.9,1.2,10.3,0.1c3.4-1.4,6.8-0.9,10.3-0.7c2.3,0.1,4.6,0,6.9-0.1c1.9,0,4-0.4,5.6-0.1c2.5,0.6,4.3,0.7,6.5-0.5
	c2.8-1.5,5.2-0.1,7.5,0.9c4.3-2.3,8.4-3.3,13.2-0.5c1.4,0.8,4.5,0.6,7.7,0.9l-2.2,1.3c1.8,0.1,3.7,0.3,5.5,0.7
	c5.6,1.6,10.6,0.5,15.6-1c1.7-0.4,3.5-0.8,5.3-1L389.9,361.8z M361.2,432.7l23.6,1l0.1-1C377,432.2,369.1,432.2,361.2,432.7
	L361.2,432.7z M581.7,422.5c-0.1,0.3-0.2,0.6-0.2,0.8c8.3,2.4,8.3,2.4,12.1-0.3L581.7,422.5z M562.7,422.7c2.2,2,4.5,1.8,7.7,1.2
	C568.2,422.1,565.9,422.5,562.7,422.7L562.7,422.7z M524.5,386.5c5.2,1.4,5.2,1.4,8.8-0.3L524.5,386.5z M516.1,380.3l0.7-0.9
	l-8.2-0.3l-0.1,0.4L516.1,380.3z M568,385.5c0-0.1,0-0.2,0-0.3l-4.6-0.9c-0.1,0.3-0.3,0.6-0.4,0.9L568,385.5z M489.4,391.1l-0.3,0.1
	c0.2,0.1,0.4,0.1,0.6,0.1h3.9v-0.3L489.4,391.1z M497.1,431.1l0.4,0.8l3.1-0.7l-0.2-0.4L497.1,431.1z"/>
<path d="M602.2,394.9c5.3-0.2,10.7-1,14.8,1.7L602.2,394.9z"/>
<path d="M543.8,374l10.5,1C549.2,376.1,549.2,376.1,543.8,374z"/>
<path d="M566.9,394.5l-4.7-0.8c0.5-0.5,0.6-0.9,0.8-1c0.9-0.2,1.8-0.2,2.6-0.1c0.7,0.2,1.3,0.5,1.9,1L566.9,394.5z"/>
<path d="M369.6,360.5l4.3-0.2C371.6,361.6,371.6,361.6,369.6,360.5z"/>
<path d="M390.2,361.9c0.6-2.2,0.6-2.2,6-0.4l-6.2,0.3L390.2,361.9z"/>
<path d="M589.8,394.2l-3.9-1.1l0.7-0.8l3.9,1C590.3,393.7,590,393.9,589.8,394.2z"/>
<path d="M585.5,385.9l4,1l-0.3,0.5l-4.2-0.8L585.5,385.9z"/>
<path d="M585.6,399.4c-0.1-0.1-0.2-0.3-0.2-0.4c-0.1-0.7-0.1-1.4-0.2-2.1l1.3,0.1c-0.4,0.8-0.7,1.5-1.1,2.3L585.6,399.4z"/>
<path d="M446.7,365.2l5.3,0.2c0,0.2,0,0.3,0,0.5h-5.4L446.7,365.2z"/>
<path d="M620.7,361.8c1.6,0.3,3.2,0.5,4.8,0.7c3.7,0.2,7.4,0.6,11.1,1.2c3.5,0.5,7.4,0.4,10.9,1.5c3.5,0.9,7.1,0.8,10.5-0.4
	c3.4-1.1,7-1,10.4,0.2c6.2,2.4,13.3,2.1,19.8,2.5c7.4,0.4,15-0.6,22.5-0.6c6.7-0.1,13.5-0.2,19.3,2.5c2.6,1.2,5.9,1.8,9.8,2.9
	l-6.7,1c7.4,1.7,8.9,1.6,13.3-0.7c0.7-0.3,1.5-0.5,2.3-0.6c2-0.1,3.9-0.1,5.9,0c6.3,0.6,12.5,1.3,18.8,1.9c-0.1,0.3-0.1,0.6-0.2,0.9
	l-21-1c1.1,1.1,1.5,2.1,2.5,2.3c2,0.4,4.3,0.4,6.5,0.6c7.4,0.8,15,1.5,22.3,2.6c4.1,0.6,7.7,2.2,11.7,3.2c2.2,0.5,4.8,0.4,7.1,0.7
	c4,0.5,7.9,1.1,11.7,1.9c0.9,0.2,1.8,1.4,1.5,2s-1.8,1.2-3,1.3c-1.9,0.2-3.9,0.2-5.8,0.1c-7.4-0.3-14.8-1.2-21.8,1.3
	c0-0.1-0.1,0,0,0.1c0.3,0.2,0.8,0.3,1.1,0.5c-2.4,2.2-5.5,3-10.4,2.6c-7-0.6-14.2-1-21.2-1c-9.5,0-19,0.6-28.6,1.3
	c7.4,0.4,14.8,0.8,22.2,1.3c3.5,0.2,7.1-0.2,10.1,1.7c1.1,0.7,5.2,0.3,7.6-0.1c8-1.3,15.5-1.1,22.4,1.5c3.7,1.4,8.7,0.3,11.6,1.5
	c3.5,1.5,6.5,2.7,10.9,2.5l1.8-0.1c0.5-0.6,1-1.4,1.6-2.3l6.3,0.4l-0.2-0.1c-0.5,2.1,2,2.5,4.8,2.9c5.4,0.7,10.8,1.6,16.3,2.7
	c-3.3,0.3-3.2,3.6-7.8,2.5c-0.9-0.1-1.7-0.3-2.5-0.5c0-2.6-3.7-2.2-6.3-2.4c-8.7-0.6-17.5-0.9-26.3-1.5c-7.5-0.5-14.8-1.5-22.2-2.2
	c-1.7-0.2-3.6-0.7-5-0.4c-6.1,1.2-12,0.5-18.1,0.1c-1.9-0.1-3.7,0.3-5.4,1c6.3,0.3,12.6,0.6,18.8,1c11.8,0.8,23.6,1.6,35.4,2.2
	c2.7,0,5.3-0.1,7.9-0.4c2.8-0.3,4.1,0.4,4.5,2.4l-21.3-1c1.7,2.8,5.4,2.6,9.2,2.6c4.8-0.1,9.7-0.5,14,1.4c-6.9,1.2-14-0.9-20.7,0.8
	c10.2,0.4,19.9,2.5,30.3,2.2c-4.7,1.5-15.9,1.5-30.3,0.3c-1.5,1.1-1.2,2.1,1.3,2.5c1.9,0.3,4,0.1,5.8,0.4c1.3,0.2,2.5,0.9,4.8,1.8
	l-11.4,1.8c4.1,0.5,9.4,0.8,14.5,1.7c7.4,1.3,12.7-1.2,19.1-2.9l5.3,6.3l9,0.9c-1.6-1.1-1.6-1.1-6.4-2.1c5-1.6,9.8,0.1,14.6-0.8
	c0.1,1.2,0.2,2.1,0.3,3.1c3.4-0.5,7.5,1,9.8-1.8c5.2,3.6,12.6,2.4,19.2,3.4c-1.3,0.2-2.7,0.4-4.1,0.4c-14,0-28-0.3-41.9,0.1
	c-18.3,0.5-36.6,1.5-54.9,2.3c-6.3,0.3-12.7,0.6-19,0.9c-1.6,0.1-3.1,0.6-4.7,0.7c-1.8,0.2-3.6,0.2-5.4,0c-2.4-0.4-4.6-1.1-5.1,1.1
	c-0.7,0.4-1.5,0.6-2.4,0.6c-4.2-2-8.4-0.2-12.5,0c-18.8,0.6-37.7,0.6-56.5,0.2c-10-0.3-20.1,0.1-30.2,0.1c-4.6-0.2-9.3-0.4-13.9-0.5
	v1l14.1-0.5c0.9,0.5,1.9,0.9,2.9,1c15.9,0.2,31.7,2.2,47.7,1c3.7-0.3,7.5,0,11.2,0.7c-1.9,0.3-3.9,0.6-5.8,0.7
	c-10.5,0-21-0.2-31.5-0.2c-14.2,0-28.5,0.5-42.6,0c-6.9-0.2-13.1,1.2-21.4,1.1l5.2-1c-2.8-1.8-6-0.7-8.8-0.9s-5.6-0.2-8.5-0.2
	c-0.9-0.1-1.9-0.1-2.8,0c-4.5,2.2-9.8,1.4-14.7,1.2c-25-1-49.9-2.3-74.8-3.4c-14.7-0.6-29.4-0.7-44.1-1.3
	c-14.2-0.5-28.5-0.8-42.5-2.1c-17.8-1.7-35.6-2-53.5-2.6c-5.9-0.2-11.7-0.7-17.5-1c-3.9-0.2-7.7-0.3-11.6-0.2
	c-4.4,0.1-8.7-1-12.5-3.1c-3.9-2-3.7-3.5,0.1-5.9c1.7-1,3.3-2.1,5.8-3.6l-3.6-2.8c1.5-2.3,3.2-4.5,5-6.7c2-2,4.1-3.8,6.3-5.5
	c3.8-3.1,7.7-6.2,12.4-10l8.8,0.3v-2.9c10.8-1.9,21.7-3.9,32.6-5.9c4.6-0.9,9.1-2,13.8-2.9c8.5-1.7,17.1-3.3,25.6-5
	c6.6-1.3,13.9-1.9,18.3-5.7c6.1,2.6,11.6,2.1,17.6,0.5c4.9-1.3,9.9-3.3,16.3-1.7c1.7,0.4,4.9-0.6,7.2-1.3s4.5-1.7,7-2.3
	c1.3-0.3,4.1-0.1,4.5,0.4c1.2,1.4,2.8,1.9,5.2,1.6c4-0.4,8.6,0.5,11.8-1.4c3.9-2.3,8-2.3,12.6-0.8c3.4,1.1,7.3,1.4,10.5,0.1
	c3.5-1.4,6.9-0.9,10.5-0.7c2.3,0.1,4.7,0,7-0.1c1.9,0,4.1-0.4,5.7-0.1c2.6,0.6,4.4,0.7,6.6-0.5c2.9-1.5,5.3-0.1,7.7,0.9
	c4.4-2.3,8.5-3.3,13.5-0.5c1.4,0.8,4.6,0.6,7.9,0.9l-2.3,1.3c1.9,0.1,3.7,0.3,5.6,0.7c5.8,1.6,10.8,0.5,15.9-1
	c1.8-0.4,3.6-0.8,5.4-1L620.7,361.8z M591.3,432.7l24.1,1l0.1-1C607.5,432.2,599.4,432.2,591.3,432.7L591.3,432.7z M816.5,422.5
	c-0.1,0.3-0.2,0.6-0.2,0.8c8.5,2.4,8.5,2.4,12.3-0.3L816.5,422.5z M797.1,422.7c2.3,2,4.6,1.8,7.9,1.2
	C802.8,422.1,800.3,422.5,797.1,422.7L797.1,422.7z M758.1,386.5c5.3,1.4,5.3,1.4,9-0.3L758.1,386.5z M749.5,380.3l0.7-0.9l-8.4-0.3
	l-0.1,0.4L749.5,380.3z M802.5,385.6c0-0.1,0-0.2,0-0.3l-4.7-0.9l-0.4,0.9L802.5,385.6z M722.3,391.1l-0.3,0.1
	c0.2,0.1,0.4,0.1,0.7,0.1h3.9v-0.3L722.3,391.1z M730.1,431.1l0.4,0.8l3.2-0.7l-0.2-0.4L730.1,431.1z"/>
<path d="M837.4,394.9c5.5-0.2,10.9-1,15.1,1.7L837.4,394.9z"/>
<path d="M777.8,374l10.7,1C783.3,376.1,783.3,376.1,777.8,374z"/>
<path d="M801.4,394.5l-4.8-0.8c0.5-0.5,0.6-0.9,0.8-1c0.9-0.2,1.8-0.2,2.7-0.1c0.7,0.2,1.3,0.5,1.9,1
	C801.8,393.9,801.6,394.2,801.4,394.5z"/>
<path d="M599.9,360.5l4.4-0.2C601.9,361.6,601.9,361.6,599.9,360.5z"/>
<path d="M620.9,361.9c0.7-2.2,0.7-2.2,6.1-0.4l-6.3,0.3L620.9,361.9z"/>
<path d="M824.8,394.2l-4-1.1l0.7-0.8l4,1L824.8,394.2z"/>
<path d="M820.4,385.9l4.1,1c-0.1,0.2-0.2,0.3-0.3,0.5l-4.3-0.8L820.4,385.9z"/>
<path d="M820.5,399.4c-0.1-0.1-0.2-0.3-0.2-0.4c-0.1-0.7-0.1-1.4-0.2-2.1l1.3,0.1c-0.4,0.8-0.7,1.5-1.1,2.3L820.5,399.4z"/>
<path d="M678.6,365.2l5.5,0.2c0,0.2,0,0.3,0,0.5h-5.5L678.6,365.2z"/>
<path d="M508.5,358.8c1.6,0.3,3.1,0.5,4.7,0.7c3.7,0.2,7.3,0.6,10.9,1.2c3.4,0.5,7.2,0.4,10.7,1.5c3.4,0.9,7,0.8,10.3-0.4
	c3.3-1.1,6.9-1,10.2,0.2c6.1,2.4,13,2.1,19.4,2.5c7.2,0.4,14.7-0.6,22-0.6c6.5-0.1,13.2-0.2,18.9,2.5c2.5,1.2,5.8,1.8,9.7,2.9
	l-6.6,1c7.2,1.7,8.7,1.6,13-0.7c0.7-0.3,1.5-0.5,2.3-0.6c1.9-0.1,3.8-0.1,5.8,0c6.2,0.6,12.3,1.3,18.4,1.9c-0.1,0.3-0.1,0.6-0.2,0.9
	l-20.6-1c1.1,1.1,1.5,2.1,2.4,2.3c2,0.4,4.2,0.4,6.4,0.6c7.3,0.8,14.7,1.5,21.8,2.6c4,0.6,7.5,2.2,11.5,3.2c2.1,0.5,4.7,0.4,6.9,0.7
	c3.9,0.5,7.7,1.1,11.5,1.9c0.9,0.2,1.7,1.4,1.5,2s-1.8,1.2-2.9,1.3c-1.9,0.2-3.8,0.2-5.7,0.1c-7.2-0.4-14.5-1.2-21.3,1.3
	c0-0.1-0.1,0,0,0.1c0.3,0.2,0.7,0.3,1.1,0.5c-2.3,2.2-5.4,3-10.2,2.6c-6.8-0.6-13.8-1-20.8-1c-9.3,0-18.6,0.6-28,1.3
	c7.3,0.4,14.5,0.8,21.8,1.3c3.4,0.2,7-0.2,9.9,1.7c1.1,0.7,5,0.3,7.4-0.1c7.8-1.3,15.1-1.1,22,1.5c3.6,1.4,8.5,0.3,11.3,1.5
	c3.4,1.5,6.4,2.7,10.7,2.5l1.8-0.1l1.6-2.3l6.2,0.4l-0.2-0.1c-0.5,2.1,2,2.5,4.7,2.9c5.3,0.7,10.5,1.6,15.9,2.7
	c-3.3,0.3-3.1,3.6-7.7,2.5c-0.8-0.1-1.7-0.3-2.5-0.5c0-2.6-3.7-2.2-6.2-2.4c-8.6-0.6-17.2-0.9-25.7-1.5c-7.3-0.5-14.5-1.5-21.8-2.2
	c-1.7-0.2-3.5-0.7-4.9-0.4c-6,1.3-11.8,0.5-17.7,0.1c-1.8-0.1-3.6,0.3-5.3,1c6.2,0.3,12.3,0.6,18.5,1c11.5,0.8,23.1,1.6,34.7,2.2
	c2.6,0,5.2-0.1,7.8-0.4c2.8-0.3,4,0.4,4.4,2.4l-20.8-1c1.7,2.8,5.3,2.6,9,2.6c4.7-0.1,9.5-0.5,13.8,1.4c-6.7,1.2-13.7-0.9-20.3,0.8
	c10,0.4,19.5,2.5,29.7,2.3c-4.7,1.5-15.6,1.5-29.6,0.3c-1.5,1.1-1.1,2.1,1.3,2.5c1.8,0.3,3.9,0.1,5.7,0.4c1.3,0.2,2.4,0.9,4.7,1.8
	l-11.2,1.8c4.1,0.5,9.2,0.8,14.2,1.7c7.3,1.3,12.4-1.2,18.7-2.9l5.1,6.3l8.8,0.9c-1.5-1.1-1.5-1.1-6.2-2.1c4.9-1.6,9.5,0,14.3-0.8
	c0.1,1.2,0.2,2.1,0.3,3.1c3.3-0.5,7.3,1,9.6-1.8c5.1,3.6,12.4,2.4,18.8,3.4c-1.3,0.2-2.7,0.4-4,0.4c-13.7,0-27.4-0.3-41,0.1
	c-17.9,0.5-35.8,1.5-53.7,2.3c-6.2,0.3-12.4,0.6-18.6,0.9c-1.6,0.1-3,0.6-4.6,0.7c-1.8,0.2-3.5,0.2-5.3,0c-2.3-0.4-4.5-1.1-5,1.1
	c-0.7,0.4-1.5,0.6-2.3,0.6c-4.1-2-8.2-0.2-12.2,0c-18.5,0.6-36.9,0.6-55.3,0.2c-9.8-0.3-19.7,0.1-29.5,0.1
	c-4.5-0.2-9.1-0.4-13.6-0.5v1l13.8-0.5c0.9,0.5,1.8,0.9,2.8,1c15.6,0.2,31,2.2,46.7,1c3.7-0.3,7.4,0,11,0.7
	c-1.9,0.3-3.8,0.6-5.7,0.7c-10.3,0-20.6-0.2-30.8-0.2c-13.9,0-27.9,0.5-41.7,0c-6.7-0.2-12.9,1.2-21,1.1l5.1-1
	c-2.7-1.8-5.9-0.7-8.6-0.9s-5.5-0.2-8.3-0.2c-0.9-0.2-1.9-0.2-2.8,0c-4.4,2.2-9.6,1.4-14.4,1.2c-24.4-1-48.8-2.3-73.3-3.4
	c-14.4-0.6-28.8-0.7-43.2-1.3c-13.9-0.5-27.9-0.8-41.6-2.1c-17.4-1.7-34.9-2-52.4-2.6c-5.7-0.2-11.4-0.7-17.2-1
	c-3.8-0.2-7.6-0.3-11.4-0.2c-4.3,0.1-8.5-1-12.2-3.1c-3.9-2-3.6-3.5,0.1-5.9c1.7-1,3.3-2.1,5.6-3.6l-3.6-2.7c1.5-2.3,3.2-4.5,5-6.7
	c1.9-2,4-3.8,6.2-5.5c3.7-3.1,7.5-6.2,12.1-10l8.6,0.3v-2.9c10.5-1.9,21.3-3.9,31.9-5.9c4.5-0.9,9-2,13.5-2.9
	c8.4-1.7,16.8-3.3,25.1-5c6.4-1.3,13.6-1.9,18-5.7c6,2.6,11.3,2.1,17.2,0.5c4.8-1.3,9.6-3.3,15.9-1.7c1.7,0.4,4.8-0.6,7.1-1.3
	s4.4-1.7,6.8-2.3c1.3-0.3,4-0.1,4.4,0.4c1.2,1.4,2.7,1.9,5.1,1.6c3.9-0.5,8.4,0.5,11.6-1.4c3.8-2.3,7.8-2.3,12.4-0.8
	c3.3,1.2,6.9,1.2,10.2,0.1c3.4-1.4,6.8-0.9,10.3-0.7c2.3,0.1,4.6,0,6.9-0.1c1.9,0,4-0.4,5.6-0.1c2.5,0.6,4.3,0.7,6.5-0.5
	c2.8-1.5,5.2-0.1,7.6,0.9c4.3-2.3,8.4-3.3,13.2-0.5c1.4,0.8,4.6,0.6,7.7,0.9l-2.2,1.3c1.8,0.1,3.7,0.3,5.5,0.7
	c5.6,1.6,10.6,0.5,15.6-1c1.8-0.4,3.5-0.8,5.3-1L508.5,358.8z M479.8,429.7l23.6,1l0.1-1C495.6,429.2,487.7,429.2,479.8,429.7z
	 M700.2,419.5c-0.1,0.3-0.2,0.6-0.2,0.8c8.3,2.4,8.3,2.4,12-0.3L700.2,419.5z M681.2,419.7c2.2,2,4.5,1.8,7.7,1.2
	C686.8,419.1,684.5,419.5,681.2,419.7L681.2,419.7z M643.1,383.5c5.2,1.4,5.2,1.4,8.8-0.3L643.1,383.5z M634.7,377.3l0.7-0.9
	l-8.2-0.3c0,0.1-0.1,0.3-0.1,0.4L634.7,377.3z M686.6,382.5c0-0.1,0-0.2,0-0.3l-4.6-0.9l-0.4,0.9L686.6,382.5z M608,388.1l-0.3,0.1
	c0.2,0.1,0.4,0.1,0.6,0.1h3.9v-0.3L608,388.1z M615.7,428.1c0.1,0.3,0.3,0.5,0.4,0.8l3.1-0.7l-0.2-0.4L615.7,428.1z"/>
<path d="M720.8,391.9c5.3-0.2,10.7-1,14.8,1.7L720.8,391.9z"/>
<path d="M662.4,371.1l10.5,1C667.8,373.1,667.8,373.1,662.4,371.1z"/>
<path d="M685.5,391.5l-4.7-0.8c0.5-0.6,0.6-0.9,0.8-1c0.9-0.2,1.8-0.2,2.6-0.1c0.7,0.2,1.3,0.6,1.9,1L685.5,391.5z"/>
<path d="M488.2,357.5l4.3-0.2C490.1,358.6,490.1,358.6,488.2,357.5z"/>
<path d="M508.8,358.9c0.6-2.2,0.6-2.2,6-0.4l-6.2,0.3L508.8,358.9z"/>
<path d="M708.4,391.2l-3.9-1.1l0.7-0.8l3.9,1L708.4,391.2z"/>
<path d="M704.1,382.9l4,1c-0.1,0.2-0.2,0.3-0.3,0.5l-4.2-0.8C703.8,383.4,703.9,383.1,704.1,382.9z"/>
<path d="M704.2,396.4c-0.1-0.1-0.2-0.3-0.2-0.4c-0.1-0.7-0.1-1.4-0.2-2.1l1.3,0.1c-0.4,0.8-0.7,1.5-1.1,2.3L704.2,396.4z"/>
<path d="M565.3,362.2l5.3,0.2c0,0.2,0,0.3,0,0.5h-5.4L565.3,362.2z"/>
<path d="M511.8,424.8c1.6,0.3,3.1,0.5,4.7,0.7c3.7,0.2,7.3,0.6,10.9,1.2c3.4,0.5,7.2,0.4,10.7,1.5c3.4,0.9,7,0.8,10.3-0.4
	c3.3-1.1,6.9-1,10.2,0.2c6.1,2.4,13,2.1,19.4,2.5c7.2,0.4,14.7-0.6,22-0.6c6.5-0.1,13.2-0.2,18.9,2.5c2.5,1.2,5.8,1.8,9.7,2.9
	l-6.6,1c7.2,1.7,8.7,1.6,13-0.7c0.7-0.3,1.5-0.5,2.3-0.6c1.9-0.1,3.8-0.1,5.8,0c6.2,0.6,12.3,1.3,18.4,1.9c-0.1,0.3-0.1,0.6-0.2,0.9
	l-20.6-1c1.1,1.1,1.5,2.1,2.4,2.3c2,0.4,4.2,0.4,6.3,0.6c7.3,0.8,14.7,1.5,21.8,2.6c4,0.6,7.5,2.2,11.5,3.2c2.1,0.5,4.7,0.4,6.9,0.7
	c3.9,0.5,7.8,1.1,11.5,1.9c0.9,0.2,1.8,1.4,1.5,2s-1.8,1.2-2.9,1.3c-1.9,0.2-3.8,0.2-5.7,0.1c-7.2-0.4-14.5-1.2-21.3,1.3
	c0-0.1-0.1,0,0,0.1c0.3,0.2,0.7,0.3,1.1,0.5c-2.3,2.2-5.4,3-10.2,2.6c-6.9-0.6-13.9-1-20.8-1c-9.3,0-18.6,0.6-28,1.3
	c7.3,0.4,14.5,0.8,21.8,1.3c3.4,0.2,6.9-0.2,9.9,1.7c1.1,0.7,5,0.3,7.4-0.1c7.8-1.3,15.1-1.1,22,1.5c3.6,1.4,8.5,0.3,11.3,1.5
	c3.4,1.5,6.4,2.7,10.7,2.6l1.8-0.1l1.6-2.3l6.2,0.4l-0.2-0.1c-0.5,2.1,2,2.5,4.7,2.9c5.3,0.7,10.5,1.6,15.9,2.7
	c-3.3,0.3-3.1,3.6-7.7,2.5c-0.8-0.1-1.7-0.3-2.5-0.5c0-2.6-3.7-2.2-6.2-2.4c-8.5-0.6-17.2-0.9-25.7-1.5c-7.3-0.6-14.5-1.5-21.8-2.2
	c-1.7-0.2-3.5-0.7-4.9-0.4c-6,1.2-11.8,0.5-17.7,0.1c-1.8-0.1-3.6,0.3-5.3,1c6.2,0.3,12.3,0.6,18.5,1c11.5,0.8,23.1,1.6,34.7,2.2
	c2.6,0,5.2-0.1,7.8-0.4c2.8-0.3,4,0.4,4.4,2.4l-20.8-1c1.7,2.8,5.3,2.6,9,2.6c4.7-0.1,9.5-0.5,13.7,1.4c-6.7,1.2-13.7-0.9-20.3,0.8
	c10,0.4,19.5,2.5,29.7,2.3c-4.6,1.5-15.6,1.5-29.6,0.3c-1.5,1.1-1.1,2.1,1.3,2.5c1.8,0.3,3.9,0.1,5.7,0.4c1.3,0.2,2.4,0.9,4.7,1.8
	l-11.2,1.8c4,0.5,9.2,0.8,14.2,1.7c7.3,1.3,12.4-1.2,18.7-2.9l5.2,6.3l8.8,0.9c-1.5-1.1-1.5-1.1-6.2-2.1c4.9-1.6,9.5,0,14.3-0.8
	c0.1,1.2,0.2,2.1,0.3,3.1c3.3-0.5,7.3,1,9.6-1.8c5.1,3.6,12.4,2.4,18.8,3.4c-1.3,0.2-2.7,0.4-4,0.4c-13.7,0-27.4-0.3-41,0.1
	c-17.9,0.5-35.8,1.5-53.7,2.3c-6.2,0.3-12.4,0.6-18.6,0.9c-1.6,0.1-3,0.6-4.6,0.7c-1.8,0.2-3.5,0.2-5.3,0c-2.3-0.4-4.5-1.1-5,1.1
	c-0.7,0.4-1.5,0.6-2.3,0.6c-4.1-2-8.2-0.2-12.2,0c-18.4,0.6-36.9,0.6-55.3,0.2c-9.8-0.3-19.7,0.1-29.5,0.2L522,496v1l13.8-0.5
	c0.9,0.5,1.8,0.9,2.8,1c15.6,0.2,31,2.2,46.7,1c3.7-0.3,7.4,0,11,0.7c-1.9,0.3-3.8,0.6-5.7,0.7c-10.3,0-20.6-0.2-30.8-0.2
	c-13.9,0-27.9,0.5-41.8,0c-6.7-0.2-12.9,1.2-21,1.1l5.1-1c-2.7-1.7-5.9-0.7-8.6-0.8s-5.5-0.2-8.3-0.3c-0.9-0.1-1.9-0.1-2.8,0
	c-4.4,2.2-9.6,1.4-14.4,1.2c-24.4-1-48.8-2.3-73.3-3.3c-14.4-0.6-28.8-0.8-43.1-1.3c-13.9-0.5-27.9-0.8-41.6-2.1
	c-17.4-1.7-34.9-2-52.4-2.6c-5.7-0.2-11.4-0.7-17.2-1c-3.8-0.2-7.6-0.3-11.4-0.2c-4.3,0.1-8.5-1-12.2-3.1c-3.9-2-3.6-3.5,0.1-5.8
	c1.7-1,3.3-2.1,5.6-3.6l-3.6-2.7c1.5-2.3,3.2-4.5,5-6.7c1.9-2,4-3.8,6.2-5.5c3.7-3.1,7.5-6.2,12.1-10l8.6,0.3v-2.9
	c10.6-1.9,21.3-3.9,31.9-5.9c4.5-0.9,9-2,13.5-2.9c8.4-1.7,16.8-3.3,25.1-5c6.4-1.3,13.6-1.9,18-5.7c6,2.6,11.3,2.1,17.2,0.5
	c4.8-1.4,9.6-3.4,15.9-1.7c1.7,0.4,4.8-0.6,7.1-1.3s4.4-1.7,6.8-2.3c1.3-0.3,4-0.1,4.4,0.4c1.2,1.4,2.8,1.9,5.1,1.6
	c3.9-0.5,8.4,0.5,11.6-1.4c3.8-2.3,7.8-2.3,12.4-0.8c3.3,1.2,6.9,1.3,10.3,0.1c3.4-1.4,6.8-0.9,10.3-0.7c2.3,0.1,4.6,0,6.9-0.1
	c1.9,0,4-0.4,5.6-0.1c2.5,0.6,4.3,0.7,6.5-0.5c2.8-1.5,5.2-0.1,7.5,0.9c4.3-2.4,8.4-3.3,13.2-0.5c1.4,0.8,4.6,0.6,7.7,0.9l-2.2,1.3
	c1.8,0.1,3.7,0.3,5.5,0.7c5.6,1.6,10.6,0.5,15.6-1c1.8-0.4,3.5-0.8,5.3-1L511.8,424.8z M483,495.7l23.6,1l0.1-1
	C498.8,495.2,490.9,495.2,483,495.7L483,495.7z M703.5,485.4l-0.2,0.8c8.3,2.4,8.3,2.4,12.1-0.3L703.5,485.4z M684.5,485.7
	c2.2,2,4.5,1.8,7.7,1.2C690,485.1,687.7,485.4,684.5,485.7L684.5,485.7z M646.3,449.5c5.2,1.4,5.2,1.4,8.8-0.3L646.3,449.5z
	 M637.9,443.3l0.7-0.9l-8.2-0.3l-0.1,0.4L637.9,443.3z M689.8,448.5c0-0.1,0-0.2,0-0.3l-4.6-0.9l-0.4,0.9L689.8,448.5z M611.2,454.1
	l-0.3,0.1c0.2,0,0.4,0.1,0.6,0.1h3.9v-0.3L611.2,454.1z M618.9,494.1c0.1,0.3,0.3,0.5,0.4,0.8l3.1-0.7l-0.2-0.4L618.9,494.1z"/>
<path d="M724,457.9c5.3-0.2,10.7-1,14.8,1.7L724,457.9z"/>
<path d="M665.6,437l10.5,1C671,439.1,671,439.1,665.6,437z"/>
<path d="M688.7,457.4l-4.7-0.8c0.5-0.6,0.6-0.9,0.8-1c0.9-0.2,1.8-0.2,2.6-0.1c0.7,0.2,1.3,0.5,1.9,1L688.7,457.4z"/>
<path d="M491.4,423.4l4.3-0.2C493.4,424.6,493.4,424.6,491.4,423.4z"/>
<path d="M512,424.9c0.6-2.2,0.6-2.2,6-0.4l-6.2,0.3L512,424.9z"/>
<path d="M711.6,457.2l-3.9-1.1l0.7-0.8l3.9,1L711.6,457.2z"/>
<path d="M707.3,448.9l4,1l-0.3,0.5l-4.2-0.8L707.3,448.9z"/>
<path d="M707.4,462.4c-0.1-0.1-0.2-0.3-0.2-0.4c-0.1-0.7-0.1-1.4-0.2-2.1l1.3,0.1c-0.4,0.8-0.7,1.5-1.1,2.3L707.4,462.4z"/>
<path d="M568.5,428.2l5.3,0.2c0,0.1,0,0.3,0,0.5h-5.4L568.5,428.2z"/>
<path d="M622,424.8c1.6,0.3,3.2,0.5,4.8,0.7c3.7,0.2,7.4,0.6,11.1,1.2c3.5,0.5,7.4,0.4,10.9,1.5c3.5,0.9,7.1,0.8,10.5-0.4
	c3.4-1.1,7-1,10.4,0.2c6.2,2.4,13.2,2.1,19.8,2.5c7.4,0.4,15-0.6,22.5-0.6c6.7-0.1,13.5-0.2,19.3,2.5c2.6,1.2,5.9,1.8,9.8,2.9
	l-6.7,1c7.4,1.7,8.9,1.6,13.3-0.7c0.7-0.3,1.5-0.5,2.4-0.6c2-0.1,3.9-0.1,5.9,0c6.3,0.6,12.6,1.3,18.8,1.9c-0.1,0.3-0.1,0.6-0.2,0.9
	l-21-1c1.1,1.1,1.5,2.1,2.5,2.3c2,0.4,4.3,0.4,6.5,0.6c7.4,0.8,15,1.5,22.3,2.6c4.1,0.6,7.7,2.2,11.7,3.2c2.2,0.5,4.8,0.4,7.1,0.7
	c3.9,0.5,7.9,1.1,11.7,1.9c0.9,0.2,1.8,1.4,1.6,2s-1.8,1.2-3,1.3c-1.9,0.2-3.9,0.2-5.9,0.1c-7.4-0.4-14.8-1.2-21.8,1.3
	c0-0.1-0.1,0,0,0.1c0.3,0.2,0.8,0.3,1.1,0.5c-2.4,2.2-5.5,3-10.4,2.6c-7-0.6-14.2-1-21.2-1c-9.5,0-19,0.6-28.6,1.3
	c7.4,0.4,14.8,0.8,22.2,1.3c3.5,0.2,7.1-0.2,10.1,1.7c1.1,0.7,5.2,0.3,7.6-0.1c7.9-1.3,15.4-1.1,22.4,1.5c3.7,1.4,8.7,0.3,11.6,1.5
	c3.5,1.5,6.5,2.7,10.9,2.6l1.8-0.1l1.7-2.3l6.3,0.4l-0.2-0.1c-0.5,2.1,2,2.5,4.8,2.9c5.4,0.7,10.8,1.6,16.3,2.7
	c-3.3,0.3-3.2,3.6-7.8,2.5c-0.9-0.1-1.7-0.3-2.5-0.5c0-2.6-3.8-2.2-6.3-2.4c-8.7-0.6-17.5-0.9-26.3-1.5c-7.5-0.6-14.8-1.5-22.2-2.2
	c-1.7-0.2-3.6-0.7-5-0.4c-6.1,1.2-12.1,0.5-18.1,0.1c-1.9-0.1-3.7,0.3-5.4,1c6.3,0.3,12.6,0.6,18.8,1c11.8,0.8,23.6,1.6,35.4,2.2
	c2.6,0,5.3-0.1,7.9-0.4c2.8-0.3,4.1,0.4,4.5,2.4l-21.3-1c1.7,2.8,5.4,2.6,9.2,2.6c4.8-0.1,9.7-0.5,14,1.4c-6.9,1.2-14-0.9-20.7,0.8
	c10.2,0.4,19.9,2.5,30.3,2.3c-4.7,1.5-15.9,1.5-30.2,0.3c-1.5,1.1-1.2,2.1,1.3,2.5c1.9,0.3,4,0.1,5.8,0.4c1.3,0.2,2.5,0.9,4.8,1.8
	l-11.4,1.8c4.1,0.5,9.4,0.8,14.5,1.7c7.4,1.3,12.7-1.2,19.1-2.9l5.3,6.3l9,0.9c-1.5-1.1-1.5-1.1-6.3-2.1c5-1.6,9.7,0,14.6-0.8
	c0.1,1.2,0.2,2.1,0.3,3.1c3.4-0.5,7.5,1,9.8-1.8c5.2,3.6,12.6,2.4,19.2,3.4c-1.3,0.2-2.7,0.4-4.1,0.4c-14,0-28-0.3-41.9,0.1
	c-18.3,0.5-36.6,1.5-54.9,2.3c-6.3,0.3-12.7,0.6-19,0.9c-1.6,0.1-3.1,0.6-4.7,0.7c-1.8,0.2-3.6,0.2-5.4,0c-2.4-0.4-4.6-1.1-5.1,1.1
	c-0.7,0.4-1.5,0.6-2.4,0.6c-4.2-2-8.4-0.2-12.5,0c-18.8,0.6-37.7,0.6-56.5,0.2c-10-0.3-20.1,0.1-30.2,0.2l-13.9-0.5v1l14.1-0.5
	c0.9,0.5,1.9,0.9,2.9,1c15.9,0.2,31.7,2.2,47.7,1c3.7-0.3,7.5,0,11.2,0.7c-1.9,0.3-3.9,0.6-5.8,0.7c-10.5,0-21-0.2-31.5-0.2
	c-14.2,0-28.5,0.5-42.6,0c-6.9-0.2-13.1,1.2-21.4,1.1l5.2-1c-2.7-1.7-6-0.7-8.8-0.8s-5.6-0.2-8.5-0.3c-0.9-0.1-1.9-0.1-2.8,0
	c-4.5,2.2-9.8,1.4-14.7,1.2c-25-1-49.9-2.3-74.8-3.3c-14.7-0.6-29.4-0.8-44.1-1.3c-14.2-0.5-28.5-0.8-42.5-2.1
	c-17.8-1.7-35.6-2-53.5-2.6c-5.9-0.2-11.7-0.7-17.5-1c-3.9-0.2-7.8-0.3-11.6-0.2c-4.4,0.1-8.6-1-12.5-3.1c-3.9-2-3.7-3.5,0.1-5.8
	c1.7-1,3.3-2.1,5.8-3.6l-3.6-2.7c1.6-2.3,3.3-4.5,5.1-6.7c2-2,4.1-3.8,6.3-5.5c3.8-3.1,7.7-6.2,12.4-10l8.8,0.3v-2.9
	c10.8-1.9,21.7-3.9,32.6-5.9c4.6-0.9,9.1-2,13.8-2.9c8.5-1.7,17.1-3.3,25.6-5c6.6-1.3,13.9-1.9,18.3-5.7c6.1,2.6,11.5,2.1,17.5,0.5
	c4.9-1.4,9.9-3.4,16.3-1.7c1.8,0.4,4.9-0.6,7.2-1.3s4.5-1.7,7-2.3c1.3-0.3,4.1-0.1,4.5,0.4c1.2,1.4,2.8,1.9,5.2,1.6
	c4-0.5,8.6,0.5,11.8-1.4c3.9-2.3,8-2.3,12.6-0.8c3.4,1.2,7.1,1.3,10.5,0.1c3.5-1.4,6.9-0.9,10.5-0.7c2.3,0.1,4.7,0,7-0.1
	c1.9,0,4.1-0.4,5.7-0.1c2.6,0.6,4.4,0.7,6.6-0.5c2.9-1.5,5.3-0.1,7.7,0.9c4.4-2.4,8.5-3.3,13.5-0.5c1.4,0.8,4.7,0.6,7.9,0.9
	l-2.3,1.3c1.9,0.1,3.7,0.3,5.6,0.7c5.8,1.6,10.8,0.5,15.9-1c1.8-0.4,3.6-0.8,5.4-1L622,424.8z M592.7,495.7l24.1,1l0.1-1
	C608.8,495.2,600.7,495.2,592.7,495.7z M817.8,485.4c-0.1,0.3-0.2,0.6-0.2,0.8c8.5,2.4,8.5,2.4,12.3-0.3L817.8,485.4z M798.4,485.7
	c2.3,2,4.6,1.8,7.9,1.2C804.1,485.1,801.7,485.4,798.4,485.7L798.4,485.7z M759.4,449.5c5.3,1.4,5.3,1.4,9-0.3L759.4,449.5z
	 M750.8,443.3c0.2-0.3,0.5-0.6,0.7-0.9l-8.3-0.3l-0.1,0.4L750.8,443.3z M803.8,448.5c0-0.1,0-0.2,0-0.3l-4.7-0.9
	c-0.1,0.3-0.3,0.6-0.4,0.9L803.8,448.5z M723.6,454.1l-0.3,0.1c0.2,0,0.4,0.1,0.7,0.1h3.9c0-0.1,0-0.2,0-0.3L723.6,454.1z
	 M731.4,494.1l0.4,0.8l3.2-0.7c-0.1-0.1-0.1-0.3-0.2-0.4L731.4,494.1z"/>
<path d="M838.8,457.9c5.5-0.2,10.9-1,15.1,1.7L838.8,457.9z"/>
<path d="M779.1,437l10.7,1C784.7,439.1,784.7,439.1,779.1,437z"/>
<path d="M802.8,457.4l-4.8-0.8c0.5-0.6,0.6-0.9,0.8-1c0.9-0.2,1.8-0.2,2.7-0.1c0.7,0.2,1.3,0.5,1.9,1L802.8,457.4z"/>
<path d="M601.3,423.4l4.4-0.2C603.2,424.6,603.2,424.6,601.3,423.4z"/>
<path d="M622.2,424.9c0.7-2.2,0.7-2.2,6.1-0.4l-6.3,0.3L622.2,424.9z"/>
<path d="M826.1,457.2l-4-1.1l0.7-0.8l4,1L826.1,457.2z"/>
<path d="M821.7,448.9l4.1,1l-0.3,0.5l-4.3-0.8L821.7,448.9z"/>
<path d="M821.8,462.4c-0.1-0.1-0.2-0.3-0.2-0.4c-0.1-0.7-0.1-1.4-0.2-2.1l1.3,0.1c-0.4,0.8-0.7,1.5-1.1,2.3L821.8,462.4z"/>
<path d="M679.9,428.2l5.5,0.2c0,0.1,0,0.3,0,0.5h-5.5L679.9,428.2z"/>
<path d="M368.8,424.8c1.6,0.3,3.1,0.5,4.7,0.7c3.7,0.2,7.3,0.6,10.9,1.2c3.4,0.5,7.2,0.4,10.7,1.5c3.4,0.9,7,0.8,10.3-0.4
	c3.3-1.1,6.9-1,10.2,0.2c6.1,2.4,13,2.1,19.4,2.5c7.2,0.4,14.7-0.6,22-0.6c6.6-0.1,13.2-0.2,18.9,2.5c2.5,1.2,5.8,1.8,9.7,2.9
	l-6.6,1c7.2,1.7,8.7,1.6,13-0.7c0.7-0.3,1.5-0.5,2.3-0.6c1.9-0.1,3.8-0.1,5.8,0c6.2,0.6,12.3,1.3,18.4,1.9c-0.1,0.3-0.1,0.6-0.2,0.9
	l-20.6-1c1.1,1.1,1.5,2.1,2.4,2.3c2,0.4,4.2,0.4,6.3,0.6c7.3,0.8,14.7,1.5,21.8,2.6c4,0.6,7.5,2.2,11.5,3.2c2.1,0.5,4.7,0.4,6.9,0.7
	c3.9,0.5,7.7,1.1,11.5,1.9c0.9,0.2,1.7,1.4,1.5,2s-1.8,1.2-2.9,1.3c-1.9,0.2-3.8,0.2-5.7,0.1c-7.2-0.4-14.5-1.2-21.3,1.3
	c0-0.1-0.1,0,0,0.1c0.3,0.2,0.7,0.3,1.1,0.5c-2.3,2.2-5.4,3-10.2,2.6c-6.9-0.6-13.9-1-20.8-1c-9.3,0-18.6,0.6-28,1.3
	c7.3,0.4,14.5,0.8,21.8,1.3c3.4,0.2,6.9-0.2,9.9,1.7c1.1,0.7,5,0.3,7.4-0.1c7.8-1.3,15.1-1.1,22,1.5c3.6,1.4,8.5,0.3,11.3,1.5
	c3.4,1.5,6.4,2.7,10.7,2.6l1.8-0.1l1.6-2.3l6.2,0.4l-0.2-0.1c-0.5,2.1,2,2.5,4.8,2.9c5.3,0.7,10.5,1.6,15.9,2.7
	c-3.3,0.3-3.1,3.6-7.7,2.5c-0.8-0.1-1.7-0.3-2.5-0.5c0-2.6-3.7-2.2-6.2-2.4c-8.5-0.6-17.2-0.9-25.7-1.5c-7.3-0.6-14.5-1.5-21.8-2.2
	c-1.7-0.2-3.5-0.7-4.9-0.4c-6,1.2-11.8,0.5-17.7,0.1c-1.8-0.1-3.6,0.3-5.3,1c6.2,0.3,12.3,0.6,18.5,1c11.6,0.8,23.1,1.6,34.7,2.2
	c2.6,0,5.2-0.1,7.8-0.4c2.8-0.3,4,0.4,4.4,2.4l-20.8-1c1.7,2.8,5.3,2.6,9,2.6c4.7-0.1,9.5-0.5,13.7,1.4c-6.7,1.2-13.7-0.9-20.3,0.8
	c10,0.4,19.5,2.5,29.6,2.3c-4.6,1.5-15.6,1.5-29.6,0.3c-1.5,1.1-1.1,2.1,1.3,2.5c1.8,0.3,3.9,0.1,5.7,0.4c1.3,0.2,2.4,0.9,4.7,1.8
	l-11.2,1.8c4,0.5,9.2,0.8,14.2,1.7c7.3,1.3,12.4-1.2,18.7-2.9l5.2,6.3l8.8,0.9c-1.5-1.1-1.5-1.1-6.2-2.1c4.9-1.6,9.5,0,14.3-0.8
	c0.1,1.2,0.2,2.1,0.3,3.1c3.3-0.5,7.3,1,9.6-1.8c5.1,3.6,12.4,2.4,18.8,3.4c-1.3,0.2-2.7,0.4-4,0.4c-13.7,0-27.4-0.3-41,0.1
	c-17.9,0.5-35.8,1.5-53.7,2.3c-6.2,0.3-12.4,0.6-18.6,0.9c-1.6,0.1-3,0.6-4.6,0.7c-1.8,0.2-3.5,0.2-5.3,0c-2.3-0.4-4.5-1.1-5,1.1
	c-0.7,0.4-1.5,0.6-2.3,0.6c-4.1-2-8.2-0.2-12.2,0c-18.4,0.6-36.9,0.6-55.3,0.2c-9.8-0.3-19.7,0.1-29.5,0.2l-13.6-0.5v1l13.8-0.5
	c0.9,0.5,1.8,0.9,2.8,1c15.6,0.2,31,2.2,46.7,1c3.7-0.3,7.4,0,11,0.7c-1.9,0.3-3.8,0.6-5.7,0.7c-10.3,0-20.6-0.2-30.8-0.2
	c-13.9,0-27.9,0.5-41.8,0c-6.7-0.2-12.9,1.2-21,1.1l5.1-1c-2.7-1.7-5.9-0.7-8.6-0.8s-5.5-0.2-8.3-0.3c-0.9-0.1-1.9-0.1-2.8,0
	c-4.4,2.2-9.6,1.4-14.4,1.2c-24.4-1-48.8-2.3-73.3-3.3c-14.4-0.6-28.8-0.8-43.1-1.3c-13.9-0.5-27.9-0.8-41.6-2.1
	c-17.4-1.7-34.9-2-52.4-2.6c-5.7-0.2-11.4-0.7-17.2-1c-3.8-0.2-7.6-0.3-11.4-0.2c-4.3,0.1-8.5-1-12.2-3.1c-3.8-2-3.6-3.5,0.1-5.8
	c1.7-1,3.3-2.1,5.6-3.6l-3.6-2.7c1.5-2.3,3.2-4.5,5-6.7c1.9-2,4-3.8,6.2-5.5c3.7-3.1,7.6-6.2,12.1-10l8.6,0.3v-2.9
	c10.6-1.9,21.3-3.9,31.9-5.9c4.6-0.9,9-2,13.5-2.9c8.4-1.7,16.8-3.3,25.1-5c6.4-1.3,13.6-1.9,18-5.7c6,2.6,11.3,2.1,17.2,0.5
	c4.8-1.4,9.7-3.4,15.9-1.7c1.7,0.4,4.8-0.6,7.1-1.3s4.4-1.7,6.8-2.3c1.3-0.3,4-0.1,4.4,0.4c1.2,1.4,2.8,1.9,5.1,1.6
	c3.9-0.5,8.4,0.5,11.6-1.4c3.8-2.3,7.8-2.3,12.4-0.8c3.3,1.2,6.9,1.3,10.3,0.1c3.4-1.4,6.8-0.9,10.3-0.7c2.3,0.1,4.6,0,6.9-0.1
	c1.9,0,4-0.4,5.6-0.1c2.5,0.6,4.3,0.7,6.5-0.5c2.8-1.5,5.2-0.1,7.5,0.9c4.3-2.4,8.4-3.3,13.2-0.5c1.4,0.8,4.5,0.6,7.7,0.9l-2.3,1.4
	c1.8,0.1,3.7,0.3,5.5,0.7c5.6,1.6,10.6,0.5,15.6-1c1.8-0.4,3.5-0.8,5.3-1L368.8,424.8z M340.1,495.7l23.6,1l0.1-1
	C355.9,495.2,348,495.2,340.1,495.7z M560.6,485.4l-0.2,0.8c8.3,2.4,8.3,2.4,12.1-0.3L560.6,485.4z M541.6,485.7
	c2.2,2,4.5,1.8,7.7,1.2C547.1,485.1,544.8,485.4,541.6,485.7L541.6,485.7z M503.4,449.5c5.2,1.4,5.2,1.4,8.8-0.3L503.4,449.5z
	 M495,443.3l0.7-0.9l-8.2-0.3l-0.1,0.4L495,443.3z M546.9,448.5c0-0.1,0-0.2,0-0.3l-4.6-0.9l-0.4,0.9L546.9,448.5z M468.3,454.1
	l-0.3,0.1c0.2,0,0.4,0.1,0.6,0.1h3.9v-0.3L468.3,454.1z M476,494.1c0.1,0.3,0.3,0.5,0.4,0.8l3.1-0.7c-0.1-0.1-0.2-0.3-0.2-0.4
	L476,494.1z"/>
<path d="M581.1,457.9c5.3-0.2,10.7-1,14.8,1.7L581.1,457.9z"/>
<path d="M522.8,437l10.5,1C528.1,439.1,528.1,439.1,522.8,437z"/>
<path d="M545.8,457.4l-4.7-0.8c0.4-0.6,0.6-0.9,0.8-1c0.9-0.2,1.8-0.2,2.6-0.1c0.7,0.2,1.3,0.5,1.9,1L545.8,457.4z"/>
<path d="M348.5,423.4l4.3-0.2C350.5,424.6,350.5,424.6,348.5,423.4z"/>
<path d="M369.1,424.9c0.6-2.2,0.6-2.2,6-0.4l-6.2,0.3L369.1,424.9z"/>
<path d="M568.7,457.2l-3.9-1.1l0.7-0.8l3.9,1L568.7,457.2z"/>
<path d="M564.4,448.9l4,1l-0.3,0.5l-4.2-0.8L564.4,448.9z"/>
<path d="M564.5,462.4c-0.1-0.1-0.2-0.3-0.2-0.4c-0.1-0.7-0.1-1.4-0.2-2.1l1.3,0.1c-0.4,0.8-0.7,1.5-1.1,2.3L564.5,462.4z"/>
<path d="M425.6,428.2l5.3,0.2c0,0.1,0,0.3,0,0.5h-5.4L425.6,428.2z"/>
<path d="M517.3,410.2c1.6,0.3,3.1,0.5,4.7,0.7c3.7,0.2,7.3,0.6,10.9,1.2c3.4,0.5,7.2,0.4,10.7,1.5c3.4,0.9,7,0.8,10.3-0.4
	c3.3-1.1,6.9-1,10.2,0.2c6.1,2.4,13,2.1,19.4,2.5c7.2,0.4,14.7-0.6,22-0.6c6.6-0.1,13.2-0.2,18.9,2.5c2.5,1.2,5.8,1.8,9.7,2.9
	l-6.6,1c7.2,1.7,8.7,1.6,13-0.7c0.7-0.3,1.5-0.5,2.3-0.6c1.9-0.1,3.8-0.1,5.8,0c6.2,0.6,12.3,1.3,18.4,1.9c-0.1,0.3-0.1,0.6-0.2,0.9
	l-20.6-1c1.1,1.1,1.5,2.1,2.4,2.3c2,0.4,4.2,0.4,6.3,0.6c7.3,0.8,14.7,1.5,21.8,2.6c4,0.6,7.5,2.2,11.5,3.2c2.1,0.5,4.7,0.4,6.9,0.7
	c3.9,0.5,7.7,1.1,11.5,1.9c0.9,0.2,1.7,1.4,1.5,2s-1.8,1.2-2.9,1.3c-1.9,0.2-3.8,0.3-5.7,0.1c-7.2-0.3-14.5-1.1-21.3,1.3
	c0-0.1-0.1,0,0,0.1c0.4,0.2,0.7,0.4,1.1,0.5c-2.3,2.2-5.4,3-10.2,2.6c-6.8-0.6-13.9-1-20.8-1c-9.3,0-18.6,0.6-28,1.3
	c7.3,0.4,14.5,0.8,21.8,1.3c3.4,0.2,6.9-0.2,9.9,1.7c1.1,0.7,5,0.3,7.4-0.1c7.8-1.3,15.1-1.1,22,1.5c3.6,1.4,8.5,0.3,11.3,1.5
	c3.4,1.5,6.4,2.7,10.7,2.5l1.8-0.1l1.6-2.3l6.2,0.4l-0.2-0.1c-0.5,2.1,2,2.5,4.7,2.9c5.3,0.7,10.5,1.6,15.9,2.7
	c-3.3,0.3-3.1,3.6-7.7,2.5c-0.8-0.1-1.7-0.3-2.5-0.5c0-2.6-3.7-2.2-6.2-2.4c-8.6-0.6-17.2-0.9-25.7-1.5c-7.3-0.6-14.5-1.5-21.8-2.2
	c-1.7-0.2-3.5-0.7-4.9-0.4c-6,1.2-11.8,0.5-17.7,0.1c-1.8-0.1-3.6,0.3-5.3,1c6.2,0.3,12.3,0.6,18.5,1c11.5,0.7,23.1,1.6,34.7,2.2
	c2.6,0,5.2-0.1,7.8-0.4c2.8-0.3,4,0.4,4.4,2.4l-20.8-1c1.7,2.8,5.3,2.6,9,2.6c4.7-0.1,9.5-0.5,13.7,1.4c-6.7,1.2-13.7-0.9-20.3,0.8
	c10,0.4,19.5,2.5,29.6,2.2c-4.6,1.5-15.6,1.5-29.6,0.3c-1.5,1.1-1.1,2.1,1.3,2.5c1.8,0.3,3.9,0.1,5.7,0.4c1.3,0.2,2.4,0.9,4.7,1.8
	l-11.2,1.8c4,0.5,9.2,0.8,14.2,1.7c7.3,1.3,12.4-1.2,18.7-2.9l5.2,6.3l8.8,0.9c-1.5-1.1-1.5-1.1-6.2-2.1c4.9-1.6,9.5,0.1,14.3-0.8
	c0.1,1.2,0.2,2.1,0.3,3.1c3.3-0.5,7.3,1,9.6-1.8c5.1,3.6,12.4,2.4,18.8,3.4c-1.3,0.1-2.7,0.4-4,0.4c-13.7,0-27.4-0.3-41,0.1
	c-17.9,0.5-35.8,1.5-53.7,2.3c-6.2,0.3-12.4,0.6-18.6,0.9c-1.6,0.1-3,0.6-4.6,0.7c-1.8,0.2-3.5,0.2-5.3-0.1c-2.3-0.4-4.5-1.1-5,1.1
	c-0.7,0.4-1.5,0.6-2.3,0.6c-4.1-2-8.2-0.2-12.2,0c-18.4,0.6-36.9,0.6-55.3,0.2c-9.8-0.3-19.7,0.1-29.5,0.1
	c-4.5-0.2-9.1-0.4-13.6-0.5v1l13.8-0.5c0.9,0.5,1.8,0.8,2.8,1c15.6,0.2,31,2.2,46.7,1c3.7-0.3,7.4,0,11,0.7
	c-1.9,0.3-3.8,0.6-5.7,0.7c-10.3,0-20.6-0.2-30.8-0.2c-13.9,0-27.9,0.5-41.8,0c-6.7-0.2-12.9,1.2-21,1.1l5.1-1
	c-2.7-1.8-5.9-0.7-8.6-0.8s-5.5-0.2-8.3-0.2c-0.9-0.1-1.9-0.1-2.8,0c-4.4,2.2-9.6,1.4-14.4,1.2c-24.4-1-48.8-2.3-73.3-3.3
	c-14.4-0.6-28.8-0.7-43.1-1.3c-13.9-0.5-27.9-0.8-41.6-2.1c-17.4-1.7-34.9-2-52.4-2.6c-5.7-0.2-11.4-0.7-17.2-1
	c-3.8-0.2-7.6-0.3-11.4-0.2c-4.3,0.1-8.5-1-12.2-3.1c-3.9-2-3.6-3.5,0.1-5.9c1.7-1,3.3-2.1,5.6-3.6l-3.6-2.6c1.5-2.3,3.2-4.5,5-6.7
	c1.9-2,4-3.8,6.2-5.5c3.7-3.1,7.5-6.2,12.1-10l8.6,0.3v-2.9c10.5-1.9,21.3-3.9,31.9-5.9c4.5-0.9,9-2,13.5-2.9
	c8.4-1.7,16.8-3.3,25.1-5c6.4-1.3,13.6-1.9,18-5.7c6,2.6,11.3,2.1,17.2,0.5c4.8-1.3,9.7-3.3,15.9-1.7c1.7,0.4,4.8-0.6,7.1-1.3
	s4.4-1.7,6.8-2.3c1.3-0.3,4-0.1,4.4,0.4c1.2,1.4,2.8,1.9,5.1,1.6c3.9-0.5,8.4,0.5,11.6-1.4c3.8-2.3,7.8-2.3,12.4-0.8
	c3.3,1.2,6.9,1.2,10.3,0.1c3.4-1.4,6.8-0.9,10.3-0.7c2.3,0.1,4.6,0,6.9-0.1c1.9,0,4-0.4,5.6-0.1c2.5,0.6,4.3,0.7,6.5-0.5
	c2.8-1.5,5.2-0.1,7.5,0.9c4.3-2.4,8.4-3.3,13.2-0.5c1.4,0.8,4.5,0.6,7.7,0.9l-2.2,1.4c1.8,0.1,3.7,0.3,5.5,0.7
	c5.6,1.6,10.6,0.5,15.6-1c1.7-0.4,3.5-0.8,5.3-1L517.3,410.2z M488.6,481.1l23.6,1l0.1-1C504.4,480.6,496.5,480.6,488.6,481.1z
	 M709.1,470.8c-0.1,0.3-0.1,0.6-0.2,0.8c8.3,2.4,8.3,2.4,12.1-0.3L709.1,470.8z M690.1,471.1c2.2,2,4.5,1.8,7.7,1.2
	C695.6,470.5,693.3,470.8,690.1,471.1L690.1,471.1z M651.9,434.9c5.2,1.4,5.2,1.4,8.8-0.3L651.9,434.9z M643.5,428.7l0.7-0.9
	l-8.2-0.3c0,0.1-0.1,0.3-0.1,0.4L643.5,428.7z M695.4,433.9c0-0.1,0-0.2,0-0.3l-4.6-0.9c-0.1,0.3-0.3,0.6-0.4,0.9L695.4,433.9z
	 M616.8,439.5l-0.3,0.1c0.2,0.1,0.4,0.1,0.6,0.1h3.9v-0.3L616.8,439.5z M624.4,479.5l0.4,0.8l3.1-0.7l-0.2-0.4L624.4,479.5z"/>
<path d="M729.6,443.3c5.3-0.2,10.7-1,14.8,1.7L729.6,443.3z"/>
<path d="M671.2,422.4l10.5,1C676.6,424.5,676.6,424.5,671.2,422.4z"/>
<path d="M694.3,442.8l-4.7-0.8c0.4-0.6,0.6-1,0.8-1c0.9-0.2,1.8-0.2,2.6-0.1c0.7,0.2,1.3,0.6,1.9,1L694.3,442.8z"/>
<path d="M497,408.8l4.3-0.2C499,410,499,410,497,408.8z"/>
<path d="M517.6,410.3c0.7-2.2,0.7-2.2,6-0.4l-6.2,0.3L517.6,410.3z"/>
<path d="M717.2,442.6l-3.9-1.1l0.7-0.8l3.9,1L717.2,442.6z"/>
<path d="M712.9,434.3l4,1l-0.3,0.5l-4.2-0.8L712.9,434.3z"/>
<path d="M713,447.8c-0.1-0.1-0.2-0.3-0.2-0.4c-0.1-0.7-0.1-1.4-0.2-2.1l1.3,0.1c-0.4,0.8-0.7,1.5-1.1,2.3L713,447.8z"/>
<path d="M574.1,413.5l5.3,0.2c0,0.2,0,0.3,0,0.5H574L574.1,413.5z"/>
<path d="M390.5,410.2c1.6,0.3,3.1,0.5,4.7,0.7c3.7,0.2,7.3,0.6,10.9,1.2c3.4,0.5,7.2,0.4,10.7,1.5c3.4,0.9,7,0.8,10.3-0.4
	c3.3-1.1,6.9-1,10.2,0.2c6.1,2.4,13,2.1,19.4,2.5c7.2,0.4,14.7-0.6,22-0.6c6.6-0.1,13.2-0.2,18.9,2.5c2.5,1.2,5.8,1.8,9.7,2.9
	l-6.6,1c7.2,1.7,8.7,1.6,13-0.7c0.7-0.3,1.5-0.5,2.3-0.6c1.9-0.1,3.8-0.1,5.8,0c6.2,0.6,12.3,1.3,18.4,1.9c-0.1,0.3-0.1,0.6-0.2,0.9
	l-20.6-1c1.1,1.1,1.5,2.1,2.4,2.3c2,0.4,4.2,0.4,6.3,0.6c7.3,0.8,14.7,1.5,21.8,2.6c4,0.6,7.5,2.2,11.5,3.2c2.1,0.5,4.7,0.4,6.9,0.7
	c3.9,0.5,7.7,1.1,11.5,1.9c0.9,0.2,1.7,1.4,1.5,2s-1.8,1.2-2.9,1.3c-1.9,0.2-3.8,0.3-5.7,0.1c-7.2-0.3-14.5-1.1-21.3,1.3
	c0-0.1-0.1,0,0,0.1c0.4,0.2,0.7,0.4,1.1,0.5c-2.3,2.2-5.4,3-10.2,2.6c-6.9-0.6-13.9-1-20.8-1c-9.3,0-18.6,0.6-28,1.3
	c7.3,0.4,14.5,0.8,21.8,1.3c3.4,0.2,6.9-0.2,9.9,1.7c1.1,0.7,5,0.3,7.4-0.1c7.8-1.3,15.1-1.1,22,1.5c3.6,1.4,8.5,0.3,11.3,1.5
	c3.4,1.5,6.4,2.7,10.7,2.5l1.8-0.1l1.6-2.3l6.2,0.4l-0.2-0.1c-0.5,2.1,2,2.5,4.8,2.9c5.3,0.7,10.5,1.6,15.9,2.7
	c-3.3,0.3-3.1,3.6-7.7,2.5c-0.8-0.1-1.7-0.3-2.5-0.5c0-2.6-3.7-2.2-6.2-2.4c-8.5-0.6-17.2-0.9-25.7-1.5c-7.3-0.6-14.5-1.5-21.8-2.2
	c-1.7-0.2-3.5-0.7-4.9-0.4c-6,1.2-11.8,0.5-17.7,0.1c-1.8-0.1-3.6,0.3-5.3,1c6.2,0.3,12.3,0.6,18.5,1c11.5,0.7,23.1,1.6,34.7,2.2
	c2.6,0,5.2-0.1,7.8-0.4c2.8-0.3,4,0.4,4.4,2.4l-20.8-1c1.7,2.8,5.3,2.6,9,2.6c4.7-0.1,9.5-0.5,13.7,1.4c-6.7,1.2-13.7-0.9-20.3,0.8
	c10,0.4,19.5,2.5,29.6,2.2c-4.6,1.5-15.6,1.5-29.6,0.3c-1.5,1.1-1.1,2.1,1.3,2.5c1.8,0.3,3.9,0.1,5.7,0.4c1.3,0.2,2.4,0.9,4.7,1.8
	l-11.2,1.8c4,0.5,9.2,0.8,14.2,1.7c7.3,1.3,12.4-1.2,18.7-2.9l5.2,6.3l8.8,0.9c-1.5-1.1-1.5-1.1-6.2-2.1c4.9-1.6,9.5,0.1,14.3-0.8
	c0.1,1.2,0.2,2.1,0.3,3.1c3.3-0.5,7.3,1,9.6-1.8c5.1,3.6,12.4,2.4,18.8,3.4c-1.3,0.1-2.7,0.4-4,0.4c-13.7,0-27.4-0.3-41,0.1
	c-17.9,0.5-35.8,1.5-53.7,2.3c-6.2,0.3-12.4,0.6-18.6,0.9c-1.6,0.1-3,0.6-4.6,0.7c-1.8,0.2-3.5,0.2-5.3-0.1c-2.3-0.4-4.5-1.1-5,1.1
	c-0.7,0.4-1.5,0.6-2.3,0.6c-4.1-2-8.2-0.2-12.2,0c-18.4,0.6-36.9,0.6-55.3,0.2c-9.8-0.3-19.7,0.1-29.5,0.1
	c-4.5-0.2-9.1-0.4-13.6-0.5v1l13.8-0.5c0.9,0.5,1.8,0.8,2.8,1c15.6,0.2,31,2.2,46.7,1c3.7-0.3,7.4,0,11,0.7
	c-1.9,0.3-3.8,0.6-5.7,0.7c-10.3,0-20.6-0.2-30.8-0.2c-13.9,0-27.9,0.5-41.8,0c-6.7-0.2-12.9,1.2-21,1.1l5.1-1
	c-2.7-1.8-5.9-0.7-8.6-0.8s-5.5-0.2-8.3-0.2c-0.9-0.1-1.9-0.1-2.8,0c-4.4,2.2-9.6,1.4-14.4,1.2c-24.4-1-48.8-2.3-73.3-3.3
	c-14.4-0.6-28.8-0.7-43.1-1.3c-13.9-0.5-27.9-0.8-41.6-2.1c-17.4-1.7-34.9-2-52.4-2.6c-5.7-0.2-11.4-0.7-17.2-1
	c-3.8-0.2-7.6-0.3-11.4-0.2c-4.3,0.1-8.5-1-12.2-3.1c-3.9-2-3.6-3.5,0.1-5.9c1.7-1,3.3-2.1,5.6-3.6l-3.7-2.6c1.5-2.3,3.2-4.6,5-6.7
	c1.9-2,4-3.8,6.2-5.5c3.7-3.1,7.6-6.2,12.1-10l8.6,0.3v-2.9c10.6-1.9,21.3-3.9,31.9-5.9c4.6-0.9,9-2,13.5-2.9
	c8.4-1.7,16.8-3.3,25.1-5c6.4-1.3,13.6-1.9,18-5.7c6,2.6,11.3,2.1,17.2,0.5c4.8-1.3,9.7-3.3,15.9-1.7c1.7,0.4,4.8-0.6,7.1-1.3
	s4.4-1.7,6.8-2.3c1.3-0.3,4-0.1,4.4,0.4c1.2,1.4,2.8,1.9,5.1,1.6c3.9-0.5,8.4,0.5,11.6-1.4c3.8-2.3,7.8-2.3,12.4-0.8
	c3.3,1.2,6.9,1.2,10.3,0.1c3.4-1.4,6.8-0.9,10.3-0.7c2.3,0.1,4.6,0,6.9-0.1c1.9,0,4-0.4,5.6-0.1c2.5,0.6,4.3,0.7,6.5-0.5
	c2.8-1.5,5.2-0.1,7.5,0.9c4.3-2.4,8.4-3.3,13.2-0.5c1.4,0.8,4.5,0.6,7.7,0.9l-2.2,1.4c1.8,0.1,3.7,0.3,5.5,0.7
	c5.6,1.6,10.6,0.5,15.6-1c1.8-0.4,3.5-0.8,5.3-1L390.5,410.2z M361.8,481.1l23.6,1l0.1-1C377.6,480.6,369.7,480.6,361.8,481.1z
	 M582.2,470.8c-0.1,0.3-0.2,0.6-0.2,0.8c8.3,2.4,8.3,2.4,12.1-0.3L582.2,470.8z M563.2,471.1c2.2,2,4.5,1.8,7.7,1.2
	C568.8,470.5,566.4,470.8,563.2,471.1L563.2,471.1z M525,434.9c5.2,1.4,5.2,1.4,8.8-0.3L525,434.9z M516.7,428.7l0.7-0.9l-8.2-0.3
	c0,0.1-0.1,0.3-0.1,0.4L516.7,428.7z M568.5,433.9c0-0.1,0-0.2,0-0.3l-4.6-0.9l-0.4,0.9L568.5,433.9z M490,439.5l-0.3,0.1
	c0.2,0.1,0.4,0.1,0.6,0.1h3.9v-0.3L490,439.5z M497.6,479.5l0.4,0.8l3.1-0.7l-0.2-0.4L497.6,479.5z"/>
<path d="M602.8,443.3c5.3-0.2,10.7-1,14.8,1.7L602.8,443.3z"/>
<path d="M544.4,422.4l10.5,1C549.8,424.5,549.8,424.5,544.4,422.4z"/>
<path d="M567.5,442.8l-4.7-0.8c0.5-0.6,0.6-1,0.8-1c0.9-0.2,1.8-0.2,2.6-0.1c0.7,0.2,1.3,0.6,1.9,1L567.5,442.8z"/>
<path d="M370.2,408.8l4.3-0.2C372.1,410,372.1,410,370.2,408.8z"/>
<path d="M390.8,410.3c0.6-2.2,0.6-2.2,6-0.4l-6.2,0.3L390.8,410.3z"/>
<path d="M590.4,442.6l-3.9-1.1l0.7-0.8l3.9,1L590.4,442.6z"/>
<path d="M586,434.3l4,1l-0.3,0.5l-4.2-0.8L586,434.3z"/>
<path d="M586.2,447.8c-0.1-0.1-0.2-0.3-0.2-0.4c-0.1-0.7-0.1-1.4-0.2-2.1l1.3,0.1c-0.4,0.8-0.7,1.5-1.1,2.3L586.2,447.8z"/>
<path d="M447.2,413.5l5.3,0.2c0,0.2,0,0.3,0,0.5h-5.4L447.2,413.5z"/>
<path d="M652.5,410.2c1.6,0.3,3.2,0.5,4.8,0.7c3.7,0.2,7.4,0.6,11.1,1.2c3.5,0.5,7.4,0.4,10.9,1.5c3.5,0.9,7.1,0.8,10.5-0.4
	c3.4-1.1,7-1,10.4,0.2c6.2,2.4,13.2,2.1,19.8,2.5c7.4,0.4,15-0.6,22.5-0.6c6.7-0.1,13.5-0.2,19.3,2.5c2.6,1.2,5.9,1.8,9.9,2.9
	l-6.7,1c7.4,1.7,8.9,1.6,13.3-0.7c0.7-0.3,1.5-0.5,2.3-0.6c2-0.1,3.9-0.1,5.9,0c6.3,0.6,12.6,1.3,18.8,1.9c-0.1,0.3-0.1,0.6-0.2,0.9
	l-21-1c1.1,1.1,1.5,2.1,2.5,2.3c2,0.4,4.3,0.4,6.5,0.6c7.4,0.8,15,1.5,22.3,2.6c4.1,0.6,7.7,2.2,11.7,3.2c2.2,0.5,4.8,0.4,7.1,0.7
	c3.9,0.5,7.9,1.1,11.7,1.9c0.9,0.2,1.8,1.4,1.6,2s-1.8,1.2-3,1.3c-1.9,0.2-3.9,0.3-5.9,0.1c-7.4-0.3-14.8-1.1-21.8,1.3
	c0-0.1-0.1,0,0,0.1c0.4,0.2,0.8,0.4,1.1,0.5c-2.4,2.2-5.5,3-10.4,2.6c-7-0.6-14.2-1-21.2-1c-9.5,0-19,0.6-28.6,1.3
	c7.4,0.4,14.8,0.8,22.2,1.3c3.5,0.2,7.1-0.2,10.1,1.7c1.1,0.7,5.2,0.3,7.6-0.1c7.9-1.3,15.4-1.1,22.4,1.5c3.7,1.4,8.7,0.3,11.6,1.5
	c3.5,1.5,6.5,2.7,10.9,2.5c0.5,0,1,0,1.8-0.1l1.7-2.3l6.3,0.4l-0.2-0.1c-0.5,2.1,2,2.5,4.8,2.9c5.4,0.7,10.8,1.6,16.3,2.7
	c-3.3,0.3-3.2,3.6-7.8,2.5c-0.9-0.1-1.7-0.3-2.5-0.5c0-2.6-3.8-2.2-6.3-2.4c-8.7-0.6-17.5-0.9-26.3-1.5c-7.5-0.6-14.8-1.5-22.2-2.2
	c-1.7-0.2-3.6-0.7-5-0.4c-6.1,1.2-12.1,0.5-18.1,0.1c-1.9-0.1-3.7,0.3-5.4,1c6.3,0.3,12.6,0.6,18.8,1c11.8,0.7,23.6,1.6,35.4,2.2
	c2.6,0,5.3-0.1,7.9-0.4c2.8-0.3,4.1,0.4,4.5,2.4l-21.3-1c1.7,2.8,5.4,2.6,9.2,2.6c4.8-0.1,9.7-0.5,14,1.4c-6.9,1.2-14-0.9-20.7,0.8
	c10.2,0.4,19.9,2.5,30.3,2.2c-4.7,1.5-15.9,1.5-30.2,0.3c-1.5,1.1-1.2,2.1,1.3,2.5c1.9,0.3,4,0.1,5.8,0.4c1.3,0.2,2.5,0.9,4.8,1.8
	l-11.4,1.8c4.1,0.5,9.4,0.8,14.5,1.7c7.4,1.3,12.7-1.2,19.1-2.9l5.3,6.3l9,0.9c-1.5-1.1-1.5-1.1-6.3-2.1c5-1.6,9.7,0.1,14.6-0.8
	c0.1,1.2,0.2,2.1,0.3,3.1c3.4-0.5,7.5,1,9.8-1.8c5.2,3.6,12.6,2.4,19.2,3.4c-1.4,0.1-2.7,0.4-4.1,0.4c-14,0-28-0.3-41.9,0.1
	c-18.3,0.5-36.6,1.5-54.9,2.3c-6.3,0.3-12.7,0.6-19,0.9c-1.6,0.1-3.1,0.6-4.7,0.7c-1.8,0.2-3.6,0.2-5.4-0.1
	c-2.4-0.4-4.6-1.1-5.1,1.1c-0.7,0.4-1.5,0.6-2.4,0.6c-4.2-2-8.4-0.2-12.5,0c-18.8,0.6-37.7,0.6-56.5,0.2c-10-0.3-20.1,0.1-30.2,0.1
	c-4.7-0.2-9.3-0.4-13.9-0.5v1l14.1-0.5c0.9,0.5,1.9,0.8,2.9,1c15.9,0.2,31.7,2.2,47.7,1c3.7-0.3,7.5,0,11.2,0.7
	c-1.9,0.3-3.9,0.6-5.8,0.7c-10.5,0-21-0.2-31.5-0.2c-14.2,0-28.5,0.5-42.6,0c-6.9-0.2-13.1,1.2-21.4,1.1l5.2-1
	c-2.7-1.8-6-0.7-8.8-0.8s-5.7-0.2-8.5-0.2c-0.9-0.1-1.9-0.1-2.8,0c-4.5,2.2-9.8,1.4-14.7,1.2c-25-1-49.9-2.3-74.8-3.3
	c-14.7-0.6-29.4-0.7-44.1-1.3c-14.2-0.5-28.5-0.8-42.5-2.1c-17.8-1.7-35.6-2-53.5-2.6c-5.9-0.2-11.7-0.7-17.5-1
	c-3.9-0.2-7.8-0.3-11.6-0.2c-4.4,0.1-8.6-1-12.5-3.1c-3.9-2-3.7-3.5,0.1-5.9c1.7-1,3.3-2.1,5.8-3.6l-3.6-2.6
	c1.6-2.3,3.2-4.5,5.1-6.7c2-2,4.1-3.8,6.3-5.5c3.8-3.1,7.7-6.2,12.4-10l8.8,0.3v-2.9c10.8-1.9,21.7-3.9,32.6-5.9
	c4.7-0.9,9.1-2,13.8-2.9c8.5-1.7,17.1-3.3,25.6-5c6.6-1.3,13.9-1.9,18.3-5.7c6.1,2.6,11.5,2.1,17.5,0.5c4.9-1.3,9.9-3.3,16.3-1.7
	c1.8,0.4,4.9-0.6,7.2-1.3s4.5-1.7,7-2.3c1.3-0.3,4.1-0.1,4.5,0.4c1.2,1.4,2.8,1.9,5.2,1.6c4-0.5,8.6,0.5,11.8-1.4
	c3.9-2.3,8-2.3,12.6-0.8c3.4,1.2,7.1,1.2,10.5,0.1c3.5-1.4,6.9-0.9,10.5-0.7c2.3,0.1,4.7,0,7-0.1c1.9,0,4.1-0.4,5.7-0.1
	c2.6,0.6,4.4,0.7,6.6-0.5c2.9-1.5,5.3-0.1,7.7,0.9c4.4-2.4,8.5-3.3,13.5-0.5c1.4,0.8,4.7,0.6,7.9,0.9l-2.3,1.4
	c1.9,0.1,3.7,0.3,5.6,0.7c5.8,1.6,10.8,0.5,15.9-1c1.8-0.4,3.6-0.8,5.4-1L652.5,410.2z M623.2,481.1l24.1,1l0.1-1
	C639.3,480.6,631.2,480.6,623.2,481.1L623.2,481.1z M848.3,470.8c-0.1,0.3-0.2,0.6-0.2,0.8c8.5,2.4,8.5,2.4,12.3-0.3L848.3,470.8z
	 M828.9,471.1c2.3,2,4.6,1.8,7.9,1.2C834.6,470.5,832.2,470.8,828.9,471.1L828.9,471.1z M789.9,434.9c5.3,1.4,5.3,1.4,9-0.3
	L789.9,434.9z M781.4,428.7l0.7-0.9l-8.3-0.3l-0.1,0.4L781.4,428.7z M834.4,433.9c0-0.1,0-0.2,0-0.3l-4.7-0.9l-0.4,0.9L834.4,433.9z
	 M754.2,439.5l-0.3,0.1c0.2,0.1,0.4,0.1,0.7,0.1h3.9v-0.3L754.2,439.5z M762,479.5l0.4,0.8l3.2-0.7l-0.2-0.4L762,479.5z"/>
<path d="M869.3,443.3c5.5-0.2,10.9-1,15.1,1.7L869.3,443.3z"/>
<path d="M809.7,422.4l10.7,1C815.2,424.5,815.2,424.5,809.7,422.4z"/>
<path d="M833.3,442.8l-4.8-0.8c0.5-0.6,0.6-1,0.8-1c0.9-0.2,1.8-0.2,2.7-0.1c0.7,0.2,1.3,0.6,1.9,1
	C833.7,442.3,833.5,442.5,833.3,442.8z"/>
<path d="M631.8,408.8l4.4-0.2C633.8,410,633.8,410,631.8,408.8z"/>
<path d="M652.8,410.3c0.7-2.2,0.7-2.2,6.1-0.4l-6.3,0.3L652.8,410.3z"/>
<path d="M856.6,442.6l-4-1.1l0.7-0.8l4,1C857.1,442,856.9,442.3,856.6,442.6z"/>
<path d="M852.2,434.3l4.1,1l-0.3,0.5l-4.3-0.8L852.2,434.3z"/>
<path d="M852.4,447.8c-0.1-0.1-0.2-0.3-0.2-0.4c-0.1-0.7-0.1-1.4-0.2-2.1l1.3,0.1c-0.4,0.8-0.7,1.5-1.1,2.3L852.4,447.8z"/>
<path d="M710.5,413.5l5.5,0.2c0,0.2,0,0.3,0,0.5h-5.5L710.5,413.5z"/>
<path d="M447.8,410.2c1.6,0.3,3.1,0.5,4.7,0.7c3.7,0.2,7.3,0.6,10.9,1.2c3.4,0.5,7.2,0.4,10.7,1.5c3.4,0.9,7,0.8,10.3-0.4
	c3.3-1.1,6.9-1,10.2,0.2c6.1,2.4,13,2.1,19.4,2.5c7.2,0.4,14.7-0.6,22-0.6c6.5-0.1,13.2-0.2,18.9,2.5c2.5,1.2,5.8,1.8,9.7,2.9
	l-6.6,1c7.2,1.7,8.7,1.6,13-0.7c0.7-0.3,1.5-0.5,2.3-0.6c1.9-0.1,3.8-0.1,5.8,0c6.2,0.6,12.3,1.3,18.4,1.9c-0.1,0.3-0.1,0.6-0.2,0.9
	l-20.6-1c1.1,1.1,1.5,2.1,2.4,2.3c2,0.4,4.2,0.4,6.4,0.6c7.3,0.8,14.7,1.5,21.8,2.6c4,0.6,7.5,2.2,11.5,3.2c2.1,0.5,4.7,0.4,6.9,0.7
	c3.9,0.5,7.7,1.1,11.5,1.9c0.9,0.2,1.7,1.4,1.5,2s-1.8,1.2-2.9,1.3c-1.9,0.2-3.8,0.3-5.7,0.1c-7.2-0.3-14.5-1.1-21.3,1.3
	c0-0.1-0.1,0,0,0.1c0.4,0.2,0.7,0.4,1.1,0.5c-2.3,2.2-5.4,3-10.2,2.6c-6.8-0.6-13.8-1-20.8-1c-9.3,0-18.6,0.6-28,1.3
	c7.3,0.4,14.5,0.8,21.8,1.3c3.4,0.2,7-0.2,9.9,1.7c1.1,0.7,5,0.3,7.4-0.1c7.8-1.3,15.1-1.1,22,1.5c3.6,1.4,8.5,0.3,11.3,1.5
	c3.4,1.5,6.4,2.7,10.7,2.5l1.8-0.1l1.6-2.3l6.2,0.4l-0.2-0.1c-0.5,2.1,2,2.5,4.7,2.9c5.3,0.7,10.5,1.6,15.9,2.7
	c-3.3,0.3-3.1,3.6-7.7,2.5c-0.8-0.1-1.7-0.3-2.5-0.5c0-2.6-3.7-2.2-6.2-2.4c-8.6-0.6-17.2-0.9-25.7-1.5c-7.3-0.6-14.5-1.5-21.8-2.2
	c-1.7-0.2-3.5-0.7-4.9-0.4c-6,1.2-11.8,0.5-17.7,0.1c-1.8-0.1-3.6,0.3-5.3,1c6.2,0.3,12.3,0.6,18.5,1c11.5,0.7,23.1,1.6,34.7,2.2
	c2.6,0,5.2-0.1,7.8-0.4c2.8-0.3,4,0.4,4.4,2.4l-20.8-1c1.7,2.8,5.3,2.6,9,2.6c4.7-0.1,9.5-0.5,13.8,1.4c-6.7,1.2-13.7-0.9-20.3,0.8
	c10,0.4,19.5,2.5,29.7,2.2c-4.7,1.5-15.6,1.5-29.6,0.3c-1.5,1.1-1.1,2.1,1.3,2.5c1.8,0.3,3.9,0.1,5.7,0.4c1.3,0.2,2.4,0.9,4.7,1.8
	l-11.2,1.8c4.1,0.5,9.2,0.8,14.2,1.7c7.3,1.3,12.4-1.2,18.7-2.9l5.1,6.3l8.8,0.9c-1.5-1.1-1.5-1.1-6.2-2.1c4.9-1.6,9.5,0.1,14.3-0.8
	c0.1,1.2,0.2,2.1,0.3,3.1c3.3-0.5,7.3,1,9.6-1.8c5.1,3.6,12.4,2.4,18.8,3.4c-1.3,0.1-2.7,0.4-4,0.4c-13.7,0-27.4-0.3-41,0.1
	c-17.9,0.5-35.8,1.5-53.7,2.3c-6.2,0.3-12.4,0.6-18.6,0.9c-1.6,0.1-3,0.6-4.6,0.7c-1.8,0.2-3.5,0.2-5.3-0.1c-2.3-0.4-4.5-1.1-5,1.1
	c-0.7,0.4-1.5,0.6-2.3,0.6c-4.1-2-8.2-0.2-12.2,0c-18.4,0.6-36.9,0.6-55.3,0.2c-9.8-0.3-19.7,0.1-29.6,0.1
	c-4.5-0.2-9.1-0.4-13.6-0.5v1l13.8-0.5c0.9,0.5,1.8,0.8,2.8,1c15.6,0.2,31,2.2,46.7,1c3.7-0.3,7.4,0,11,0.7
	c-1.9,0.3-3.8,0.6-5.7,0.7c-10.3,0-20.6-0.2-30.8-0.2c-13.9,0-27.9,0.5-41.7,0c-6.7-0.2-12.9,1.2-21,1.1l5.1-1
	c-2.7-1.8-5.9-0.7-8.6-0.8s-5.5-0.2-8.3-0.2c-0.9-0.1-1.9-0.1-2.8,0c-4.4,2.2-9.6,1.4-14.4,1.2c-24.4-1-48.8-2.3-73.3-3.3
	c-14.4-0.6-28.8-0.7-43.2-1.3c-13.9-0.5-27.9-0.8-41.6-2.1c-17.4-1.7-34.9-2-52.4-2.6c-5.7-0.2-11.4-0.7-17.2-1
	c-3.8-0.2-7.6-0.3-11.4-0.2c-4.3,0.1-8.5-1-12.2-3.1c-3.9-2-3.6-3.5,0.1-5.9c1.7-1,3.3-2.1,5.6-3.6l-3.7-2.6
	c1.5-2.3,3.2-4.5,4.9-6.7c1.9-2,4-3.8,6.2-5.5c3.7-3.1,7.6-6.2,12.1-10l8.6,0.3v-2.9c10.6-1.9,21.3-3.9,31.9-5.9
	c4.5-0.9,9-2,13.5-2.9c8.4-1.7,16.8-3.3,25.1-5c6.4-1.3,13.6-1.9,18-5.7c6,2.6,11.3,2.1,17.2,0.5c4.8-1.3,9.6-3.3,15.9-1.7
	c1.7,0.4,4.8-0.6,7.1-1.3s4.4-1.7,6.8-2.3c1.3-0.3,4-0.1,4.4,0.4c1.2,1.4,2.7,1.9,5.1,1.6c3.9-0.5,8.4,0.5,11.6-1.4
	c3.8-2.3,7.8-2.3,12.4-0.8c3.3,1.2,6.9,1.2,10.2,0.1c3.4-1.4,6.8-0.9,10.3-0.7c2.3,0.1,4.6,0,6.9-0.1c1.9,0,4-0.4,5.6-0.1
	c2.5,0.6,4.3,0.7,6.5-0.5c2.8-1.5,5.2-0.1,7.5,0.9c4.3-2.4,8.4-3.3,13.2-0.5c1.4,0.8,4.6,0.6,7.7,0.9l-2.2,1.4
	c1.8,0.1,3.7,0.3,5.5,0.7c5.6,1.6,10.6,0.5,15.6-1c1.8-0.4,3.5-0.8,5.3-1L447.8,410.2z M419,481.1l23.6,1l0.1-1
	C434.8,480.6,426.9,480.6,419,481.1L419,481.1z M639.5,470.8c-0.1,0.3-0.2,0.6-0.2,0.8c8.3,2.4,8.3,2.4,12-0.3L639.5,470.8z
	 M620.5,471.1c2.2,2,4.5,1.8,7.7,1.2C626,470.5,623.7,470.8,620.5,471.1L620.5,471.1z M582.3,434.9c5.2,1.4,5.2,1.4,8.8-0.3
	L582.3,434.9z M573.9,428.7l0.7-0.9l-8.2-0.3l-0.1,0.4L573.9,428.7z M625.8,433.9c0-0.1,0-0.2,0-0.3l-4.6-0.9l-0.4,0.9L625.8,433.9z
	 M547.2,439.5l-0.3,0.1c0.2,0.1,0.4,0.1,0.6,0.1h3.9v-0.3L547.2,439.5z M554.8,479.5l0.4,0.8l3.1-0.7l-0.2-0.4L554.8,479.5z"/>
<path d="M660,443.3c5.3-0.2,10.7-1,14.8,1.7L660,443.3z"/>
<path d="M601.6,422.4l10.5,1C607,424.5,607,424.5,601.6,422.4z"/>
<path d="M624.8,442.8l-4.7-0.8c0.5-0.6,0.6-1,0.8-1c0.9-0.2,1.8-0.2,2.6-0.1c0.7,0.2,1.3,0.6,1.9,1L624.8,442.8z"/>
<path d="M427.4,408.8l4.3-0.2C429.4,410,429.4,410,427.4,408.8z"/>
<path d="M448,410.3c0.6-2.2,0.6-2.2,6-0.4l-6.2,0.3L448,410.3z"/>
<path d="M647.6,442.6l-3.9-1.1l0.7-0.8l3.9,1L647.6,442.6z"/>
<path d="M643.3,434.3l4,1l-0.3,0.5l-4.2-0.8L643.3,434.3z"/>
<path d="M643.4,447.8c-0.1-0.1-0.2-0.3-0.2-0.4c-0.1-0.7-0.1-1.4-0.2-2.1l1.3,0.1c-0.4,0.8-0.7,1.5-1.1,2.3L643.4,447.8z"/>
<path d="M504.5,413.5l5.3,0.2c0,0.2,0,0.3,0,0.5h-5.4L504.5,413.5z"/>
<path d="M389.9,395.9c1.6,0.3,3.1,0.5,4.7,0.7c3.7,0.2,7.3,0.6,10.9,1.2c3.4,0.5,7.2,0.4,10.7,1.5c3.4,0.9,7,0.8,10.3-0.4
	c3.3-1.1,6.9-1,10.2,0.2c6.1,2.4,13,2.1,19.4,2.5c7.2,0.4,14.7-0.6,22-0.6c6.5-0.1,13.2-0.2,18.9,2.5c2.5,1.2,5.8,1.8,9.7,2.9
	l-6.6,1c7.2,1.7,8.7,1.6,13-0.7c0.7-0.4,1.5-0.5,2.3-0.6c1.9-0.1,3.8-0.1,5.8,0c6.2,0.6,12.3,1.3,18.4,1.9c-0.1,0.3-0.1,0.6-0.2,0.9
	l-20.6-1c1.1,1.1,1.5,2.1,2.4,2.3c2,0.4,4.2,0.4,6.3,0.6c7.3,0.8,14.7,1.5,21.8,2.6c4,0.6,7.5,2.2,11.5,3.2c2.1,0.5,4.7,0.4,6.9,0.7
	c3.9,0.5,7.7,1.1,11.5,1.9c0.9,0.2,1.7,1.4,1.5,2s-1.8,1.2-2.9,1.3c-1.9,0.2-3.8,0.2-5.7,0.1c-7.2-0.4-14.5-1.2-21.3,1.3
	c0-0.1-0.1,0,0,0.1c0.3,0.2,0.7,0.3,1.1,0.5c-2.3,2.2-5.4,3-10.2,2.6c-6.8-0.6-13.9-1-20.8-1c-9.3,0-18.6,0.6-28,1.3
	c7.3,0.4,14.5,0.8,21.8,1.3c3.4,0.2,6.9-0.2,9.9,1.7c1.1,0.7,5,0.3,7.4-0.1c7.8-1.3,15.1-1.1,22,1.5c3.6,1.4,8.5,0.3,11.3,1.5
	c3.4,1.5,6.4,2.7,10.7,2.5l1.7-0.1l1.6-2.3l6.2,0.4l-0.2-0.1c-0.5,2.1,2,2.5,4.7,2.9c5.3,0.7,10.5,1.6,15.9,2.7
	c-3.3,0.3-3.1,3.6-7.7,2.5c-0.8-0.1-1.7-0.3-2.5-0.5c0-2.6-3.7-2.2-6.2-2.4c-8.6-0.6-17.2-0.9-25.7-1.5c-7.3-0.6-14.5-1.5-21.8-2.2
	c-1.6-0.2-3.5-0.7-4.9-0.4c-6,1.2-11.8,0.5-17.7,0.1c-1.8-0.1-3.6,0.3-5.3,1c6.2,0.3,12.3,0.6,18.5,1c11.5,0.8,23.1,1.6,34.7,2.2
	c2.6,0,5.2-0.1,7.8-0.4c2.8-0.3,4,0.4,4.4,2.4l-20.8-1c1.7,2.8,5.3,2.6,9,2.6c4.7-0.1,9.5-0.5,13.7,1.4c-6.7,1.2-13.7-0.9-20.3,0.8
	c10,0.4,19.5,2.5,29.6,2.3c-4.6,1.5-15.6,1.5-29.6,0.3c-1.5,1.1-1.1,2.1,1.3,2.5c1.8,0.3,3.9,0.1,5.7,0.4c1.3,0.2,2.4,0.9,4.7,1.8
	l-11.2,1.7c4,0.5,9.2,0.8,14.2,1.7c7.3,1.3,12.4-1.2,18.7-2.9l5.2,6.3l8.8,0.9c-1.5-1.1-1.5-1.1-6.2-2.1c4.9-1.6,9.5,0,14.3-0.8
	c0.1,1.2,0.2,2.1,0.3,3.1c3.3-0.5,7.3,1,9.6-1.8c5.1,3.6,12.4,2.4,18.8,3.4c-1.3,0.2-2.7,0.4-4,0.4c-13.7,0-27.4-0.3-41,0.1
	c-17.9,0.5-35.8,1.5-53.7,2.3c-6.2,0.3-12.4,0.6-18.6,0.9c-1.6,0.1-3,0.6-4.6,0.7c-1.8,0.2-3.5,0.2-5.3,0c-2.3-0.4-4.5-1.1-5,1.1
	c-0.7,0.4-1.5,0.6-2.3,0.6c-4.1-2-8.2-0.2-12.2,0c-18.5,0.6-36.9,0.6-55.3,0.2c-9.8-0.3-19.7,0.1-29.5,0.1
	c-4.5-0.2-9.1-0.4-13.6-0.5v1l13.8-0.5c0.9,0.5,1.8,0.8,2.8,1c15.6,0.2,31,2.2,46.7,1c3.7-0.3,7.4,0,11,0.7
	c-1.9,0.3-3.8,0.6-5.7,0.7c-10.3,0-20.6-0.2-30.8-0.2c-13.9,0-27.9,0.5-41.8,0c-6.7-0.2-12.9,1.2-20.9,1.1l5.1-1
	c-2.7-1.8-5.9-0.7-8.6-0.9s-5.5-0.2-8.3-0.2c-0.9-0.2-1.9-0.2-2.8,0c-4.4,2.2-9.6,1.4-14.4,1.2c-24.4-1-48.8-2.3-73.3-3.4
	c-14.4-0.6-28.8-0.7-43.1-1.3c-13.9-0.5-27.9-0.8-41.6-2.1c-17.4-1.7-34.9-2-52.4-2.6c-5.7-0.2-11.4-0.7-17.1-1
	c-3.8-0.2-7.6-0.3-11.4-0.2c-4.3,0.1-8.5-0.9-12.2-3c-3.9-2-3.6-3.5,0.1-5.9c1.7-1,3.3-2.1,5.6-3.6l-3.6-2.7c1.5-2.3,3.2-4.5,5-6.7
	c1.9-2,4-3.8,6.2-5.5c3.7-3.1,7.6-6.2,12.1-10l8.6,0.3v-2.9c10.6-1.9,21.3-3.9,31.9-5.9c4.6-0.9,9-2,13.5-2.9
	c8.4-1.7,16.8-3.3,25.1-5c6.4-1.3,13.6-1.9,18-5.7c6,2.6,11.3,2.1,17.2,0.5c4.8-1.3,9.7-3.3,15.9-1.7c1.7,0.4,4.8-0.6,7.1-1.3
	c2.3-0.6,4.4-1.7,6.8-2.3c1.3-0.3,4-0.1,4.4,0.4c1.2,1.4,2.8,1.9,5.1,1.6c3.9-0.5,8.4,0.5,11.6-1.4c3.8-2.3,7.8-2.3,12.4-0.8
	c3.3,1.2,6.9,1.3,10.3,0.1c3.4-1.4,6.8-0.9,10.3-0.7c2.3,0.1,4.6,0,6.9-0.1c1.9,0,4-0.5,5.6-0.1c2.5,0.6,4.3,0.7,6.5-0.5
	c2.8-1.5,5.2-0.1,7.5,0.9c4.3-2.3,8.4-3.3,13.2-0.5c1.4,0.8,4.5,0.6,7.7,0.9l-2.2,1.3c1.8,0.1,3.7,0.3,5.5,0.7
	c5.6,1.6,10.6,0.5,15.6-1c1.7-0.4,3.5-0.8,5.3-1L389.9,395.9z M361.2,466.9l23.6,1l0.1-1C377,466.4,369.1,466.4,361.2,466.9z
	 M581.7,456.6c-0.1,0.3-0.2,0.6-0.2,0.8c8.3,2.4,8.3,2.4,12.1-0.3L581.7,456.6z M562.7,456.9c2.2,2,4.5,1.8,7.7,1.2
	C568.2,456.3,565.9,456.6,562.7,456.9L562.7,456.9z M524.5,420.7c5.2,1.4,5.2,1.4,8.8-0.3L524.5,420.7z M516.1,414.5l0.7-0.9
	l-8.2-0.3l-0.1,0.4L516.1,414.5z M568,419.7c0-0.1,0-0.2,0-0.3l-4.6-0.9l-0.4,0.9L568,419.7z M489.4,425.2l-0.3,0.1
	c0.2,0.1,0.4,0.1,0.6,0.1h3.9v-0.3L489.4,425.2z M497.1,465.2l0.4,0.8l3.1-0.7l-0.2-0.4L497.1,465.2z"/>
<path d="M602.2,429.1c5.3-0.2,10.7-1,14.8,1.7L602.2,429.1z"/>
<path d="M543.8,408.2l10.5,1C549.2,410.3,549.2,410.3,543.8,408.2z"/>
<path d="M566.9,428.6l-4.7-0.8c0.5-0.6,0.6-0.9,0.8-1c0.9-0.2,1.8-0.2,2.6-0.1c0.7,0.2,1.3,0.5,1.9,0.9L566.9,428.6z"/>
<path d="M369.6,394.6l4.3-0.2C371.6,395.8,371.6,395.8,369.6,394.6z"/>
<path d="M390.2,396.1c0.6-2.2,0.6-2.2,6-0.4l-6.2,0.3L390.2,396.1z"/>
<path d="M589.8,428.4l-3.9-1.1l0.7-0.8l3.9,1C590.3,427.8,590,428.1,589.8,428.4z"/>
<path d="M585.5,420l4,1l-0.3,0.5l-4.2-0.8L585.5,420z"/>
<path d="M585.6,433.5c-0.1-0.1-0.2-0.2-0.2-0.4c-0.1-0.7-0.1-1.4-0.2-2.1l1.3,0.1c-0.4,0.8-0.7,1.5-1.1,2.3L585.6,433.5z"/>
<path d="M446.7,399.4l5.3,0.2c0,0.1,0,0.3,0,0.5h-5.4L446.7,399.4z"/>
<path d="M620.7,395.9c1.6,0.3,3.2,0.5,4.8,0.7c3.7,0.2,7.4,0.6,11.1,1.2c3.5,0.5,7.4,0.4,10.9,1.5c3.5,0.9,7.1,0.8,10.5-0.4
	c3.4-1.1,7-1,10.4,0.2c6.2,2.4,13.3,2.1,19.8,2.5c7.4,0.4,15-0.6,22.5-0.6c6.7-0.1,13.5-0.2,19.3,2.5c2.6,1.2,5.9,1.8,9.8,2.9
	l-6.7,1c7.4,1.7,8.9,1.6,13.3-0.7c0.7-0.4,1.5-0.5,2.3-0.6c2-0.1,3.9-0.1,5.9,0c6.3,0.6,12.5,1.3,18.8,1.9c-0.1,0.3-0.1,0.6-0.2,0.9
	l-21-1c1.1,1.1,1.5,2.1,2.5,2.3c2,0.4,4.3,0.4,6.5,0.6c7.4,0.8,15,1.5,22.3,2.6c4.1,0.6,7.7,2.2,11.7,3.2c2.2,0.5,4.8,0.4,7.1,0.7
	c4,0.5,7.9,1.1,11.7,1.9c0.9,0.2,1.8,1.4,1.5,2s-1.8,1.2-3,1.3c-1.9,0.2-3.9,0.2-5.8,0.1c-7.4-0.4-14.8-1.2-21.8,1.3
	c0-0.1-0.1,0,0,0.1c0.3,0.2,0.8,0.3,1.1,0.5c-2.4,2.2-5.5,3-10.4,2.6c-7-0.6-14.2-1-21.2-1c-9.5,0-19,0.6-28.6,1.3
	c7.4,0.4,14.8,0.8,22.2,1.3c3.5,0.2,7.1-0.2,10.1,1.7c1.1,0.7,5.2,0.3,7.6-0.1c8-1.3,15.5-1.1,22.4,1.5c3.7,1.4,8.7,0.3,11.6,1.5
	c3.5,1.5,6.5,2.7,10.9,2.5l1.8-0.1l1.6-2.3l6.3,0.4l-0.2-0.1c-0.5,2.1,2,2.5,4.8,2.9c5.4,0.7,10.8,1.6,16.3,2.7
	c-3.3,0.3-3.2,3.6-7.8,2.5c-0.9-0.1-1.7-0.3-2.5-0.5c0-2.6-3.7-2.2-6.3-2.4c-8.7-0.6-17.5-0.9-26.3-1.5c-7.5-0.6-14.8-1.5-22.2-2.2
	c-1.7-0.2-3.6-0.7-5-0.4c-6.1,1.2-12,0.5-18.1,0.1c-1.9-0.1-3.7,0.3-5.4,1c6.3,0.3,12.6,0.6,18.8,1c11.8,0.8,23.6,1.6,35.4,2.2
	c2.7,0,5.3-0.1,7.9-0.4c2.8-0.3,4.1,0.4,4.5,2.4l-21.3-1c1.7,2.8,5.4,2.6,9.2,2.6c4.8-0.1,9.7-0.5,14,1.4c-6.9,1.2-14-0.9-20.7,0.8
	c10.2,0.4,19.9,2.5,30.3,2.3c-4.7,1.5-15.9,1.5-30.3,0.3c-1.5,1.1-1.2,2.1,1.3,2.5c1.9,0.3,4,0.1,5.8,0.4c1.3,0.2,2.5,0.9,4.8,1.8
	l-11.4,1.8c4.1,0.5,9.4,0.8,14.5,1.7c7.4,1.3,12.7-1.2,19.1-2.9l5.3,6.3l9,0.9c-1.6-1.1-1.6-1.1-6.4-2.1c5-1.6,9.8,0,14.6-0.8
	c0.1,1.2,0.2,2.1,0.3,3.1c3.4-0.5,7.5,1,9.8-1.8c5.2,3.6,12.6,2.4,19.2,3.4c-1.3,0.2-2.7,0.4-4.1,0.4c-14,0-28-0.3-41.9,0.1
	c-18.3,0.5-36.6,1.5-54.9,2.3c-6.3,0.3-12.7,0.6-19,0.9c-1.6,0.1-3.1,0.6-4.7,0.7c-1.8,0.2-3.6,0.2-5.4,0c-2.4-0.4-4.6-1.1-5.1,1.1
	c-0.7,0.4-1.5,0.6-2.4,0.6c-4.2-2-8.4-0.2-12.5,0c-18.8,0.6-37.7,0.6-56.5,0.2c-10-0.3-20.1,0.1-30.2,0.1c-4.7-0.2-9.3-0.4-13.9-0.5
	v1l14.1-0.5c0.9,0.5,1.9,0.8,2.9,1c15.9,0.2,31.7,2.2,47.7,1c3.7-0.3,7.5,0,11.2,0.7c-1.9,0.3-3.9,0.6-5.8,0.7
	c-10.5,0-21-0.2-31.5-0.2c-14.2,0-28.5,0.5-42.6,0c-6.9-0.2-13.1,1.2-21.4,1.1l5.2-1c-2.8-1.8-6-0.7-8.8-0.9s-5.6-0.2-8.5-0.2
	c-0.9-0.2-1.9-0.2-2.8,0c-4.5,2.2-9.8,1.4-14.7,1.2c-25-1-49.9-2.3-74.8-3.4c-14.7-0.6-29.4-0.7-44.1-1.3
	c-14.2-0.5-28.5-0.8-42.5-2.1c-17.8-1.7-35.6-2-53.5-2.6c-5.9-0.2-11.7-0.7-17.5-1c-3.9-0.2-7.7-0.3-11.6-0.2
	c-4.3,0.1-8.6-0.9-12.4-3c-3.9-2-3.7-3.5,0.1-5.9c1.7-1,3.3-2.1,5.8-3.6l-3.6-2.8c1.5-2.3,3.2-4.5,5-6.7c2-2,4.1-3.8,6.3-5.5
	c3.8-3.1,7.7-6.2,12.4-10l8.8,0.3v-2.9c10.8-1.9,21.7-3.9,32.6-5.9c4.6-0.9,9.1-2,13.8-2.9c8.5-1.7,17.1-3.3,25.6-5
	c6.6-1.3,13.9-1.9,18.3-5.7c6.1,2.6,11.6,2.1,17.6,0.5c4.9-1.3,9.9-3.3,16.3-1.7c1.7,0.4,4.9-0.6,7.2-1.3s4.5-1.7,7-2.3
	c1.3-0.3,4.1-0.1,4.5,0.4c1.2,1.4,2.8,1.9,5.2,1.6c4-0.5,8.6,0.5,11.8-1.4c3.9-2.3,8-2.3,12.6-0.8c3.4,1.2,7.1,1.3,10.5,0.1
	c3.5-1.4,6.9-0.9,10.5-0.7c2.3,0.1,4.7,0,7-0.1c1.9,0,4.1-0.5,5.7-0.1c2.6,0.6,4.4,0.7,6.6-0.5c2.9-1.5,5.3-0.1,7.7,0.9
	c4.4-2.3,8.5-3.3,13.5-0.5c1.4,0.8,4.6,0.6,7.9,0.9l-2.3,1.3c1.9,0.1,3.7,0.3,5.6,0.7c5.8,1.6,10.8,0.5,15.9-1
	c1.8-0.4,3.6-0.8,5.4-1L620.7,395.9z M591.3,466.9l24.1,1l0.1-1C607.5,466.4,599.4,466.4,591.3,466.9L591.3,466.9z M816.5,456.6
	c-0.1,0.3-0.2,0.6-0.2,0.8c8.5,2.4,8.5,2.4,12.3-0.3L816.5,456.6z M797.1,456.9c2.3,2,4.6,1.8,7.9,1.2
	C802.8,456.3,800.3,456.6,797.1,456.9L797.1,456.9z M758.1,420.7c5.3,1.4,5.3,1.4,9-0.3L758.1,420.7z M749.5,414.5l0.7-0.9l-8.4-0.3
	l-0.1,0.4L749.5,414.5z M802.5,419.7c0-0.1,0-0.2,0-0.3l-4.8-0.9l-0.4,0.9L802.5,419.7z M722.3,425.2l-0.3,0.1
	c0.2,0.1,0.4,0.1,0.7,0.1h3.9v-0.3L722.3,425.2z M730.1,465.2l0.4,0.8l3.2-0.7l-0.2-0.4L730.1,465.2z"/>
<path d="M837.4,429.1c5.5-0.2,10.9-1,15.1,1.7L837.4,429.1z"/>
<path d="M777.8,408.2l10.7,1C783.3,410.3,783.3,410.3,777.8,408.2z"/>
<path d="M801.4,428.6l-4.8-0.8c0.5-0.6,0.6-0.9,0.8-1c0.9-0.2,1.8-0.2,2.7-0.1c0.7,0.2,1.3,0.5,1.9,0.9
	C801.8,428,801.6,428.3,801.4,428.6z"/>
<path d="M599.9,394.6l4.4-0.2C601.9,395.8,601.9,395.8,599.9,394.6z"/>
<path d="M620.9,396.1c0.7-2.2,0.7-2.2,6.1-0.4l-6.3,0.3L620.9,396.1z"/>
<path d="M824.8,428.4l-4-1.1l0.7-0.8l4,1L824.8,428.4z"/>
<path d="M820.4,420l4.1,1l-0.3,0.5l-4.3-0.8L820.4,420z"/>
<path d="M820.5,433.5c-0.1-0.1-0.2-0.2-0.2-0.4c-0.1-0.7-0.1-1.4-0.2-2.1l1.3,0.1c-0.4,0.8-0.7,1.5-1.1,2.3L820.5,433.5z"/>
<path d="M678.6,399.4l5.5,0.2c0,0.1,0,0.3,0,0.5h-5.5L678.6,399.4z"/>
<path d="M508.5,392.9c1.6,0.3,3.1,0.5,4.7,0.7c3.7,0.2,7.3,0.6,10.9,1.2c3.4,0.5,7.2,0.4,10.7,1.5c3.4,0.9,7,0.8,10.3-0.4
	c3.3-1.1,6.9-1,10.2,0.2c6.1,2.4,13,2.1,19.4,2.5c7.2,0.4,14.7-0.6,22-0.6c6.5-0.1,13.2-0.2,18.9,2.5c2.5,1.2,5.8,1.8,9.7,2.9
	l-6.6,1c7.2,1.7,8.7,1.6,13-0.7c0.7-0.3,1.5-0.5,2.3-0.6c1.9-0.1,3.8-0.1,5.8,0c6.2,0.6,12.3,1.3,18.4,1.9c-0.1,0.3-0.1,0.6-0.2,0.9
	l-20.6-1c1.1,1.1,1.5,2.1,2.4,2.3c2,0.4,4.2,0.4,6.4,0.6c7.3,0.8,14.7,1.5,21.8,2.6c4,0.6,7.5,2.2,11.5,3.2c2.1,0.5,4.7,0.4,6.9,0.7
	c3.9,0.5,7.7,1.1,11.5,1.9c0.9,0.2,1.7,1.4,1.5,2s-1.8,1.2-2.9,1.3c-1.9,0.2-3.8,0.2-5.7,0.1c-7.2-0.4-14.5-1.2-21.3,1.3
	c0-0.1-0.1,0,0,0.1c0.3,0.2,0.7,0.3,1.1,0.5c-2.3,2.2-5.4,3-10.2,2.6c-6.8-0.6-13.8-1-20.8-1c-9.3,0-18.6,0.6-28,1.3
	c7.3,0.4,14.5,0.8,21.8,1.3c3.4,0.2,7-0.2,9.9,1.7c1.1,0.7,5,0.3,7.4-0.1c7.8-1.3,15.1-1.1,22,1.5c3.6,1.4,8.5,0.3,11.3,1.5
	c3.4,1.5,6.4,2.7,10.7,2.6l1.8-0.1l1.6-2.3l6.2,0.4l-0.2-0.1c-0.5,2.1,2,2.5,4.7,2.9c5.3,0.7,10.5,1.6,15.9,2.7
	c-3.3,0.3-3.1,3.6-7.7,2.5c-0.8-0.1-1.7-0.3-2.5-0.5c0-2.6-3.7-2.2-6.2-2.4c-8.6-0.6-17.2-0.9-25.7-1.5c-7.3-0.6-14.5-1.5-21.8-2.2
	c-1.7-0.2-3.5-0.7-4.9-0.4c-6,1.2-11.8,0.5-17.7,0.1c-1.8-0.1-3.6,0.3-5.3,1c6.2,0.3,12.3,0.6,18.5,1c11.5,0.8,23.1,1.6,34.7,2.2
	c2.6,0,5.2-0.1,7.8-0.4c2.8-0.3,4,0.4,4.4,2.4l-20.8-1c1.7,2.8,5.3,2.6,9,2.6c4.7-0.1,9.5-0.5,13.8,1.4c-6.7,1.2-13.7-0.9-20.3,0.8
	c10,0.4,19.5,2.5,29.7,2.3c-4.7,1.5-15.6,1.5-29.6,0.3c-1.5,1.1-1.1,2.1,1.3,2.5c1.8,0.3,3.9,0.1,5.7,0.4c1.3,0.2,2.4,0.9,4.7,1.8
	l-11.2,1.8c4.1,0.5,9.2,0.8,14.2,1.7c7.3,1.3,12.4-1.2,18.7-2.9c1.7,2,3.4,4.2,5.1,6.3l8.8,0.9c-1.5-1.1-1.5-1.1-6.2-2.1
	c4.9-1.6,9.5,0,14.3-0.8c0.1,1.2,0.2,2.1,0.3,3.1c3.3-0.5,7.3,1,9.6-1.8c5.1,3.6,12.4,2.4,18.8,3.4c-1.3,0.2-2.7,0.4-4,0.4
	c-13.7,0-27.4-0.3-41,0.1c-17.9,0.5-35.8,1.5-53.7,2.3c-6.2,0.3-12.4,0.6-18.6,0.9c-1.6,0.1-3,0.6-4.6,0.7c-1.8,0.2-3.5,0.2-5.3,0
	c-2.3-0.4-4.5-1.1-5,1.1c-0.7,0.4-1.5,0.6-2.3,0.6c-4.1-2-8.2-0.2-12.2,0c-18.5,0.6-36.9,0.6-55.3,0.2c-9.8-0.3-19.7,0.1-29.5,0.1
	c-4.6-0.2-9.1-0.4-13.6-0.5v1l13.8-0.5c0.9,0.5,1.8,0.9,2.8,1c15.6,0.2,31,2.2,46.7,1c3.7-0.3,7.4,0,11,0.7
	c-1.9,0.3-3.8,0.6-5.7,0.7c-10.3,0-20.6-0.2-30.8-0.2c-13.9,0-27.9,0.5-41.7,0c-6.7-0.2-12.9,1.2-21,1.1l5.1-1
	c-2.7-1.7-5.9-0.6-8.6-0.8s-5.5-0.2-8.3-0.2c-0.9-0.1-1.9-0.1-2.8,0c-4.4,2.2-9.6,1.4-14.4,1.2c-24.4-1-48.8-2.3-73.3-3.4
	c-14.4-0.6-28.8-0.8-43.2-1.3c-13.9-0.5-27.9-0.8-41.6-2.1c-17.4-1.7-34.9-2-52.4-2.6c-5.7-0.2-11.4-0.7-17.2-1
	c-3.8-0.2-7.6-0.3-11.4-0.2c-4.3,0.1-8.5-1-12.2-3.1c-3.9-2-3.6-3.5,0.1-5.9c1.7-1,3.3-2.1,5.6-3.6c-0.9-0.7-2.4-1.8-3.6-2.7
	c1.5-2.3,3.2-4.5,5-6.7c1.9-2,4-3.8,6.2-5.5c3.7-3.1,7.5-6.2,12.1-10l8.6,0.3v-2.9c10.5-1.9,21.3-3.9,31.9-5.9c4.5-0.9,9-2,13.5-2.9
	c8.4-1.7,16.8-3.3,25.1-5c6.4-1.3,13.6-1.9,18-5.7c6,2.6,11.3,2.1,17.2,0.5c4.8-1.3,9.6-3.4,15.9-1.7c1.7,0.4,4.8-0.6,7.1-1.3
	s4.4-1.7,6.8-2.3c1.3-0.3,4-0.1,4.4,0.4c1.2,1.4,2.7,1.9,5.1,1.6c3.9-0.5,8.4,0.5,11.6-1.4c3.8-2.3,7.8-2.3,12.4-0.8
	c3.3,1.2,6.9,1.3,10.2,0.1c3.4-1.4,6.8-0.9,10.3-0.7c2.3,0.1,4.6,0,6.9-0.1c1.9,0,4-0.4,5.6-0.1c2.5,0.6,4.3,0.7,6.5-0.5
	c2.8-1.5,5.2-0.1,7.6,0.9c4.3-2.4,8.4-3.3,13.2-0.5c1.4,0.8,4.6,0.6,7.7,0.9l-2.2,1.3c1.8,0.1,3.7,0.3,5.5,0.7
	c5.6,1.6,10.6,0.5,15.6-1c1.8-0.4,3.5-0.8,5.3-1L508.5,392.9z M479.8,463.9l23.6,1l0.1-1C495.6,463.4,487.7,463.4,479.8,463.9z
	 M700.2,453.6c-0.1,0.3-0.2,0.6-0.2,0.8c8.3,2.4,8.3,2.4,12-0.3L700.2,453.6z M681.2,453.9c2.2,2,4.5,1.8,7.7,1.2
	C686.8,453.3,684.5,453.6,681.2,453.9L681.2,453.9z M643,417.7c5.2,1.4,5.2,1.4,8.8-0.3L643,417.7z M634.7,411.5
	c0.2-0.3,0.5-0.6,0.7-0.9l-8.2-0.3c0,0.1-0.1,0.3-0.1,0.4L634.7,411.5z M686.5,416.7c0-0.1,0-0.2,0-0.3l-4.6-0.9l-0.4,0.9
	L686.5,416.7z M608,422.2l-0.3,0.1c0.2,0.1,0.4,0.1,0.6,0.1h3.9v-0.3L608,422.2z M615.6,462.2l0.4,0.8l3.1-0.7l-0.2-0.4L615.6,462.2
	z"/>
<path d="M720.8,426.1c5.3-0.2,10.7-1,14.8,1.7L720.8,426.1z"/>
<path d="M662.4,405.2l10.5,1C667.8,407.3,667.8,407.3,662.4,405.2z"/>
<path d="M685.5,425.6l-4.7-0.8c0.5-0.6,0.6-0.9,0.8-1c0.9-0.2,1.8-0.2,2.6-0.1c0.7,0.2,1.3,0.5,1.9,1L685.5,425.6z"/>
<path d="M488.2,391.6l4.3-0.2C490.1,392.8,490.1,392.8,488.2,391.6z"/>
<path d="M508.8,393.1c0.6-2.2,0.6-2.2,6-0.4l-6.2,0.3L508.8,393.1z"/>
<path d="M708.4,425.4l-3.9-1.1l0.7-0.8l3.9,1L708.4,425.4z"/>
<path d="M704.1,417.1l4,1l-0.3,0.5l-4.2-0.8C703.8,417.5,703.9,417.3,704.1,417.1z"/>
<path d="M704.2,430.5c-0.1-0.1-0.2-0.3-0.2-0.4c-0.1-0.7-0.1-1.4-0.2-2.1l1.3,0.1c-0.4,0.8-0.7,1.5-1.1,2.3L704.2,430.5z"/>
<path d="M565.3,396.4l5.3,0.2c0,0.1,0,0.3,0,0.5h-5.4L565.3,396.4z"/>
<path d="M498.8,429.2c0.1,1.3,0.1,2.6,0.2,4.4C497.6,431.2,497.6,431.2,498.8,429.2z"/>
<path d="M497.4,450.2c2.2,0.7,2.2,0.7,0.4,6.1c-0.1-3-0.2-4.7-0.3-6.3L497.4,450.2z"/>
<path d="M485.2,461.1c-0.3,3.6-0.7,7.2-1,10.7C483.2,466.7,483.2,466.7,485.2,461.1z"/>
<path d="M464.8,484.7c0.3-1.6,0.5-3.1,0.8-4.8c0.6,0.5,0.9,0.6,1,0.8c0.2,0.9,0.2,1.8,0.1,2.7c-0.2,0.7-0.5,1.3-1,1.9L464.8,484.7z"
	/>
<path d="M494.1,361.9c0,1.8-0.1,3.6-0.2,5.5h-0.5v-5.5L494.1,361.9z"/>
<path d="M513.4,434.9c0,1.3,0.1,2.6,0.2,4.4C512.2,436.9,512.2,436.9,513.4,434.9z"/>
<path d="M511.9,455.9c2.2,0.7,2.2,0.7,0.4,6.1c-0.1-3-0.2-4.7-0.3-6.3L511.9,455.9z"/>
<path d="M499.8,483.3c-0.3,3.6-0.7,7.2-1,10.7C497.8,488.8,497.8,488.8,499.8,483.3z"/>
<path d="M508.7,384c-0.1,1.8-0.1,3.6-0.2,5.5H508V384L508.7,384z"/>
<path d="M513.4,363.8c0,1.3,0.1,2.6,0.2,4.4C512.2,365.8,512.2,365.8,513.4,363.8z"/>
<path d="M511.9,384.8c2.2,0.7,2.2,0.7,0.4,6.1c-0.1-3-0.2-4.7-0.3-6.3L511.9,384.8z"/>
<path d="M508.7,442.5c-0.1,1.8-0.1,3.6-0.2,5.5H508v-5.5L508.7,442.5z"/>
<path d="M514.1,482.7c-0.3,3.6-0.7,7.2-1,10.7C512,488.2,512,488.2,514.1,482.7z"/>
<path d="M522.9,383.5c0,1.8-0.1,3.6-0.2,5.5h-0.5v-5.5L522.9,383.5z"/>
<path d="M530.6,425.9c0.1,1.3,0.1,2.6,0.2,4.4C529.5,427.9,529.5,427.9,530.6,425.9z"/>
<path d="M529.2,446.9c2.2,0.7,2.2,0.7,0.4,6.1c-0.1-3-0.2-4.7-0.3-6.3L529.2,446.9z"/>
<path d="M464.7,429.2c0.1,1.3,0.1,2.6,0.2,4.4C463.5,431.2,463.5,431.2,464.7,429.2z"/>
<path d="M463.2,450.2c2.2,0.7,2.2,0.7,0.4,6.1c-0.1-3-0.2-4.7-0.3-6.3L463.2,450.2z"/>
<path d="M451.1,461.1c-0.4,3.6-0.7,7.2-1,10.7C449,466.7,449,466.7,451.1,461.1z"/>
<path d="M430.7,484.7c0.3-1.6,0.5-3.1,0.8-4.8c0.6,0.5,0.9,0.6,1,0.8c0.2,0.9,0.2,1.8,0.1,2.7c-0.2,0.7-0.5,1.3-1,1.9L430.7,484.7z"
	/>
<path d="M459.9,361.9c0,1.8-0.1,3.6-0.2,5.5h-0.5v-5.5L459.9,361.9z"/>
<path d="M479.3,434.9c0,1.3,0.1,2.6,0.2,4.4C478.1,436.9,478.1,436.9,479.3,434.9z"/>
<path d="M477.8,455.9c2.2,0.7,2.2,0.7,0.4,6.1c-0.1-3-0.2-4.7-0.3-6.3L477.8,455.9z"/>
<path d="M465.7,483.3c-0.3,3.6-0.7,7.2-1,10.7C463.6,488.8,463.6,488.8,465.7,483.3z"/>
<path d="M474.5,384c-0.1,1.8-0.1,3.6-0.2,5.5h-0.5V384L474.5,384z"/>
<path d="M479.3,363.8c0,1.3,0.1,2.6,0.2,4.4C478.1,365.8,478.1,365.8,479.3,363.8z"/>
<path d="M477.8,384.8c2.2,0.7,2.2,0.7,0.4,6.1c-0.1-3-0.2-4.7-0.3-6.3L477.8,384.8z"/>
<path d="M474.5,442.5c-0.1,1.8-0.1,3.6-0.2,5.5h-0.5v-5.5L474.5,442.5z"/>
<path d="M479.9,482.7c-0.3,3.6-0.7,7.2-1,10.7C477.8,488.2,477.8,488.2,479.9,482.7z"/>
<path d="M488.8,383.5c0,1.8-0.1,3.6-0.2,5.5h-0.5v-5.5L488.8,383.5z"/>
<path d="M255.5,433.5c-1.6-0.3-3.1-0.5-4.7-0.7c-3.6-0.2-7.3-0.6-10.9-1.2c-3.4-0.5-7.2-0.4-10.7-1.5c-3.4-0.9-7-0.8-10.3,0.4
	c-3.3,1.1-6.9,1-10.2-0.2c-6.1-2.4-13-2.1-19.4-2.5c-7.2-0.4-14.7,0.6-22,0.6c-6.6,0.1-13.2,0.2-18.9-2.5c-2.5-1.2-5.8-1.8-9.6-2.9
	l6.6-1c-7.2-1.7-8.7-1.6-13,0.7c-0.7,0.3-1.5,0.5-2.3,0.6c-1.9,0.1-3.8,0.1-5.8,0c-6.2-0.6-12.3-1.3-18.4-1.9
	c0.1-0.3,0.1-0.6,0.2-0.9l20.6,1c-1.1-1.1-1.5-2.1-2.4-2.3c-2-0.4-4.2-0.4-6.4-0.6c-7.3-0.8-14.6-1.5-21.8-2.6
	c-4-0.6-7.6-2.2-11.5-3.2c-2.1-0.5-4.7-0.4-6.9-0.7c-3.9-0.5-7.7-1.1-11.5-1.9c-0.9-0.2-1.7-1.4-1.5-2c0.2-0.6,1.8-1.2,2.9-1.3
	c1.9-0.2,3.8-0.3,5.7-0.1c7.2,0.3,14.5,1.1,21.3-1.3c0,0.1,0.1,0,0-0.1c-0.4-0.2-0.7-0.4-1.1-0.5c2.3-2.2,5.4-3,10.2-2.6
	c6.9,0.6,13.9,1,20.8,1c9.3,0,18.6-0.6,28-1.3c-7.3-0.4-14.5-0.8-21.8-1.3c-3.4-0.2-7,0.2-9.9-1.7c-1-0.7-5-0.3-7.4,0.1
	c-7.8,1.3-15.1,1.1-22-1.5c-3.6-1.4-8.5-0.3-11.4-1.5c-3.4-1.5-6.4-2.7-10.7-2.5l-1.8,0.1l-1.6,2.3l-6.2-0.4L60,396
	c0.5-2.1-2-2.5-4.7-2.9c-5.3-0.7-10.5-1.6-15.9-2.7c3.3-0.3,3.1-3.6,7.7-2.5c0.8,0.1,1.7,0.3,2.5,0.5c0,2.6,3.7,2.2,6.2,2.4
	c8.6,0.6,17.2,0.9,25.7,1.5c7.3,0.6,14.5,1.5,21.8,2.2c1.6,0.2,3.5,0.7,4.9,0.4c6-1.2,11.8-0.5,17.7-0.1c1.8,0.1,3.6-0.3,5.3-1
	c-6.1-0.3-12.3-0.6-18.4-1c-11.6-0.7-23.1-1.6-34.7-2.2c-2.6,0-5.2,0.1-7.8,0.4c-2.8,0.3-4-0.4-4.4-2.4l20.9,1
	c-1.7-2.8-5.3-2.6-9-2.6c-4.7,0.1-9.5,0.5-13.7-1.4c6.7-1.2,13.7,0.9,20.3-0.8c-10-0.4-19.5-2.5-29.7-2.2c4.7-1.5,15.6-1.5,29.6-0.3
	c1.5-1.1,1.1-2.1-1.3-2.5c-1.8-0.3-3.9-0.1-5.7-0.4c-1.3-0.2-2.4-0.9-4.7-1.8l11.1-1.8c-4.1-0.5-9.2-0.8-14.2-1.7
	c-7.3-1.3-12.4,1.2-18.7,2.9l-5.1-6.3l-8.8-0.8c1.5,1.1,1.5,1.1,6.2,2.1c-4.9,1.6-9.6-0.1-14.3,0.8c-0.1-1.2-0.2-2.1-0.3-3.1
	c-3.3,0.5-7.3-1-9.6,1.8c-5.1-3.6-12.4-2.4-18.8-3.4c1.3-0.1,2.7-0.4,4-0.4c13.7,0,27.4,0.3,41-0.1c17.9-0.5,35.8-1.5,53.7-2.3
	c6.2-0.3,12.4-0.6,18.6-0.9c1.6-0.1,3-0.6,4.6-0.7c1.8-0.2,3.5-0.2,5.3,0.1c2.4,0.4,4.5,1.1,5-1.1c0.7-0.4,1.5-0.6,2.3-0.6
	c4.1,2,8.2,0.2,12.2,0c18.4-0.6,36.9-0.6,55.3-0.2c9.8,0.3,19.7-0.1,29.5-0.1c4.5,0.2,9.1,0.4,13.6,0.5v-1l-13.8,0.5
	c-0.9-0.5-1.8-0.8-2.8-1c-15.6-0.2-31-2.2-46.7-1c-3.7,0.3-7.4,0-11-0.7c1.9-0.3,3.8-0.6,5.7-0.7c10.3,0,20.6,0.2,30.8,0.2
	c13.9,0,27.9-0.5,41.7,0c6.7,0.2,12.9-1.2,20.9-1.1l-5.1,1c2.7,1.8,5.9,0.7,8.6,0.9s5.5,0.2,8.3,0.2c0.9,0.1,1.9,0.1,2.8,0
	c4.4-2.2,9.6-1.4,14.4-1.2c24.4,1,48.8,2.3,73.3,3.4c14.4,0.6,28.8,0.7,43.2,1.3c13.9,0.5,27.9,0.8,41.6,2.1
	c17.4,1.7,34.9,2,52.4,2.6c5.7,0.2,11.4,0.7,17.2,1c3.8,0.2,7.6,0.3,11.4,0.2c4.3-0.1,8.5,1,12.2,3.1c3.8,2,3.6,3.5-0.1,5.9
	c-1.7,1-3.3,2.1-5.7,3.6l3.6,2.7c-1.5,2.3-3.2,4.5-5,6.7c-1.9,2-4,3.8-6.2,5.5c-3.7,3.1-7.5,6.2-12.1,10l-8.6-0.3v2.9
	c-10.6,1.9-21.3,3.9-31.9,5.9c-4.6,0.9-9,2-13.5,2.9c-8.4,1.7-16.8,3.3-25.1,5c-6.4,1.3-13.6,1.9-18,5.7c-6-2.6-11.3-2.1-17.2-0.5
	c-4.8,1.3-9.6,3.3-15.9,1.7c-1.7-0.4-4.8,0.6-7.1,1.3s-4.4,1.7-6.8,2.3c-1.3,0.3-4,0.1-4.4-0.4c-1.2-1.4-2.7-1.9-5.1-1.6
	c-3.9,0.5-8.4-0.5-11.6,1.4c-3.8,2.3-7.8,2.3-12.4,0.8c-3.3-1.2-6.9-1.2-10.2-0.1c-3.4,1.4-6.8,0.9-10.3,0.7c-2.3-0.1-4.6,0-6.9,0.1
	c-1.9,0-4,0.4-5.6,0.1c-2.5-0.6-4.3-0.7-6.5,0.5c-2.8,1.5-5.2,0.1-7.5-0.9c-4.3,2.3-8.4,3.3-13.2,0.5c-1.4-0.8-4.5-0.6-7.7-0.9
	l2.2-1.4c-1.8-0.1-3.7-0.3-5.5-0.7c-5.6-1.6-10.6-0.5-15.6,1c-1.8,0.4-3.5,0.8-5.3,1L255.5,433.5z M284.2,362.6l-23.6-1l-0.1,1
	C268.4,363.1,276.3,363.1,284.2,362.6L284.2,362.6z M63.8,372.9c0.1-0.3,0.2-0.6,0.2-0.8c-8.3-2.4-8.3-2.4-12.1,0.3L63.8,372.9z
	 M82.8,372.6c-2.2-2-4.5-1.8-7.7-1.2C77.2,373.2,79.6,372.9,82.8,372.6z M121,408.8c-5.1-1.4-5.1-1.4-8.8,0.3L121,408.8z M129.3,415
	l-0.7,0.9l8.2,0.3l0.1-0.4L129.3,415z M77.5,409.8c0,0.1,0,0.2,0,0.3l4.6,0.9l0.4-0.9L77.5,409.8z M156,404.2l0.3-0.1
	c-0.2-0.1-0.4-0.1-0.6-0.1h-3.9v0.3L156,404.2z M148.4,364.2c-0.1-0.3-0.3-0.5-0.4-0.8l-3.1,0.7l0.2,0.4L148.4,364.2z"/>
<path d="M43.3,400.4c-5.3,0.2-10.7,1-14.8-1.7L43.3,400.4z"/>
<path d="M101.6,421.3l-10.5-1C96.2,419.2,96.2,419.2,101.6,421.3z"/>
<path d="M78.5,400.9l4.7,0.8c-0.4,0.6-0.6,1-0.8,1c-0.9,0.2-1.8,0.2-2.6,0.1c-0.7-0.2-1.3-0.5-1.9-1L78.5,400.9z"/>
<path d="M275.8,434.9l-4.3,0.2C273.9,433.7,273.9,433.7,275.8,434.9z"/>
<path d="M255.3,433.4c-0.6,2.2-0.6,2.2-6,0.4l6.2-0.3L255.3,433.4z"/>
<path d="M55.6,401.1l3.9,1.1l-0.7,0.8l-3.9-1L55.6,401.1z"/>
<path d="M60,409.4l-4-1l0.3-0.5l4.2,0.8L60,409.4z"/>
<path d="M59.8,395.9c0.1,0.1,0.2,0.3,0.2,0.4c0.1,0.7,0.1,1.4,0.2,2.1l-1.3-0.1c0.4-0.8,0.7-1.5,1.1-2.3L59.8,395.9z"/>
<path d="M198.8,430.1l-5.3-0.2c0-0.2,0-0.3,0-0.5h5.4L198.8,430.1z"/>
<path d="M496.5,425.9c0.1,1.3,0.1,2.6,0.2,4.4C495.3,427.9,495.3,427.9,496.5,425.9z"/>
<path d="M495,446.9c2.2,0.7,2.2,0.7,0.4,6.1c-0.1-3-0.2-4.7-0.3-6.3L495,446.9z"/>
</svg>
