<?xml version="1.0" encoding="utf-8"?>
<!-- Generator: Adobe Illustrator 23.0.2, SVG Export Plug-In . SVG Version: 6.00 Build 0)  -->
<svg version="1.1" id="Layer_1" xmlns="http://www.w3.org/2000/svg" xmlns:xlink="http://www.w3.org/1999/xlink" x="0px" y="0px"
	 viewBox="0 0 2200 2000" style="enable-background:new 0 0 2200 2000;" xml:space="preserve">
<style type="text/css">
	.st0{fill:#469F99;}
</style>
<g>
	<path class="st0" d="M1848.9,313.4c-180.5-180.5-420.5-279.9-675.7-279.9S678,132.8,497.6,313.4c-19.6,19.6-19.6,51.3,0,70.9
		c19.6,19.6,51.3,19.6,70.9,0c333.5-333.5,876.3-333.5,1209.7,0s333.5,876.3,0,1209.7s-876.3,333.5-1209.7,0
		c-163.2-163.2-251.7-378.8-250.4-609l152.7,7.5c18.4,0.9,24.4-10.4,13.3-25.1L301.9,725.1c-11-14.6-30.2-15.6-42.6-2.1L54.3,946.3
		c-12.4,13.5-7.6,25.4,10.7,26.3l152.6,7.5c-1.2,123.3,20.9,243.7,65.7,358.1c48.2,122.7,120.2,232.7,214.2,326.8
		c180.5,180.5,420.5,279.9,675.7,279.9s495.2-99.4,675.7-279.9c180.5-180.5,279.9-420.5,279.9-675.7
		C2128.8,733.8,2029.5,493.9,1848.9,313.4z"/>
	<path class="st0" d="M955.3,617.1c-94.8,0-171.9,77.1-171.9,171.9s77.1,171.9,171.9,171.9s171.9-77.1,171.9-171.9
		C1127.3,694.2,1050.2,617.1,955.3,617.1z M955.3,882.5c-51.6,0-93.6-42-93.6-93.6c0-51.6,42-93.6,93.6-93.6
		c51.6,0,93.6,42,93.6,93.6C1048.9,840.5,1006.9,882.5,955.3,882.5z"/>
	<path class="st0" d="M1430.6,1024.6c-94.8,0-171.9,77.1-171.9,171.9c0,94.8,77.1,171.9,171.9,171.9s171.9-77.1,171.9-171.9
		C1602.5,1101.7,1525.3,1024.6,1430.6,1024.6z M1430.6,1290.1c-51.6,0-93.6-42-93.6-93.6c0-51.6,42-93.6,93.6-93.6
		s93.6,42,93.6,93.6C1524.2,1248.1,1482.2,1290.1,1430.6,1290.1z"/>
	<path class="st0" d="M1479.4,629.7l-644.9,644.9c-20.4,20.4-20.4,53.5,0,73.9c10.3,10.3,23.5,15.3,36.9,15.3
		c13.4,0,26.8-5.1,36.9-15.3l644.9-644.9c20.4-20.4,20.4-53.5,0-73.9C1532.8,609.3,1499.8,609.3,1479.4,629.7z"/>
</g>
</svg>
