<?xml version="1.0" encoding="utf-8"?>
<!-- Generator: Adobe Illustrator 23.0.2, SVG Export Plug-In . SVG Version: 6.00 Build 0)  -->
<svg version="1.1" id="Layer_1" xmlns="http://www.w3.org/2000/svg" xmlns:xlink="http://www.w3.org/1999/xlink" x="0px" y="0px"
	 viewBox="0 0 2200 2000" style="enable-background:new 0 0 2200 2000;" xml:space="preserve">
<style type="text/css">
	.st0{fill:none;stroke:#479F99;stroke-width:200;stroke-miterlimit:10;}
	.st1{fill:#479F99;}
	.st2{fill:#FFFFFF;}
</style>
<g>
	<g>
		<circle class="st0" cx="1052" cy="992.7" r="836"/>
		<g>
			<g>
				<polygon class="st1" points="432.8,1000 696.9,752.3 957.3,996.3 1851.6,136.7 2115.7,384.4 959.2,1493.6 				"/>
				<path class="st2" d="M1851.6,202.2l194.9,182.1L959.2,1426.2L503.8,1000l194.9-182.1l260.4,244.1L1851.6,202.2 M1851.6,69.3
					L1786,133L957.3,930.8L762.5,748.6l-65.6-61.9l-65.6,61.9L436.4,930.8l-74.7,71l74.7,71L891.8,1499l65.6,61.9l65.6-63.7
					L2110.2,453.6l72.9-71l-74.7-69.2l-194.9-182.1L1851.6,69.3L1851.6,69.3z"/>
			</g>
		</g>
	</g>
</g>
</svg>
